<?xml version="1.0" encoding="utf-8"?>
<!-- Generator: Adobe Illustrator 22.0.0, SVG Export Plug-In . SVG Version: 6.00 Build 0)  -->
<svg version="1.1" id="Layer_1" xmlns="http://www.w3.org/2000/svg" xmlns:xlink="http://www.w3.org/1999/xlink" x="0px" y="0px"
	 viewBox="0 0 107.1 29.9" style="enable-background:new 0 0 107.1 29.9;" xml:space="preserve">
<style type="text/css">
	.st0{fill:#FFFFFF;}
</style>
<g>
	<g>
		<path class="st0" d="M36.5,4.9c0,0.2,0,0.4,0,0.7c0,6.3,0,12.5,0,18.8c0,0.7,0,0.7-0.7,0.7c-11.3,0-22.6,0-33.9,0
			c-0.2,0-0.3,0-0.5,0c0-0.1,0-0.2,0-0.3c0-6.6,0-13.1,0-19.7c0,0,0-0.1,0-0.1C13.1,4.9,24.8,4.9,36.5,4.9z M30.5,6.7
			c0,0.7,0,1.4,0,2c0,0.7,0,1.3,0,2c0,0.1,0.1,0.3,0.1,0.4c0.5,0.7,0.6,1.4,0.2,1.9c-0.4,0.6-1.4,0.8-2,0.4
			c-0.5-0.4-0.7-1.2-0.4-1.8c0.1-0.2,0.3-0.5,0.3-0.7c0-1.3,0-2.6,0-3.8c0-0.1-0.2-0.2-0.3-0.2c-1.3,0-2.5,0-3.8,0
			c-0.3,0-0.3,0.1-0.3,0.3c0,1.2,0,2.3,0,3.5c0,0.3,0,0.6,0.2,0.8c0.3,0.3,0.4,1.1,0.2,1.4c-0.5,0.9-1.2,1.1-2.1,0.5
			c-0.7-0.4-0.7-1.3-0.4-1.8c0.1-0.2,0.3-0.5,0.3-0.7c0-1.2,0-2.5,0-3.7c0-0.1-0.2-0.2-0.3-0.2c-1.3,0-2.6,0-3.9,0
			c-0.1,0-0.3,0.2-0.3,0.3c0,5.3,0,10.6,0,15.9c0,0.5,0.1,0.6,0.6,0.6c2.2,0,4.5,0,6.7,0c0.1,0,0.2-0.1,0.2-0.2c0-0.5,0-1,0-1.6
			c0-0.6,0-1.2,0-1.8c0-0.1,0-0.3-0.1-0.4c-0.6-0.5-0.6-1.6,0-2.1c0.6-0.4,1.1-0.6,1.9,0c0.4,0.4,0.7,1.2,0.3,1.7
			c-0.1,0.2-0.3,0.4-0.3,0.7c0,1.2,0,2.4,0,3.7c2.4,0,4.9,0,7.3,0c0-5.6,0-11.1,0-16.6C33.4,6.7,31.9,6.7,30.5,6.7z M16.5,6.7
			c-4.5,0-9,0-13.5,0c0,3.4,0,6.8,0,10.1c0,0,0,0,0,0c0-3.2,0-6.5,0-9.7c0,0,0,0,0,0c0,3.4,0,6.9,0,10.3c0.2,0,0.4,0,0.5,0
			c1.7,0,3.3,0,5,0c0.1,0,0.3-0.1,0.4-0.1c0.7-0.6,1.3-0.6,2.1,0c0.3,0.3,0.5,1.1,0.2,1.6c-0.3,0.5-0.7,0.8-1.3,0.7
			c-0.4-0.1-0.8-0.3-1.3-0.5c-1.7,0-3.6,0-5.5,0c0,1.2,0,2.4,0,3.6c0,0-0.1,0-0.1,0c0-1,0-2,0-3c0,0,0,0,0,0c0,1.1,0,2.3,0,3.4
			c4.5,0,9,0,13.5,0c0-0.2-0.1-0.3-0.1-0.5c0-3.1,0-6.1,0-9.2c0-0.1,0-0.2,0-0.3c0.1-0.3,0-0.4-0.3-0.4c-1.6,0-3.2,0-4.8,0
			c-0.2,0-0.4,0.1-0.5,0.2c-0.4,0.4-1.3,0.4-1.7,0c-0.5-0.5-0.8-1-0.4-1.8c0.3-0.7,1.3-1.1,2-0.5c0.2,0.2,0.5,0.3,0.7,0.3
			c1.4,0,2.7,0,4.1,0c0.8,0,0.8,0,0.8-0.8c0-1.1,0-2.1,0-3.2C16.5,7.1,16.5,6.9,16.5,6.7z M29.7,11.5c-0.4,0-0.7,0.3-0.7,0.6
			c0,0.3,0.4,0.6,0.7,0.6c0.4,0,0.6-0.3,0.6-0.7C30.2,11.8,30.1,11.4,29.7,11.5z M10.6,18.3c0-0.3-0.4-0.7-0.7-0.6
			c-0.4,0.1-0.6,0.4-0.5,0.7c0,0.3,0.3,0.6,0.6,0.6C10.3,19,10.6,18.7,10.6,18.3z M26.4,18.9c0.5,0,0.8-0.2,0.9-0.6
			c0-0.3-0.3-0.7-0.6-0.7c-0.3,0-0.8,0.4-0.7,0.7C26,18.6,26.3,18.8,26.4,18.9z M10,11.5c-0.3,0-0.6,0.3-0.6,0.6
			c0,0.4,0.2,0.6,0.6,0.6c0.3,0.1,0.7-0.3,0.7-0.6C10.7,11.8,10.4,11.5,10,11.5z M24.1,12.1c0-0.4-0.2-0.6-0.6-0.6
			c-0.4,0-0.7,0.3-0.6,0.7c0,0.3,0.2,0.5,0.6,0.5C23.8,12.7,24.1,12.4,24.1,12.1z M16.5,13.5C16.5,13.5,16.5,13.5,16.5,13.5
			c0,3.1,0,6.3,0,9.4c0,0,0,0,0,0C16.5,19.8,16.5,16.6,16.5,13.5z"/>
		<path class="st0" d="M106.3,17.1c0-0.3-0.1-0.6-0.1-0.8c0,1.2-0.5,2.2-1.6,2.8c-1.1,0.6-2.2,0.3-3.1-0.6c0,0.1-0.1,0.1-0.1,0.2
			c0.2,0.6-0.2,0.6-0.6,0.6c-1.1,0-1.1,0-1.1-1.1c0-2.5,0-4.9,0-7.4c0-0.3,0.1-0.5,0.4-0.4c0.3,0,0.6,0,0.9,0c0.3,0,0.5,0,0.4,0.5
			c-0.1,0.7,0,1.4,0,2.1c0,0.2,0,0.3,0,0.7c0.9-1.1,2.1-1.3,3.2-0.7c1,0.5,1.6,1.5,1.6,2.7c0-0.3,0.1-0.5,0.1-0.8
			C106.3,15.5,106.3,16.3,106.3,17.1z M102.9,14.1c-0.1,0-0.3,0-0.4,0c-0.3,0.2-0.8,0.4-0.9,0.8c-0.2,0.5-0.1,1.1,0,1.7
			c0,0.8,1.2,1.4,2,1.1c0.6-0.3,0.9-0.8,1-1.4C104.6,15.3,104.1,14,102.9,14.1z"/>
		<path class="st0" d="M44.7,10.1c0.5,0,0.9,0,1.4,0.1c0.8,0.1,1.5,0.3,2.1,0.8c0.1,0.1,0.2,0.1,0.3,0.2c0.4,0.3,0.1,0.5-0.1,0.7
			c-0.2,0.3-0.4,0.6-0.6,0.8c-0.1,0.1-0.3,0.1-0.4,0c-0.8-0.6-1.7-0.9-2.7-0.8c-0.5,0.1-0.8,0.4-0.8,0.9c0,0.4,0.4,0.5,0.6,0.5
			c0.7,0.2,1.3,0.3,2,0.6c0.7,0.2,1.4,0.5,1.9,1.1c0.6,0.7,0.6,1.6,0.4,2.4c-0.4,1.2-1.3,1.6-2.4,1.9c-1,0.2-1.9,0.1-2.8-0.2
			c-0.7-0.2-1.3-0.6-1.8-1c-0.3-0.2,0.1-0.4,0.2-0.7c0.1-0.3,0.3-0.5,0.5-0.8c0.1-0.1,0.3-0.1,0.3,0c0.5,0.5,1.2,0.8,1.9,0.9
			c0.4,0.1,0.9,0,1.4,0c0.6,0,0.9-0.5,0.8-1.1c0-0.1-0.2-0.3-0.3-0.4c-0.6-0.2-1.1-0.3-1.7-0.5c-1-0.3-2.1-0.6-2.7-1.6
			c-0.4-0.7-0.4-1.4-0.1-2C42.6,10.9,43.6,10.3,44.7,10.1z"/>
		<path class="st0" d="M84.6,16.9c0.4-1.3,0.8-2.6,1.2-3.8c0.1-0.2,0.2-0.4,0.4-0.3c0.4,0,0.8,0,1.2,0c0.4,1.3,0.9,2.7,1.3,4
			c0,0,0.1,0,0.1,0c0.1-0.4,0.2-0.8,0.3-1.2c0.2-0.7,0.4-1.5,0.6-2.2c0-0.1,0-0.2,0.1-0.3c0.1-0.2,0.2-0.3,0.5-0.3
			c0.4,0.1,0.8,0,1.3,0c0.2,0.2-0.1,0.5-0.1,0.8c-0.1,0.4-0.2,0.9-0.4,1.3c-0.2,0.5-0.3,1-0.5,1.6c-0.1,0.4-0.2,0.8-0.3,1.2
			c-0.1,0.5-0.3,0.9-0.4,1.4c0,0.1-0.2,0.2-0.3,0.2c-0.4,0-0.9,0-1.3,0c-0.1,0-0.3-0.1-0.3-0.2c-0.2-0.7-0.4-1.4-0.7-2.2
			c-0.2-0.6-0.4-1.2-0.6-1.8c-0.1,0.1-0.1,0.2-0.1,0.2c-0.2,0.8-0.5,1.6-0.7,2.4c-0.1,0.4-0.2,0.8-0.3,1.2c-0.1,0.3-0.2,0.5-0.6,0.5
			c-0.4,0-0.7,0-1.1,0c-0.2,0-0.3-0.2-0.4-0.4c-0.3-0.9-0.5-1.7-0.8-2.6c-0.1-0.4-0.2-0.8-0.4-1.2c-0.2-0.6-0.4-1.3-0.6-1.9
			c-0.1-0.2-0.1-0.4,0.3-0.3c0.4,0,0.8,0,1.3,0c0.1,0,0.2,0.1,0.3,0.2c0.3,1,0.5,1.9,0.8,2.9c0.1,0.3,0.1,0.6,0.2,0.9
			C84.5,16.7,84.5,16.8,84.6,16.9z"/>
		<path class="st0" d="M75.8,18.3c-0.6,0.7-1.3,1-2.1,0.9c-0.8,0-1.5-0.4-2-1.1c-0.4-0.5-0.5-1.1-0.6-1.7c-0.1-0.9,0-1.6,0.3-2.4
			c0.6-1.4,2.2-2,3.5-1.4c0.2,0.1,0.4,0.3,0.6,0.5c0.1,0.1,0.1,0.1,0.3,0.2c0-0.3,0-0.6,0-0.9c0-0.7,0-1.3,0-2
			c0-0.1,0.1-0.3,0.2-0.3c0.4,0,0.9,0,1.3,0c0.1,0,0.3,0.2,0.3,0.3c0,2.7,0,5.5,0,8.2c0,0.3-0.1,0.4-0.4,0.4c-0.3,0-0.7,0-1,0
			c-0.3,0-0.4-0.1-0.3-0.5C75.8,18.6,75.8,18.5,75.8,18.3z M74.4,14.1c-1-0.1-1.7,0.9-1.6,1.9c0,0.6,0.3,1.2,0.8,1.5
			c0.5,0.3,1.1,0.2,1.6,0c0.4-0.1,0.6-0.4,0.6-0.9c0-0.5,0-0.9,0-1.4c0-0.2,0.1-0.4,0-0.5C75.4,14.3,75,14.1,74.4,14.1z"/>
		<path class="st0" d="M60.5,18.6c-0.5,0.2-0.9,0.5-1.4,0.6c-0.5,0.1-1.1,0-1.6-0.2c-0.6-0.2-1.1-0.8-1.2-1.4c-0.2-0.7,0-1.5,0.6-2
			c0.7-0.6,1.5-0.7,2.4-0.6c0.4,0.1,0.7,0.3,1,0.5c0.1,0,0.2,0,0.3,0.1c0-0.3,0-0.6-0.1-0.9c-0.2-0.6-0.7-0.7-1.2-0.7
			c-0.6,0-1.2,0.1-1.7,0.5c-0.2,0.2-0.4,0.1-0.5-0.2c-0.1-0.3-0.3-0.6-0.5-0.9c0.6-0.3,1.1-0.6,1.7-0.8c0.9-0.2,1.9-0.3,2.8,0.2
			c0.9,0.5,1.2,1.2,1.2,2.1c0,1.2,0,2.4,0,3.6c0,0.5-0.2,0.5-0.6,0.5c-0.1,0-0.3,0-0.4,0C60.9,19.1,60.4,19.3,60.5,18.6z M60.6,17.1
			c-0.1-0.2-0.1-0.4-0.3-0.6c-0.4-0.4-1.5-0.5-2-0.1c-0.3,0.2-0.5,0.7-0.2,1.1c0.3,0.5,0.8,0.6,1.3,0.5C60.2,18,60.5,17.7,60.6,17.1
			z"/>
		<path class="st0" d="M96.3,16.5c-0.7,0-1.3,0-2,0c-0.3,0-0.3,0.1-0.2,0.4c0.4,0.8,1.1,1,1.8,1c0.5,0,0.9-0.3,1.3-0.5
			c0.1,0,0.3,0,0.3,0.1c0.2,0.2,0.4,0.5,0.6,0.8c0,0.1,0,0.2-0.1,0.3c-0.9,0.7-1.9,0.9-3,0.8c-0.9-0.1-1.7-0.5-2.3-1.3
			c-0.5-0.7-0.7-1.4-0.7-2.2c0.1-0.9,0.5-1.8,1.2-2.4c0.6-0.5,1.3-0.8,2-0.8c0.9,0,1.7,0.2,2.3,0.9c0.8,0.8,1,1.7,1,2.7
			c0,0.3-0.1,0.3-0.4,0.4C97.7,16.5,97,16.5,96.3,16.5C96.3,16.5,96.3,16.5,96.3,16.5z M94,15.2c1,0,2,0,3,0
			c0.1-0.5-0.3-1.1-1.2-1.3C94.9,13.8,94.2,14.3,94,15.2z"/>
		<path class="st0" d="M69.9,19.1c-0.5,0-1,0-1.6,0c-0.1,0-0.2-0.2-0.2-0.4c0-1.2,0-2.5,0-3.7c0-0.8-0.7-1.1-1.5-0.9
			c-0.3,0.1-0.6,0.3-0.9,0.5c-0.1,0.1-0.2,0.3-0.2,0.4c0,1.2-0.1,2.4,0,3.5c0,0.6-0.2,0.6-0.6,0.6c-1.1,0-1.1,0-1.1-1.1
			c0-1.7,0-3.4,0-5.1c0-0.1,0-0.2,0-0.3c0.5,0,0.9,0,1.4,0c0.5,0,0.2,0.4,0.3,0.7c0.3-0.2,0.5-0.3,0.7-0.5c0.9-0.5,1.8-0.6,2.7-0.1
			c0.5,0.3,0.9,0.9,0.9,1.5C69.9,15.9,69.9,17.5,69.9,19.1z"/>
		<path class="st0" d="M53,19.4c-0.6-0.2-1.4-0.4-1.9-0.7c-0.7-0.5-1.3-1.2-1.3-2.2c0-0.6,0-1.2,0.1-1.7c0.2-0.6,0.5-1.1,1-1.5
			c0.7-0.6,1.5-0.8,2.3-0.7c0.5,0,1,0.2,1.4,0.4c0.3,0.1,0.6,0.4,0.8,0.7c0,0,0,0.2,0,0.2c-0.3,0.3-0.6,0.5-0.8,0.7
			c-0.3,0.3-0.4,0-0.6-0.1c-0.2-0.1-0.3-0.2-0.4-0.3c-0.9-0.3-2,0.1-2.2,1.1c-0.2,0.8,0,1.5,0.6,2.1c0.3,0.3,1.3,0.4,1.6,0.2
			c0.2-0.1,0.4-0.3,0.7-0.5c0.1,0,0.2-0.1,0.2,0c0.3,0.3,0.6,0.6,0.9,0.9c0.1,0.1-0.1,0.4-0.2,0.5c-0.6,0.5-1.3,0.9-2.3,0.8
			C53,19.3,53,19.4,53,19.4z"/>
		<path class="st0" d="M80.9,15.8c0,1,0,1.9,0,2.9c0,0.3-0.1,0.4-0.4,0.4c-0.3,0-0.7,0-1,0c-0.3,0-0.4-0.2-0.4-0.4
			c0-1.9,0-3.7,0-5.6c0-0.4,0.1-0.5,0.5-0.5c0.3,0,0.7,0,1,0c0.1,0,0.2,0.1,0.2,0.2C80.8,13.9,80.8,14.8,80.9,15.8
			C80.8,15.8,80.8,15.8,80.9,15.8z"/>
		<path class="st0" d="M81,11c0.1,0.5-0.6,1-1,1.1c-0.4,0-1-0.6-1-1.1c0-0.5,0.5-1.1,1-1C80.4,10,81.1,10.6,81,11z"/>
	</g>
</g>
</svg>
