<?xml version="1.0" encoding="utf-8"?>
<!-- Generator: Adobe Illustrator 22.0.0, SVG Export Plug-In . SVG Version: 6.00 Build 0)  -->
<svg version="1.1" id="Layer_1" xmlns="http://www.w3.org/2000/svg" xmlns:xlink="http://www.w3.org/1999/xlink" x="0px" y="0px"
	 viewBox="0 0 88.7 56.8" style="enable-background:new 0 0 88.7 56.8;" xml:space="preserve">
<style type="text/css">
	.st0{fill:#FFFFFF;}
</style>
<title>emaill</title>
<g>
	<g>
		<path class="st0" d="M80.9,0H7.8C3.5,0,0,3.5,0,7.8v40.7c0,4.3,3.5,7.8,7.8,7.8h73.1c4.3,0,7.8-3.5,7.8-7.8V7.8
			C88.7,3.5,85.2,0,80.9,0z M55.4,26.8L83.6,7L84,6.7c0.1,0.4,0.2,0.7,0.2,1.1v40.4L55.4,26.8z M4.5,48.5V7.8c0-0.4,0.1-0.8,0.2-1.1
			C4.8,6.8,4.9,6.9,5.1,7l28.5,19.9L4.5,48.5z M9.3,4.5h70L45.8,28c-0.9,0.6-2.1,0.6-3,0L9.3,4.5z M7.8,51.8c-0.1,0-0.2,0-0.3,0
			l29.9-22.2l2.9,2c2.4,1.7,5.7,1.7,8.1,0l3.1-2.1l30,22.2c-0.2,0-0.4,0.1-0.6,0.1L7.8,51.8z"/>
	</g>
</g>
</svg>
