<?xml version="1.0" encoding="utf-8"?>
<!-- Generator: Adobe Illustrator 22.0.0, SVG Export Plug-In . SVG Version: 6.00 Build 0)  -->
<svg version="1.1" id="Layer_1" xmlns="http://www.w3.org/2000/svg" xmlns:xlink="http://www.w3.org/1999/xlink" x="0px" y="0px"
	 viewBox="0 0 44 44" style="enable-background:new 0 0 44 44;" xml:space="preserve">
<style type="text/css">
	.st0{fill:none;}
	.st1{fill:#FFFFFF;}
</style>
<title>dribbble</title>
<desc>Created with Sketch.</desc>
<g id="dribbble">
	<g id="dribble">
		<rect id="Rectangle" class="st0" width="44" height="44"/>
		<path id="Shape" class="st1" d="M32.8,19.8c-0.1-0.7-0.4-1.4-0.6-2.1c-0.3-0.7-0.6-1.3-1-1.9c-0.4-0.6-0.8-1.1-1.3-1.6
			c-0.5-0.5-1-0.9-1.6-1.3c-0.6-0.4-1.2-0.7-1.9-1c-0.7-0.3-1.4-0.5-2.1-0.6C23.5,11.1,22.7,11,22,11c-0.7,0-1.5,0.1-2.2,0.2
			c-0.7,0.1-1.4,0.4-2.1,0.6c-0.7,0.3-1.3,0.6-1.9,1c-0.6,0.4-1.1,0.8-1.6,1.3c-0.5,0.5-0.9,1-1.3,1.6c-0.4,0.6-0.7,1.2-1,1.9
			c-0.3,0.7-0.5,1.4-0.6,2.1C11.1,20.5,11,21.3,11,22c0,0.7,0.1,1.5,0.2,2.2c0.1,0.7,0.4,1.4,0.6,2.1c0.3,0.7,0.6,1.3,1,1.9
			c0.4,0.6,0.8,1.1,1.3,1.6c0.5,0.5,1,0.9,1.6,1.3c0.6,0.4,1.2,0.7,1.9,1c0.7,0.3,1.4,0.5,2.1,0.6c0.7,0.2,1.5,0.2,2.2,0.2
			c0.7,0,1.5-0.1,2.2-0.2c0.7-0.1,1.4-0.4,2.1-0.6c0.7-0.3,1.3-0.6,1.9-1c0.6-0.4,1.1-0.8,1.6-1.3c0.5-0.5,0.9-1,1.3-1.6
			c0.4-0.6,0.7-1.2,1-1.9c0.3-0.7,0.5-1.4,0.6-2.1c0.1-0.7,0.2-1.5,0.2-2.2C33,21.3,32.9,20.5,32.8,19.8L32.8,19.8z M31.4,21.9
			c-0.1,0-3.3-0.7-6.5-0.3c-0.1-0.2-0.1-0.3-0.2-0.5c-0.2-0.5-0.4-0.9-0.6-1.4c3.7-1.5,5.2-3.7,5.2-3.7
			C30.6,17.6,31.4,19.7,31.4,21.9L31.4,21.9z M28.2,15c0,0-1.4,2.1-4.9,3.4c-1.6-3-3.4-5.3-3.5-5.5c0.7-0.2,1.5-0.3,2.2-0.3
			C24.4,12.6,26.5,13.5,28.2,15L28.2,15z M19.7,12.9C19.7,12.9,19.7,12.9,19.7,12.9C19.7,12.9,19.7,12.9,19.7,12.9
			C19.7,12.9,19.7,12.9,19.7,12.9L19.7,12.9z M18,13.5c0.1,0.2,1.9,2.5,3.5,5.4c-4.5,1.2-8.4,1.2-8.7,1.1
			C13.4,17.2,15.4,14.7,18,13.5L18,13.5z M12.6,22c0-0.1,0-0.2,0-0.3c0.2,0,4.8,0.1,9.6-1.3c0.3,0.5,0.5,1.1,0.8,1.6
			c-0.1,0-0.2,0.1-0.4,0.1c-5.1,1.6-7.6,6.2-7.6,6.2s0,0,0,0C13.5,26.6,12.6,24.4,12.6,22L12.6,22z M22,31.4c-2.3,0-4.4-0.8-6-2.2
			c0.1,0.1,0.2,0.2,0.2,0.2s1.8-3.9,7.4-5.9c0,0,0,0,0.1,0c1.3,3.4,1.9,6.3,2,7.1C24.5,31.1,23.3,31.4,22,31.4L22,31.4z M27.3,29.8
			c-0.1-0.6-0.6-3.3-1.8-6.7c3-0.5,5.7,0.3,5.9,0.4C30.9,26.1,29.4,28.4,27.3,29.8L27.3,29.8z"/>
	</g>
</g>
</svg>
