<?xml version="1.0" encoding="utf-8"?>
<!-- Generator: Adobe Illustrator 22.0.0, SVG Export Plug-In . SVG Version: 6.00 Build 0)  -->
<svg version="1.1" id="Layer_1" xmlns="http://www.w3.org/2000/svg" xmlns:xlink="http://www.w3.org/1999/xlink" x="0px" y="0px"
	 viewBox="0 0 421.6 475" style="enable-background:new 0 0 421.6 475;" xml:space="preserve">
<style type="text/css">
	.st0{fill:#FFFFFF;}
	.st1{fill:#0D45A1;}
	.st2{fill:none;stroke:#FFFFFF;stroke-width:2;stroke-miterlimit:10;}
	.st3{fill:none;stroke:#0D45A1;stroke-width:2;stroke-miterlimit:10;}
	.st4{opacity:0.25;fill:#ACAAE2;enable-background:new    ;}
	.st5{fill:#F3E2CC;}
	.st6{opacity:0.75;fill:#F3E2CC;enable-background:new    ;}
	.st7{fill:#D998A9;}
	.st8{fill:#FA6E79;}
	.st9{fill:#0E0B0B;}
	.st10{fill:none;stroke:#B7B6B6;stroke-miterlimit:10;}
	.st11{fill:#1B294B;}
	.st12{fill:#FFBE2E;}
	.st13{fill:#E0A92E;}
	.st14{opacity:0.45;fill:#F3E2CC;enable-background:new    ;}
	.st15{fill:none;stroke:#C9798D;stroke-width:0.25;stroke-miterlimit:10;}
	.st16{fill:none;stroke:#DAD9F5;stroke-width:2;stroke-linecap:round;stroke-miterlimit:10;}
	.st17{opacity:0.25;fill:#00CDBD;enable-background:new    ;}
	.st18{fill:#00CDBD;}
	.st19{fill:#294270;}
</style>
<g id="Group_29899" transform="translate(-166.614 -172)">
	<g id="Group_25521" transform="translate(166.614 172)">
		<g id="Group_25490" transform="translate(71.031 0)">
			<g id="Group_25496" transform="translate(5.209 0)">
				<g id="Group_25490-2" transform="translate(89.544 88.416)">
					<path id="Path_20774" class="st0" d="M5.1,5.8L4.3,8.7c0,0.1-0.1,0.1-0.2,0.1C4,8.8,4,8.7,3.9,8.7L3.2,5.8
						c0-0.1-0.1-0.1-0.1-0.1L0.1,4.8C0,4.8,0,4.7,0,4.6c0-0.1,0.1-0.1,0.1-0.1L3,3.7c0.1,0,0.1-0.1,0.1-0.1l0.8-2.9
						c0-0.1,0.1-0.1,0.2-0.1c0.1,0,0.1,0.1,0.1,0.1l0.8,2.9c0,0.1,0.1,0.1,0.1,0.1l2.9,0.8c0.1,0,0.1,0.1,0.1,0.2
						c0,0.1-0.1,0.1-0.1,0.1L5.2,5.6C5.1,5.6,5.1,5.7,5.1,5.8z"/>
					<path id="Path_20775" class="st0" d="M18,2.9l-0.4,1.6c0,0.1-0.1,0.1-0.1,0.1c0,0,0,0-0.1-0.1L17,2.9c0,0,0-0.1-0.1-0.1
						l-1.6-0.4c-0.1,0-0.1-0.1-0.1-0.1c0,0,0,0,0.1-0.1l1.6-0.4c0,0,0.1,0,0.1-0.1l0.4-1.6C17.4,0,17.5,0,17.5,0c0,0,0,0,0.1,0.1
						L18,1.7c0,0,0,0.1,0.1,0.1l1.6,0.4c0.1,0,0.1,0.1,0.1,0.1c0,0,0,0-0.1,0.1L18,2.9C18,2.8,18,2.8,18,2.9z"/>
					<path id="Path_20776" class="st0" d="M13.3,10.2l-0.4,1.6c0,0.1-0.1,0.1-0.1,0.1c0,0,0,0-0.1-0.1l-0.4-1.6c0,0,0-0.1-0.1-0.1
						l-1.6-0.4c-0.1,0-0.1-0.1-0.1-0.1c0,0,0,0,0.1-0.1l1.6-0.4c0,0,0.1,0,0.1-0.1l0.4-1.6c0-0.1,0.1-0.1,0.1-0.1c0,0,0,0,0.1,0.1
						L13.3,9c0,0,0,0.1,0.1,0.1L15,9.5c0.1,0,0.1,0.1,0.1,0.1c0,0,0,0-0.1,0.1L13.3,10.2C13.4,10.1,13.4,10.2,13.3,10.2z"/>
				</g>
				<g id="Group_25491" transform="translate(162.727 173.871)">
					<path id="Path_20777" class="st0" d="M11.5,4.5l0.6,2.3c0,0.1,0.1,0.1,0.2,0.1c0,0,0.1,0,0.1-0.1l0.6-2.3c0,0,0-0.1,0.1-0.1
						l2.3-0.6c0.1,0,0.1-0.1,0.1-0.2c0,0,0-0.1-0.1-0.1L13,2.9c0,0-0.1,0-0.1-0.1l-0.6-2.3c0-0.1-0.1-0.1-0.2-0.1c0,0-0.1,0-0.1,0.1
						l-0.6,2.3c0,0,0,0.1-0.1,0.1L9.1,3.5C9,3.5,9,3.6,9,3.7c0,0,0,0.1,0.1,0.1L11.5,4.5C11.4,4.4,11.4,4.4,11.5,4.5z"/>
					<path id="Path_20778" class="st0" d="M1.4,2.2l0.3,1.3c0,0,0.1,0.1,0.1,0.1c0,0,0,0,0.1-0.1l0.3-1.3c0,0,0,0,0.1-0.1l1.3-0.3
						c0,0,0.1-0.1,0.1-0.1c0,0,0,0-0.1-0.1L2.2,1.4c0,0,0,0-0.1-0.1L1.8,0.1C1.8,0,1.8,0,1.7,0c0,0,0,0-0.1,0.1L1.4,1.3
						c0,0,0,0-0.1,0.1L0.1,1.7C0,1.7,0,1.7,0,1.8c0,0,0,0,0.1,0.1L1.4,2.2C1.3,2.2,1.4,2.2,1.4,2.2z"/>
					<path id="Path_20779" class="st0" d="M5,8l0.3,1.3c0,0,0.1,0.1,0.1,0.1c0,0,0,0,0.1-0.1L5.8,8c0,0,0,0,0.1-0.1l1.3-0.3
						c0,0,0.1-0.1,0.1-0.1c0,0,0,0-0.1-0.1L5.9,7.1c0,0,0,0-0.1-0.1L5.5,5.8c0,0-0.1-0.1-0.1-0.1c0,0,0,0-0.1,0.1L5,7
						c0,0,0,0-0.1,0.1L3.7,7.4c0,0-0.1,0.1-0.1,0.1c0,0,0,0,0.1,0.1L5,8C5,7.9,5,7.9,5,8z"/>
				</g>
				<g id="Group_25492" transform="translate(168.892 29.231)">
					<path id="Path_20780" class="st0" d="M8.2,3.2l0.4,1.6c0,0.1,0.1,0.1,0.1,0.1c0,0,0,0,0.1-0.1l0.4-1.6c0,0,0-0.1,0.1-0.1
						l1.6-0.4C11,2.7,11,2.6,11,2.6c0,0,0,0-0.1-0.1L9.3,2.1c0,0-0.1,0-0.1-0.1L8.8,0.4c0-0.1-0.1-0.1-0.1-0.1c0,0,0,0-0.1,0.1
						L8.2,2c0,0,0,0.1-0.1,0.1L6.5,2.5c-0.1,0-0.1,0.1-0.1,0.1c0,0,0,0,0.1,0.1L8.2,3.2C8.2,3.2,8.2,3.2,8.2,3.2z"/>
					<path id="Path_20781" class="st0" d="M1,1.6l0.2,0.9c0,0,0,0,0.1,0c0,0,0,0,0,0l0.2-0.9c0,0,0,0,0,0l0.9-0.2c0,0,0,0,0-0.1
						c0,0,0,0,0,0L1.6,1c0,0,0,0,0,0L1.3,0c0,0,0,0-0.1,0c0,0,0,0,0,0L1,0.9c0,0,0,0,0,0L0,1.2c0,0,0,0,0,0.1c0,0,0,0,0,0L1,1.6
						C1,1.6,1,1.6,1,1.6z"/>
					<path id="Path_20782" class="st0" d="M3.6,5.7l0.2,0.9c0,0,0,0,0.1,0c0,0,0,0,0,0l0.2-0.9c0,0,0,0,0,0l0.9-0.2c0,0,0,0,0-0.1
						c0,0,0,0,0,0L4.2,5.1c0,0,0,0,0,0L3.9,4.1c0,0,0,0-0.1,0c0,0,0,0,0,0L3.6,5c0,0,0,0,0,0L2.6,5.3c0,0,0,0,0,0.1c0,0,0,0,0,0
						L3.6,5.7C3.5,5.7,3.6,5.7,3.6,5.7z"/>
				</g>
				<g id="Group_25495">
					<path id="Path_20787" class="st0" d="M102,21.5c0-0.5,0.4-1,1-1c0.5,0,1,0.4,1,1s-0.4,1-1,1l0,0C102.5,22.5,102,22,102,21.5z"
						/>
					<path id="Path_20788" class="st0" d="M35.4,156.4c0-0.5,0.4-1,1-1s1,0.4,1,1c0,0.5-0.4,1-1,1l0,0
						C35.8,157.4,35.4,157,35.4,156.4z"/>
					<path id="Path_20789" class="st0" d="M127.9,227.4c0-0.5,0.4-1,1-1s1,0.4,1,1c0,0.5-0.4,1-1,1c0,0,0,0,0,0
						C128.4,228.4,127.9,227.9,127.9,227.4z"/>
					<path id="Path_20790" class="st0" d="M224.6,114.2c-0.2-1,0.4-1.9,1.4-2.1c1-0.2,1.9,0.4,2.1,1.4s-0.4,1.9-1.4,2.1
						c-0.2,0-0.5,0-0.7,0C225.3,115.5,224.8,114.9,224.6,114.2z"/>
					<path id="Path_20791" class="st0" d="M279.8,187.4c-0.2-1,0.4-1.9,1.4-2.1c1-0.2,1.9,0.4,2.1,1.4c0.2,1-0.4,1.9-1.4,2.1
						c-0.2,0-0.5,0-0.7,0C280.5,188.6,279.9,188.1,279.8,187.4z"/>
					<path id="Path_20792" class="st0" d="M307.8,140.7c-0.3-1.5,0.7-2.9,2.1-3.2c1.5-0.3,2.9,0.7,3.2,2.1c0.3,1.5-0.7,2.9-2.1,3.2
						c-0.4,0.1-0.7,0.1-1.1,0C308.8,142.6,308,141.8,307.8,140.7z"/>
					<path id="Path_20793" class="st0" d="M289.2,83.9c-0.1-0.6,0.3-1.3,0.9-1.4s1.3,0.3,1.4,0.9c0.1,0.6-0.3,1.3-0.9,1.4
						c-0.2,0-0.3,0-0.5,0C289.7,84.7,289.3,84.3,289.2,83.9z"/>
					<circle id="Ellipse_1066" class="st1" cx="63" cy="6" r="1.8"/>
					<circle id="Ellipse_1067" class="st0" cx="13.7" cy="83.8" r="1.8"/>
					<circle id="Ellipse_1068" class="st0" cx="118" cy="188.3" r="1.8"/>
					<circle id="Ellipse_1069" class="st2" cx="86.7" cy="223.2" r="3.4"/>
					<circle id="Ellipse_1070" class="st2" cx="56" cy="109.9" r="3.4"/>
					<circle id="Ellipse_1071" class="st1" cx="151" cy="1.8" r="1.8"/>
					<circle id="Ellipse_1072" class="st3" cx="192.7" cy="10.5" r="3.1"/>
					<path id="Path_20794" class="st0" d="M281.7,152.6c0-0.5,0.4-1,1-1c0.5,0,1,0.4,1,1c0,0.5-0.4,1-1,1c0,0,0,0,0,0
						C282.2,153.6,281.7,153.2,281.7,152.6z"/>
					<path id="Path_20795" class="st0" d="M177.3,167.7c0-0.5,0.4-1,1-1s1,0.4,1,1c0,0.5-0.4,1-1,1
						C177.7,168.7,177.3,168.2,177.3,167.7C177.3,167.7,177.3,167.7,177.3,167.7z"/>
					<path id="Path_20796" class="st0" d="M183.7,27.6c0-0.5,0.4-1,1-1s1,0.4,1,1c0,0.5-0.4,1-1,1l0,0
						C184.1,28.6,183.7,28.1,183.7,27.6C183.7,27.6,183.7,27.6,183.7,27.6z"/>
					<path id="Path_20797" class="st0" d="M39.4,233.5c0-0.5,0.4-1,1-1s1,0.4,1,1c0,0.5-0.4,1-1,1l0,0
						C39.8,234.5,39.4,234.1,39.4,233.5C39.4,233.5,39.4,233.5,39.4,233.5z"/>
					<path id="Path_20798" class="st0" d="M180.8,223.2c0-0.5,0.4-1,1-1s1,0.4,1,1c0,0.5-0.4,1-1,1
						C181.3,224.2,180.8,223.7,180.8,223.2C180.8,223.2,180.8,223.2,180.8,223.2z"/>
					<path id="Path_20799" class="st0" d="M217.7,193.1c0-0.5,0.4-1,1-1s1,0.4,1,1c0,0.5-0.4,1-1,1l0,0
						C218.1,194.1,217.7,193.7,217.7,193.1C217.7,193.1,217.7,193.1,217.7,193.1z"/>
					<path id="Path_20800" class="st0" d="M0,13.6c0-0.5,0.4-1,1-1c0.5,0,1,0.4,1,1c0,0.5-0.4,1-1,1C0.4,14.6,0,14.1,0,13.6z"/>
					<path id="Path_20801" class="st0" d="M252.9,193.7c0-0.5,0.4-1,1-1c0.5,0,1,0.4,1,1c0,0.5-0.4,1-1,1S252.9,194.2,252.9,193.7
						L252.9,193.7z"/>
				</g>
			</g>
			<g id="Group_25501" transform="translate(197.852 121.634)">
				<path id="Path_20808" class="st4" d="M22.6,8.6L21,18.3c-0.3,2.2-2.4,3.7-4.6,3.4c-0.3-0.1-0.6-0.1-0.9-0.3
					c-0.5-0.2-1-0.4-1.6-0.5c-4.4-0.7-8.7,3-9.5,8.3s2,10.2,6.4,10.9c0.5,0.1,1,0.1,1.5,0.1c2.3-0.2,4.2,1.4,4.5,3.7
					c0,0.3,0,0.7,0,1l-1.5,9.4c-0.4,2.2,1.1,4.3,3.4,4.7l9.6,1.5c2.2,0.4,4.3-1.1,4.7-3.3c0.1-0.4,0.1-0.7,0-1.1
					c-0.1-0.6-0.1-1.3,0-1.9c0.7-4.4,5.6-7.3,10.9-6.4s9,5.1,8.3,9.5c-0.1,0.6-0.3,1.2-0.6,1.8c-0.9,2,0,4.4,2,5.3
					c0.3,0.1,0.7,0.2,1,0.3l9.6,1.5c2.2,0.4,4.3-1.1,4.7-3.4l7.4-45.6c0.4-2.2-1.1-4.3-3.4-4.7c0,0,0,0,0,0L27.2,5.3
					C25,4.9,22.9,6.4,22.6,8.6C22.6,8.6,22.6,8.6,22.6,8.6z"/>
				<path id="Path_20809" class="st1" d="M18.4,3.4l-1.6,9.7c-0.3,2.2-2.4,3.7-4.6,3.4c-0.3-0.1-0.6-0.1-0.9-0.3
					c-0.5-0.2-1-0.4-1.6-0.5C5.3,15,1,18.7,0.1,24s2,10.2,6.4,10.9C7.1,35,7.6,35,8.1,35c2.3-0.2,4.2,1.4,4.5,3.7c0,0.3,0,0.7,0,1
					L11,49c-0.4,2.2,1.1,4.3,3.4,4.7l9.6,1.5c2.2,0.4,4.3-1.1,4.7-3.3c0.1-0.4,0.1-0.7,0-1.1c-0.1-0.6-0.1-1.3,0-1.9
					c0.7-4.4,5.6-7.3,10.9-6.4s9,5.1,8.3,9.5c-0.1,0.6-0.3,1.2-0.6,1.8c-0.9,2,0,4.4,2,5.3c0.3,0.1,0.7,0.2,1,0.3l9.6,1.5
					c2.2,0.4,4.3-1.1,4.7-3.4L72,12.1c0.4-2.2-1.1-4.3-3.4-4.7c0,0,0,0,0,0L23.1,0C20.8-0.3,18.8,1.2,18.4,3.4
					C18.4,3.4,18.4,3.4,18.4,3.4z"/>
			</g>
			<path id="Path_20810" class="st4" d="M138.5,161l0.2,0.2c-0.1,0-0.1,0.1-0.2,0.1h0c-0.1,0-0.2,0-0.2,0c0,0,0,0,0,0
				c-0.1,0-0.2,0-0.3-0.1c-0.7-0.3-1.4-0.6-2.1-0.8c-0.6,0-1.3,0.1-1.8,0.5c-0.4,0.2-0.7,0.4-1,0.7c-0.1,0.1-0.3,0.2-0.4,0.3
				c-0.2,0.2-0.5,0.3-0.8,0.4c0.1-0.2,0.3-0.4,0.4-0.6c1.2-1.9,3.7-2.5,5.6-1.4C138,160.5,138.2,160.7,138.5,161z"/>
			<g id="Group_25510" transform="translate(30.5 37.755)">
				<path id="Path_20856" class="st4" d="M53,44.7c-0.2-0.2-0.5-0.4-0.7-0.6c-1.7-1.1-2.1-3.3-1-5c0.1-0.2,0.3-0.4,0.4-0.5l4.7-4.7
					c1.4-1.4,1.4-3.8,0-5.2l-4.6-4.6c-1.4-1.4-3.8-1.4-5.2,0c-0.2,0.2-0.3,0.4-0.5,0.6c-0.2,0.3-0.4,0.6-0.7,0.8
					c-2.5,2.5-6.9,2.1-9.9-0.9s-3.4-7.4-0.9-9.9c0.2-0.3,0.5-0.5,0.8-0.7c1.7-1.1,2.2-3.4,1-5.1c-0.1-0.2-0.3-0.4-0.5-0.6l-4.6-4.6
					c-1.4-1.4-3.8-1.4-5.2,0l-4.7,4.7c-1.4,1.4-1.4,3.7,0.1,5.1c0.2,0.2,0.3,0.3,0.5,0.4c0.2,0.2,0.5,0.4,0.7,0.6
					c2.5,2.5,2.1,6.9-0.9,9.9s-7.4,3.4-9.9,0.9c-0.2-0.2-0.4-0.5-0.6-0.7c-1.1-1.7-3.3-2.1-5-1C6.1,23.7,6,23.9,5.8,24l-4.7,4.7
					c-1.4,1.4-1.4,3.8,0,5.2l25,25c1.4,1.4,3.8,1.4,5.2,0l4.7-4.7c1.4-1.4,3.7-1.4,5.1,0.1c0.2,0.2,0.3,0.3,0.4,0.5
					c0.2,0.2,0.4,0.5,0.6,0.7c2.5,2.5,6.9,2.1,9.9-0.9S55.4,47.2,53,44.7z"/>
				<path id="Path_20857" class="st1" d="M59.2,42.1c-0.2-0.2-0.5-0.4-0.7-0.6c-1.7-1.1-2.1-3.3-1-5c0.1-0.2,0.3-0.4,0.4-0.5
					l4.7-4.7c1.4-1.4,1.4-3.8,0-5.2L58,21.5c-1.4-1.4-3.8-1.4-5.2,0c-0.2,0.2-0.3,0.4-0.5,0.6c-0.2,0.3-0.4,0.6-0.7,0.8
					c-2.5,2.5-6.9,2.1-9.9-0.9s-3.4-7.4-0.9-9.9c0.2-0.3,0.5-0.5,0.8-0.7c1.7-1.1,2.2-3.4,1-5.1c-0.1-0.2-0.3-0.4-0.5-0.6l-4.6-4.6
					c-1.4-1.4-3.8-1.4-5.2,0l-4.7,4.7c-1.4,1.4-1.4,3.7,0.1,5.1c0.2,0.2,0.3,0.3,0.5,0.4c0.2,0.2,0.5,0.4,0.7,0.6
					c2.5,2.5,2.1,6.9-0.9,9.9s-7.4,3.4-9.9,0.9c-0.2-0.2-0.4-0.5-0.6-0.7c-1.1-1.7-3.3-2.1-5-1c-0.2,0.1-0.4,0.3-0.5,0.4l-4.7,4.7
					c-1.4,1.4-1.4,3.8,0,5.2l25,25c1.4,1.4,3.8,1.4,5.2,0l4.7-4.7c1.4-1.4,3.7-1.4,5.1,0.1c0.2,0.2,0.3,0.3,0.4,0.5
					c0.2,0.2,0.4,0.5,0.6,0.7c2.5,2.5,6.9,2.1,9.9-0.9S61.7,44.6,59.2,42.1z"/>
			</g>
		</g>
	</g>
</g>
<g>
	<g id="Group_25500" transform="translate(90.402 115.145)">
		<g id="Group_25499">
			<g id="Group_25498" transform="translate(0 1.172)">
				<path id="Path_20804" class="st5" d="M110.2,8.8c-0.2,0.1-0.5,0-0.7-0.1c-1,1.2-11.9,13.9-17,15.4c-2.3,0.6-15.7-1.5-21.5-4.3
					l0.1-6.1c5,1.1,19.7,3.6,20.5,3.5c3.5-3.4,11.5-8.4,16.5-12.2c1.1-1.8,3.2-4.9,3.4-5"/>
				<path id="Path_20805" class="st6" d="M83.5,21.9c2.5,0.7,8.2,1.2,9.2,0.9S106.1,12.2,108.4,9c0.5-0.7,0.1-1.2,0.2-1.5
					c0.6,0.4,1.5-1.9,1.7-2.6s0.3,0.3,0.9-0.1l3.4,0.3c-0.1,0.1-0.2,0.2-0.2,0.3c-1,1.3-2.3,2.4-3.7,3.3c-0.1,0.1-0.3,0.2-0.5,0.2
					c-0.2,0.1-0.5,0-0.7-0.1c-1,1.2-11.9,13.9-17,15.4c-0.9,0.2-3.5,0.1-6.6-0.4C86,23.6,83.2,22,83.5,21.9z"/>
			</g>
			<path id="Path_20806" class="st7" d="M109.2,6.8c0.4-0.2,0.8-0.4,1.1-0.7c0.8-0.8,1.4-1.9,1.5-3c0.1-0.4,0.1-0.8,0.4-1.1
				c0.1-0.1,0.2-0.1,0.3-0.2c0.5-0.2,1.3-0.5,1.6-1.1c0.1-0.3,0.1-0.6-0.1-0.8c0,0-1,0.3-1.6,0.5c-0.6,0.2-1.1,0.4-1.6,0.6
				c-0.2,0.1-0.3,0.2-0.5,0.3c-0.1,0.1-0.2,0.2-0.3,0.4c-1,1.6-1.8,3.3-2.5,5"/>
		</g>
		<path id="Path_20807" class="st7" d="M117.4,3.2c0.2-0.4-0.4-0.5-0.7-0.3c-0.1,0.1-0.2,0.1-0.2,0.2c0.4-0.6,0.7-1,0.8-1.2
			c0.2-0.4-0.3-0.5-0.6-0.3c0.2-0.2,0.3-0.4,0.3-0.5c0.2-0.5-0.4-0.6-0.7-0.3c-0.2,0.2-0.3,0.4-0.5,0.5c0.1-0.1,0.1-0.2,0.2-0.3
			c0.2-0.4-0.3-0.5-0.6-0.3c-0.2,0.2-0.4,0.4-0.6,0.6c-0.3,0.3-0.6,0.7-0.9,1c-0.2,0.3-1.6,1.6-2.5,1.3c-1.1-0.4-2.3,0-3,0.9
			c-0.2,0.6-0.4,1.2-0.7,1.8c-0.5,0.5-1.1,0.9-1.7,1.2l2.6,2.5c0.7-0.5,1.5-1,2.3-1.4c1.4-0.3,2.7-1.1,3.8-2.1
			c0.7-0.7,1.3-1.4,1.8-2.2C116.7,4.5,117.4,3.3,117.4,3.2z"/>
	</g>
	<g id="Group_25502" transform="translate(111.906 90.444)">
		<path id="Path_20811" class="st4" d="M90.2,72.4c0.4-0.4,0.7-0.8,1-1.2c1.2-1.9,3.7-2.5,5.6-1.3c0.3,0.2,0.5,0.4,0.8,0.6l6.7,6.9
			c1.6,1.6,4.1,1.7,5.7,0.1c0,0,0,0,0,0l6.9-6.7c1.6-1.6,4.2-1.5,5.8,0.2c0.2,0.2,0.4,0.5,0.6,0.8c0.3,0.4,0.6,0.9,0.9,1.2
			c3.1,3.2,8.7,2.8,12.6-1s4.5-9.4,1.4-12.6c-0.4-0.4-0.8-0.7-1.2-1c-1.9-1.2-2.5-3.7-1.3-5.6c0.2-0.3,0.4-0.5,0.6-0.8l6.9-6.7
			c1.6-1.6,1.7-4.1,0.1-5.7c0,0,0,0,0,0L111.2,6.4c-1.6-1.6-4.1-1.7-5.7-0.1c0,0,0,0,0,0L98.6,13c-1.6,1.6-4.2,1.5-5.8-0.2
			c-0.2-0.2-0.4-0.5-0.6-0.8c-0.3-0.4-0.6-0.9-0.9-1.2c-3.1-3.2-8.7-2.8-12.6,1s-4.5,9.4-1.4,12.6c0.4,0.4,0.8,0.7,1.2,1
			c1.9,1.2,2.5,3.7,1.3,5.6c-0.2,0.3-0.4,0.5-0.6,0.8l-6.9,6.7c-1.6,1.6-1.7,4.1-0.1,5.7c0,0,0,0,0,0l6.7,6.9
			c1.6,1.6,1.5,4.2-0.2,5.8c-0.2,0.2-0.5,0.4-0.8,0.6c-0.4,0.3-0.9,0.6-1.2,0.9c-3.2,3.1-2.8,8.7,1,12.6S87,75.5,90.2,72.4z"/>
		<path id="Path_20812" class="st8" d="M91.5,67.2c0.4-0.4,0.7-0.8,1-1.2c1.2-1.9,3.7-2.5,5.6-1.3c0.3,0.2,0.5,0.4,0.8,0.6l6.7,6.9
			c1.6,1.6,4.1,1.7,5.7,0.1c0,0,0,0,0,0l6.9-6.7c1.6-1.6,4.2-1.5,5.8,0.2c0.2,0.2,0.4,0.5,0.6,0.8c0.3,0.4,0.6,0.9,0.9,1.2
			c3.1,3.2,8.7,2.8,12.6-1s4.5-9.4,1.4-12.6c-0.4-0.4-0.8-0.7-1.2-1c-1.9-1.2-2.5-3.7-1.3-5.6c0.2-0.3,0.4-0.5,0.6-0.8l6.9-6.7
			c1.6-1.6,1.7-4.1,0.1-5.7c0,0,0,0,0,0L112.5,1.2c-1.6-1.6-4.1-1.7-5.7-0.1c0,0,0,0,0,0l-6.9,6.7c-1.6,1.6-4.2,1.5-5.8-0.2
			c-0.2-0.2-0.4-0.5-0.6-0.8c-0.3-0.4-0.6-0.9-0.9-1.2c-3.1-3.2-8.7-2.8-12.6,1s-4.5,9.4-1.4,12.6c0.4,0.4,0.8,0.7,1.2,1
			c1.9,1.2,2.5,3.7,1.3,5.6c-0.2,0.3-0.4,0.5-0.6,0.8l-6.9,6.7c-1.6,1.6-1.7,4.1-0.1,5.7c0,0,0,0,0,0l6.7,6.9
			c1.6,1.6,1.5,4.2-0.2,5.8c-0.2,0.2-0.5,0.4-0.8,0.6c-0.4,0.3-0.9,0.6-1.2,0.9c-3.2,3.1-2.8,8.7,1,12.6S88.3,70.3,91.5,67.2z"/>
	</g>
	<g id="Group_25509" transform="translate(0 108.488)">
		<path id="Path_20813" class="st9" d="M130.4,50.2c-0.1,0-0.7,2.7,0.8,6.7c3.1,7.8,27.7,17.7,30.7,14.2
			C160.6,64.2,152.4,47.9,130.4,50.2z"/>
		<g id="Group_25508">
			<g id="Group_25503" transform="translate(0 61.47)">
				<path id="Path_20814" class="st0" d="M90.9,8c-1.7-0.4-5.7-1.3-7.4-1.5c-2.3-0.2-4.6,0.1-6.9-0.2C75.3,6.3,74.1,6,73,5.6
					c-0.2,0-0.3-0.1-0.4-0.3c0-0.2,0-0.3,0.1-0.5c0.2-0.5,0.5-0.9,0.9-1.2C74,3.3,74.5,3,75,2.9c1.5-0.3,2.9-0.8,4.3-1.3
					c0.5-0.3,1.1-0.5,1.6-0.7c0.6-0.2,1.2-0.1,1.7,0.1c0.5,0.3,0.8,1,1.3,1.4c0.5,0.4,1.1,0.7,1.7,0.8c1.4,0.2,5.4,0.3,5.4,0.3"/>
				<path id="Path_20815" class="st9" d="M81.6,0c-0.9,0.1-1.8,0.4-2.7,0.8c-1,0.4-2,0.7-3.1,1c-0.5,0.1-1.1,0.2-1.6,0.4
					c-0.5,0.1-1,0.3-1.5,0.5C72,3,71.3,3.8,71.1,4.8C71,5.3,71.8,6,72.5,6.2c2.2,0.6,4.6,0.8,6.9,0.7l1.8,0l2.6,0
					c0.1,0,0.3,0,0.4-0.1c0.1-0.1,0.2-0.2,0.3-0.3c0.4-0.8,0.7-1.7,0.9-2.6c0.1-0.3,0.1-0.5-0.1-0.8c-0.2-0.1-0.4-0.1-0.6-0.3
					c-0.2-0.2-0.3-0.5-0.4-0.8c-0.2-0.6-0.5-1.1-0.9-1.5C82.8,0.1,82.2,0,81.6,0z"/>
				<path id="Path_20816" class="st4" d="M82.1,0.5c-1,0.1-1.9,0.3-2.8,0.7c-1.1,0.4-2.1,0.7-3.2,0.9c-0.6,0.1-1.1,0.2-1.7,0.3
					c-0.5,0.1-1.1,0.2-1.5,0.4c-0.5,0.2-0.9,0.5-1.2,1c-0.2,0.3-0.4,0.6-0.5,1C71,5,71.1,5.3,71.4,5.5c0.2,0.2,0.4,0.3,0.7,0.4
					c0.6,0.1,1.3,0.2,1.9,0.1c2.3,0.1,4.7,0,7-0.5c1.2-0.2,2.2-0.9,2.7-2c0.3-0.3,0.4-0.7,0.5-1.1c0-0.6-0.2-1.3-0.6-1.7
					C82.5-0.2,82.6,0.5,82.1,0.5z"/>
				<path id="Path_20817" class="st0" d="M81.6,0c-0.9,0.1-1.8,0.4-2.7,0.8c-1,0.4-2,0.7-3.1,1c-0.5,0.1-1.1,0.2-1.6,0.4
					c-0.5,0.1-1,0.3-1.5,0.5c-0.5,0.2-0.9,0.6-1.3,1.1c-0.1,0.2-0.3,0.4-0.4,0.6C71.1,4.5,71,4.8,71.1,5c0.1,0.1,0.2,0.3,0.4,0.3
					c0.2,0.1,0.3,0.1,0.5,0.2c0.6,0.1,1.2,0.2,1.8,0.2c2.2,0,4.4-0.3,6.5-0.8c0.3-0.1,0.7-0.2,1-0.4c0.7-0.4,1.2-1,1.6-1.6
					c0.3-0.3,0.4-0.7,0.5-1.1c0.1-0.5-0.1-1.1-0.4-1.4C82.6,0.1,82.1,0,81.6,0z"/>
				<path id="Path_20818" class="st10" d="M77,3.6c0.2-0.6,0.3-1.1,0.6-1.6"/>
				<path id="Path_20819" class="st10" d="M77.5,4.2c0.3-0.8,0.6-1.5,0.8-2.3"/>
				<path id="Path_20820" class="st10" d="M78.2,3.9c0.2-0.7,0.5-1.4,0.7-2.2"/>
				<path id="Path_20821" class="st10" d="M74.1,5.2c0.3-0.7,0.6-1.4,1-2.1"/>
				<path id="Path_20822" class="st10" d="M74.8,5c0.3-0.8,0.7-1.6,1.2-2.3"/>
			</g>
			<g id="Group_25504" transform="translate(25.604 106.247)">
				<path id="Path_20823" class="st0" d="M88.1,3.7c-2.1,1.2-4.2,2.4-6.2,3.8c-1.8,1.4-3.4,3.2-5.3,4.6c-1,0.7-2.1,1.3-3.2,1.8
					c-0.2,0.1-0.3,0.1-0.5,0c-0.1-0.1-0.2-0.2-0.2-0.4c-0.2-0.5-0.2-1-0.2-1.5c0.1-0.5,0.3-1.1,0.6-1.5c0.9-1.2,1.7-2.6,2.4-3.9
					c0.2-0.6,0.5-1.1,0.7-1.6C76.5,4.3,77,4,77.6,3.8c0.6,0,1.3,0.1,1.9,0.2c0.6,0,1.3-0.2,1.8-0.5C82.5,2.6,85.5,0,85.5,0"/>
				<path id="Path_20824" class="st9" d="M76.1,3.7c-0.6,0.7-1.1,1.5-1.5,2.4c-0.5,1-1,1.9-1.6,2.8c-0.3,0.5-0.6,0.9-1,1.4
					c-0.3,0.4-0.6,0.9-0.8,1.4c-0.4,0.9-0.3,2,0.1,2.9c0.3,0.5,1.4,0.4,2,0.1c2.1-1.1,4-2.5,5.6-4.2l1.4-1.2l1.9-1.8
					c0.1-0.1,0.2-0.2,0.2-0.3c0-0.1,0-0.3,0-0.4c-0.3-0.9-0.6-1.7-1.1-2.6c-0.1-0.2-0.3-0.5-0.6-0.5c-0.2,0-0.4,0.2-0.6,0.2
					c-0.3,0-0.6-0.1-0.9-0.3C78.8,3.2,78.2,3,77.6,3C77.1,3.1,76.5,3.3,76.1,3.7z"/>
				<path id="Path_20825" class="st4" d="M76.8,3.8c-0.7,0.7-1.3,1.5-1.7,2.4c-0.5,1-1.2,1.9-1.8,2.8c-0.4,0.5-0.7,0.9-1.1,1.4
					c-0.4,0.4-0.6,0.9-0.9,1.4c-0.2,0.5-0.3,1-0.3,1.5c0,0.4,0.1,0.8,0.3,1.1c0.2,0.3,0.5,0.5,0.8,0.4c0.3,0,0.6-0.1,0.8-0.2
					c0.6-0.3,1.1-0.7,1.5-1.2c1.8-1.5,3.5-3.2,4.9-5.1c0.8-0.9,1-2.2,0.7-3.3c0-0.4-0.2-0.8-0.4-1.2C79.2,3.4,78.6,3,78,3
					C76.6,3,77.1,3.4,76.8,3.8z"/>
				<path id="Path_20826" class="st0" d="M76.1,3.7c-0.6,0.7-1.1,1.5-1.5,2.4c-0.5,1-1,1.9-1.6,2.8c-0.3,0.5-0.6,0.9-1,1.4
					c-0.3,0.4-0.6,0.9-0.8,1.4c-0.2,0.5-0.3,1.1-0.2,1.6c0,0.2,0.1,0.5,0.1,0.7c0.1,0.2,0.1,0.5,0.4,0.6c0.2,0,0.4,0,0.5,0
					c0.2,0,0.3-0.1,0.5-0.2c0.5-0.3,1-0.7,1.5-1.1c1.6-1.5,3.1-3.2,4.3-5c0.2-0.3,0.4-0.6,0.5-0.9c0.2-0.8,0.2-1.5,0.1-2.3
					c0-0.4-0.1-0.8-0.3-1.2c-0.3-0.4-0.8-0.7-1.3-0.8C76.8,3.2,76.4,3.4,76.1,3.7z"/>
				<path id="Path_20827" class="st10" d="M75,9.6c-0.3-0.5-0.5-1.1-0.7-1.6"/>
				<path id="Path_20828" class="st10" d="M75.8,9.7c-0.3-0.8-0.6-1.5-1-2.3"/>
				<path id="Path_20829" class="st10" d="M76.1,9c-0.3-0.7-0.6-1.4-1-2.1"/>
				<path id="Path_20830" class="st10" d="M74,12.7c-0.2-0.7-0.5-1.5-0.7-2.2"/>
				<path id="Path_20831" class="st10" d="M74.4,12.1c-0.3-0.8-0.5-1.7-0.7-2.5"/>
			</g>
			<path id="Path_20832" class="st11" d="M177.1,33.5c1-1.2,1.5-2.7,1.6-4.3c0.2-1.6,0.2-3.2-0.2-4.8c-2.2-0.4-4.9-1.1-7.1-1.8
				c-2.2-0.8-4.5-1.2-6.8-1.1c-0.4,0-0.7,0.1-1,0.3c-0.3,0.2-0.6,0.5-0.8,0.9c-0.4,0.6-0.7,1.2-0.9,1.9c-0.1,0.8,0,1.6,0.3,2.4
				c0.9,2.3,2.5,4.4,4.5,5.9c1.8,1.5,1.6-2.7,3.9-2.6"/>
			<path id="Path_20833" class="st9" d="M167.4,27.8c2.2,0.4,4.4,1.1,6.5,1.9c1.5,0.5,3,0.9,4.5,1.2c-0.3,0.9-0.7,1.8-1.3,2.6
				l-5.4-0.9c-0.2,0,0.9,3.1,0.7,3.1c-0.4-0.2-0.9-0.3-1.3-0.5c-1.6-0.7-3.1-1.6-4.4-2.7c-0.8-0.7-1.4-1.6-1.8-2.6
				c-0.2-0.5-0.1-1,0.1-1.4c0.2-0.4,0.6-0.7,1.1-0.7C166.5,27.7,166.9,27.7,167.4,27.8z"/>
			<path id="Path_20834" class="st12" d="M151.8,64.4c-4,2.4-8.2,4.4-12.5,6.1c-5.4,2.3-10.9,4.2-16.5,5.7c-0.2,0-0.4,0.1-0.5,0.1
				c-1.9,0.5-3.8,0.8-5.7,0.8c-0.3,0-0.5,0-0.8-0.1c-0.5-0.1-1.1-0.2-1.7-0.4c-5.8-1.5-14.6-4.8-24.2-7.1c0,0-0.1-0.4-0.1-0.9
				c-0.1-0.6-0.1-1.2-0.1-1.9c0.1-0.9,0.4-1.7,0.9-2.4c13.9-0.3,17.8-0.2,24.7,2.3c1.5,0.4,7.1-2.8,14.5-6.6
				c1.6-0.8,2.9-5.5,11.3-6.8L151.8,64.4z"/>
			<path id="Path_20835" class="st13" d="M139.4,71c-5.4,2.1-11,3.8-16.6,5.2c-0.2,0-0.4,0.1-0.5,0.1c-1.9,0.5-3.8,0.7-5.7,0.8
				c-0.3,0-0.5,0-0.8-0.1c-0.5-0.1-1.1-0.2-1.7-0.4c-5.8-1.5-14.6-4.8-24.2-7.1c0,0-0.1-0.4-0.1-0.9c6.2,1.4,24.1,5.7,27.6,6.1
				c1.3,0.1,11.2-4,13-5.6c1.4-1.2,3.4-4.5,6.8-4.3l2.2,5.7L139.4,71z"/>
			<path id="Path_20836" class="st1" d="M91.9,64.4c-0.5,0.9-0.8,1.9-0.7,2.9c0.1,1,0.4,2,0.9,2.9l-2.4-0.6c-1.3-1.6-0.9-3.5,0-5.3
				C90.5,64.3,91.2,64.3,91.9,64.4z"/>
			<path id="Path_20837" class="st12" d="M159,65.3c-2.9,8-16.7,26.2-21.3,29.8c-5.9,4.5-13.8,11.1-23.9,15.5c0,0-1.5-1.5-2.1-2.4
				c-0.5-0.8-0.7-1.8-0.8-2.7c7.4-6.4,9.8-13.9,19.4-16.9c1.5-0.6,5.4-8.7,7.5-15c1.2-3.5,0.3-8.1,4.4-11.3"/>
			<path id="Path_20838" class="st1" d="M110.8,105.2c0.2,1.1,0.8,2.2,1.7,2.9c1,0.8,2,1.4,3.2,1.9l-2.4,1.2
				c-2.4-0.4-3.8-2.1-4.4-4.5C109.5,106.2,110.1,105.7,110.8,105.2z"/>
			<path id="Path_20839" class="st5" d="M168.7,5.2c1.2,2.1,2,4.3,2.4,6.7c0.4,1.7,0.6,3.5,0.5,5.3c-0.2,2.7-3.3,2.4-5.3,2.4
				c-0.5,0-1.1,0.2-1.4,0.6c-0.5,1.3-0.9,2.7-1.1,4c-1.2,1.3-5.3,1-6.5-1.4c0.9-1.3,1.5-2.7,1.8-4.2c0.3-2.8-1.6-5.5-1.5-8.4
				c0.3-3.4,3.2-6,6.6-5.8"/>
			<path id="Path_20840" class="st5" d="M162.1,13c-0.3-0.4-0.7-0.6-1.2-0.5c-0.8,0.2-1.4,1-1.3,1.8c0.1,0.8,0.5,1.6,1.1,2.1
				c0.3,0.3,0.6,0.5,1,0.6c0.7,0.1,1.3-0.7,1.5-1.4"/>
			<path id="Path_20841" class="st11" d="M169.3,31.6c-0.6,13.4-3.1,26.7-7.4,39.4c-3.2,1-3.1-5.2-14.2-7.6
				c-16.8-3.6-17.7-13.1-17.3-13.2c2.6-0.8,5.1-2,7.3-3.6c2.2-1.7,4-3.7,5.5-6c0-0.1,0.1-0.1,0.1-0.2c1.1-1.6,2-3.4,2.9-5.1
				c1.3-2.5,2.7-4.9,4.4-7.1c1.1-1.4,2.3-2.8,3.6-4c1.1-1.1,2.5-2,4-2.6c0.5,0.5,1.2,0.9,1.9,1c1.4,0.3,2.7,0.6,4.1,0.8
				C164.2,23.3,169.2,24.8,169.3,31.6z"/>
			<path id="Path_20842" class="st5" d="M169.1,26.2c1.4,1.6,2.6,3.3,3.6,5.1c2,3.2,4.2,6.7,6.1,9.9c4.2,0.4,14.4,3.3,16.8,3.5
				c0.4,0,2-1.3,3.6-2.1c1.4-0.6,2.8-1.1,4.3-1.3c0.5,0.4,0.1,1-0.4,1.2c-0.3,0.2-0.7,0.3-1.1,0.4c1,0,2,0.2,3,0.5
				c0.4,0.2,0.8,0.4,1.2,0.7c0.5,0.3,1.5,1.2,1.9,1.5c0.1,0,0.1,0.1,0.1,0.2c0,0.2-0.1,0.3-0.3,0.4c0,0,0,0-0.1,0
				c-0.5-0.2-1.1-0.4-1.5-0.7c0,0,2,1.3,1.8,1.5c-0.3,0.6-1.9-0.4-2.3-0.5c0,0,1.9,0.9,1.5,1.3s-1,0-1.7-0.2
				c0.4,0.2,0.6,0.5,0.6,0.6c0,0.2-0.4,0.4-0.9,0.2c-0.7-0.3-1.4-0.6-2.1-0.8c-0.8-0.2-2.1,0.6-2.8,1.2c-0.9,0.8-2.1,1-3.3,0.7
				c-0.4-0.1-1.5-0.7-1.8-0.8c-2,0.1-17.3-0.1-19.9-1.5c-2.8-1.4-8.4-11-11.3-14.5l-0.7-7.3C165.3,24.6,167.5,24.9,169.1,26.2z"/>
			<path id="Path_20843" class="st14" d="M169.1,39.5c0.1-0.3,0.1-2.5,0.2-2.8c1.5,1.9,6.8,8.8,7.4,9.1c1.3,0.7,12,1.6,17,1.9
				c0.7,0.1,1.4-0.1,1.9-0.5c0.5,1,1.6,1.6,2.8,1.5c0.7-0.2,1.3-0.5,1.9-0.9c0.8-0.5,1.8-0.7,2.7-0.7c1.2,0.1,2.2,0.9,3.4,1
				c-0.2,0.2-0.6,0.3-0.9,0.1c-0.7-0.3-1.4-0.6-2.1-0.8c-0.8-0.2-2.1,0.6-2.8,1.2c-0.9,0.8-2.1,1-3.3,0.7c-0.4-0.1-1.5-0.7-1.8-0.8
				c-2,0.1-17.3-0.1-19.9-1.5C173.9,46.3,171.4,42.9,169.1,39.5z"/>
			<path id="Path_20844" class="st11" d="M161.8,24.2c1.4-1.1,5-0.3,6.5,0.8c2,1.5,3.7,3.3,5,5.4c0.8,1.1,3.2,5.5,4,6.6
				c-0.4,1.2-1.1,2.2-2,3c-2.3,1.9-6.2,3.1-7.5,2.7c-1.8-3.1-4.7-7.9-6.3-8.8C159.7,30,159.7,25.8,161.8,24.2z"/>
			<path id="Path_20845" class="st9" d="M169.9,42.6c-0.7,0.2-1.5,0.3-2.2,0.1c-1.5-2.8-3.3-5.5-5.4-8c0.3-0.1,0.7,0,1,0
				c0.7,0.3,1.3,0.7,1.8,1.2C167,38,168.6,40.2,169.9,42.6z"/>
			<path id="Path_20846" class="st5" d="M170.4,9.6l1.8,2.1c0.2,0.2,0.3,0.4,0.5,0.7c0.1,0.2,0.1,0.5,0,0.8
				c-0.1,0.1-0.2,0.3-0.4,0.3c-0.6,0.4-1.3,0.6-2,0.6"/>
			<path id="Path_20847" class="st11" d="M171.7,1.9c0-0.3-0.3-0.6-0.6-0.6c-0.1,0-0.2,0-0.3,0.1c-0.6,0.4-1.5,0.7-3.2,0.2
				c-3.5-1-6.7-3-8.7-0.2c0,0-3.7-0.8-5.7,3.3S153,15.9,159,19.2l2.9-2.1c0,0-2.4-1.4-1.9-3.6s2.8-0.5,3.1,0.9c0-1,0.2-2,0.5-2.9
				c0.7-1.8,1.2-3.1,0.5-4.3c1.9,0.9,4.1,0.6,5.6-0.7C171.1,5.4,171.8,3.6,171.7,1.9z"/>
		</g>
		<path id="Path_20852" class="st15" d="M201.8,43c0,0-1.5,0.1-1.7,0.2"/>
		<path id="Path_20853" class="st15" d="M205.8,47.5c-0.5-0.4-1-0.7-1.6-0.9c-0.6-0.2-2-0.5-2-0.5"/>
		<path id="Path_20854" class="st15" d="M206.2,46.5c-0.6-0.4-1.2-0.8-1.8-1.1c-0.6-0.2-2.3-0.6-2.3-0.6"/>
		<path id="Path_20855" class="st15" d="M206.6,45.5c-0.5-0.4-1.1-0.8-1.8-1.1c-0.8-0.2-1.6-0.4-2.4-0.5"/>
	</g>
	<g id="Group_25493" transform="translate(27.714 116.625)">
		<path id="Path_20783" class="st1" d="M94.1,16.3c3.4-4.3,2.7-10.6-1.6-14.1c-4.3-3.4-10.6-2.7-14.1,1.6
			c-3.4,4.3-2.7,10.6,1.6,14.1c3.4,2.7,8.2,2.9,11.8,0.5l3.9,2.1L94.1,16.3z"/>
		<path id="Path_20784" class="st16" d="M82.1,9.1l3.1,3.8l5.4-5.7"/>
	</g>
</g>
<g>
	<g id="Group_25497" transform="translate(117.079 42.521)">
		<path id="Path_20802" class="st17" d="M105.5,12.9c0.2-0.4,0.4-0.8,0.7-1.1c1.4-1.6,1.2-4.1-0.4-5.5c-0.2-0.2-0.5-0.4-0.8-0.5
			l-7.1-3.6C96,1.3,93.7,2,92.8,4c0,0,0,0,0,0L89.2,11c-0.9,1.9-3.2,2.7-5.1,1.8c-0.2-0.1-0.5-0.3-0.7-0.4c-0.3-0.3-0.7-0.5-1.1-0.7
			c-3.5-1.8-8.1,0.3-10.2,4.5s-1,9.1,2.5,10.9c0.4,0.2,0.8,0.3,1.2,0.5c2,0.6,3.2,2.7,2.7,4.7c-0.1,0.3-0.2,0.5-0.3,0.7L74.7,40
			c-1,1.9-0.2,4.2,1.7,5.2c0,0,0,0,0,0l7.1,3.5c1.9,0.9,2.7,3.2,1.8,5.1c-0.1,0.2-0.3,0.5-0.4,0.7c-0.3,0.3-0.5,0.7-0.7,1.1
			c-1.8,3.5,0.3,8.1,4.5,10.2s9.1,1,10.9-2.5c0.2-0.4,0.3-0.8,0.5-1.2c0.6-2,2.7-3.2,4.7-2.7c0.3,0.1,0.5,0.2,0.7,0.3l7.1,3.5
			c1.9,1,4.2,0.2,5.2-1.7c0,0,0,0,0,0l3.6-7.2c1-1.9,3.3-2.7,5.2-1.7c0.3,0.1,0.6,0.3,0.8,0.5c0.4,0.3,0.8,0.6,1.2,0.8
			c3.5,1.8,8.1-0.3,10.2-4.5s1-9.1-2.5-10.9c-0.4-0.2-0.9-0.4-1.4-0.5c-2.1-0.4-3.4-2.5-3-4.6c0.1-0.3,0.2-0.6,0.3-0.9l3.6-7.2
			c0.9-1.9,0.2-4.2-1.7-5.2l-7.1-3.5c-1.9-1-4.2-0.2-5.2,1.7c-0.1,0.3-0.2,0.5-0.3,0.8c-0.1,0.5-0.3,0.9-0.5,1.4
			c-1.8,3.5-6.6,4.7-10.9,2.5S103.8,16.4,105.5,12.9z"/>
		<path id="Path_20803" class="st18" d="M111.3,11.1c0.2-0.4,0.4-0.8,0.7-1.1c1.4-1.6,1.2-4.1-0.4-5.5c-0.2-0.2-0.5-0.4-0.8-0.5
			l-7.1-3.6c-1.9-1-4.2-0.2-5.2,1.7c0,0,0,0,0,0l-3.5,7.1c-0.9,1.9-3.2,2.7-5.1,1.8c-0.2-0.1-0.5-0.3-0.7-0.4
			c-0.3-0.3-0.7-0.5-1.1-0.7c-3.5-1.8-8.1,0.3-10.2,4.5s-1,9.1,2.5,10.9c0.4,0.2,0.8,0.3,1.2,0.5c2,0.6,3.2,2.7,2.7,4.7
			c-0.1,0.3-0.2,0.5-0.3,0.7l-3.5,7.1c-1,1.9-0.2,4.2,1.7,5.2c0,0,0,0,0,0l7.1,3.5c1.9,0.9,2.7,3.2,1.8,5.1
			c-0.1,0.2-0.3,0.5-0.4,0.7c-0.3,0.3-0.5,0.7-0.7,1.1c-1.8,3.5,0.3,8.1,4.5,10.2s9.1,1,10.9-2.5c0.2-0.4,0.3-0.8,0.5-1.2
			c0.6-2,2.7-3.2,4.7-2.7c0.3,0.1,0.5,0.2,0.7,0.3l7.1,3.5c1.9,1,4.2,0.2,5.2-1.7c0,0,0,0,0,0l3.6-7.2c1-1.9,3.3-2.7,5.2-1.7
			c0.3,0.1,0.6,0.3,0.8,0.5c0.4,0.3,0.8,0.6,1.2,0.8c3.5,1.8,8.1-0.3,10.2-4.5s1-9.1-2.5-10.9c-0.4-0.2-0.9-0.4-1.4-0.5
			c-2.1-0.4-3.4-2.5-3-4.6c0.1-0.3,0.2-0.6,0.3-0.9l3.6-7.2c1-1.9,0.2-4.2-1.7-5.2c0,0,0,0,0,0l-7.1-3.5c-1.9-1-4.2-0.2-5.2,1.7
			c-0.1,0.3-0.2,0.5-0.3,0.8c-0.1,0.5-0.3,0.9-0.5,1.4c-1.8,3.5-6.6,4.7-10.9,2.5S109.5,14.6,111.3,11.1z"/>
	</g>
	<g id="Group_25520" transform="translate(144.85 11.8)">
		<g id="Group_25519" transform="translate(0)">
			<path id="Path_20859" class="st9" d="M166.5,63.1c-0.7-10.6-5.4-16.1-5.7-18S154.6,58,154.6,58l8.3,23.6
				C162.9,81.6,169.1,69.5,166.5,63.1z"/>
			<g id="Group_25518">
				<path id="Path_20860" class="st5" d="M99.2,102.7c6.4-6.9,11.9-11.2,19.5-16.9c0,0,3.2-12.7,3.5-13.6s7.4-0.9,7.4-0.9
					S126,87.2,123.4,90c-5.9,6.4-14.4,9.7-22.1,13.7"/>
				<path id="Path_20861" class="st11" d="M140.8,76.7c-7.6-1.4-12.5,4.1-14,7.3c-2.5,1.4-6.6-0.3-8.1-1.5c1.7-7,2.7-13.9,1.8-18.1"
					/>
				<g id="Group_25512" transform="translate(74.424)">
					<g id="Group_25511" transform="translate(50.475)">
						<path id="Path_20862" class="st0" d="M76,28.6c0.8-2,5.1-12.2,6.1-14.1c1.4-2.5,3.3-4.8,4.6-7.4c0.7-1.4,1.2-2.8,1.6-4.3
							c0.1-0.2,0.1-0.4,0-0.6C88.2,2.1,88,2,87.8,2c-0.6-0.1-1.3-0.1-1.9,0c-0.7,0.2-1.2,0.6-1.7,1.1c-1.4,1.3-2.8,2.5-4.4,3.6
							c-0.7,0.4-1.3,0.8-1.9,1.2c-0.6,0.5-1,1.2-1,1.9c0.1,0.8,0.3,1.6,0.6,2.4c0.1,0.8,0,1.6-0.3,2.3c-0.7,1.7-6,9.6-6,9.6"/>
						<path id="Path_20863" class="st11" d="M76.5,8.1c0.7-0.9,1.6-1.7,2.6-2.3c1.1-0.8,2.2-1.6,3.2-2.5c0.5-0.5,1-1,1.5-1.5
							c0.4-0.5,1-0.9,1.5-1.2c1.1-0.6,2.4-0.8,3.5-0.4c0.6,0.3,0.7,1.6,0.5,2.5c-0.7,2.8-2.5,5.3-4.1,7.7l-1.3,1.9L82.1,15
							c-0.1,0.2-0.2,0.3-0.4,0.4c-0.2,0.1-0.3,0.1-0.5,0c-1.1-0.1-2.3-0.4-3.4-0.8c-0.3-0.1-0.7-0.3-0.7-0.6c0-0.3,0.2-0.5,0.1-0.8
							c-0.1-0.4-0.3-0.7-0.5-1c-0.5-0.6-0.8-1.3-1-2C75.8,9.4,76,8.6,76.5,8.1z"/>
						<path id="Path_20864" class="st4" d="M76.6,8.9c0.7-1,1.6-1.8,2.7-2.5c1.1-0.9,2.2-1.8,3.2-2.8c0.5-0.5,1-1.1,1.5-1.6
							c0.4-0.5,1-1,1.5-1.3C86,0.3,86.6,0.1,87.3,0c0.5-0.1,0.9,0,1.4,0.1c0.4,0.1,0.7,0.5,0.7,0.9c0.1,0.3,0,0.7,0,1
							c-0.3,0.8-0.7,1.5-1.2,2.1c-1.5,2.5-3.3,4.9-5.3,7c-1,1.1-2.5,1.7-3.9,1.4c-0.5,0-1.1,0-1.5-0.2c-0.7-0.4-1.2-1.1-1.4-1.9
							C75.6,8.8,76.3,9.4,76.6,8.9z"/>
						<path id="Path_20865" class="st0" d="M76.5,8.1c0.7-0.9,1.6-1.7,2.6-2.3c1.1-0.8,2.2-1.6,3.2-2.5c0.5-0.5,1-1,1.5-1.5
							c0.4-0.5,1-0.9,1.5-1.2c0.6-0.3,1.3-0.5,2-0.6c0.3,0,0.6,0,0.9,0c0.3,0,0.7,0.1,0.8,0.4c0.1,0.2,0.1,0.4,0.1,0.6
							c0,0.2-0.1,0.5-0.2,0.7c-0.3,0.7-0.6,1.4-1.1,2c-1.5,2.3-3.3,4.4-5.4,6.2c-0.3,0.3-0.7,0.6-1.1,0.8c-0.9,0.4-1.9,0.6-2.8,0.5
							c-0.5,0-1,0-1.5-0.2c-0.6-0.3-1-0.8-1.2-1.5C75.9,9.1,76.1,8.5,76.5,8.1z"/>
						<path id="Path_20866" class="st10" d="M83.5,5.6c-0.7-0.2-1.4-0.4-2.1-0.5"/>
						<path id="Path_20867" class="st10" d="M83.7,6.6c-1-0.2-2-0.4-3-0.7"/>
						<path id="Path_20868" class="st10" d="M82.9,7.1c-0.9-0.2-1.8-0.5-2.7-0.8"/>
						<path id="Path_20869" class="st10" d="M87.2,3.8c-1-0.2-1.9-0.3-2.9-0.4"/>
						<path id="Path_20870" class="st10" d="M86.5,4.4c-1.1-0.2-2.2-0.3-3.3-0.4"/>
					</g>
					<path id="Path_20871" class="st12" d="M128.5,25.4c-3.1,7.8-6.8,15.3-11,22.6c-0.2,0.3-0.3,0.6-0.5,0.9c-1.3,1-2.7,1.9-4,2.8
						c-0.3,0.2-0.7,0.4-1,0.7c-10,6.6-21.1,11.5-32.8,14.3l-8.2-9c2-3,5-8,8.5-9.2c5.4-1.9,7.6,0.8,11.2,0c6-1.4,12.4-4,18.9-6.3
						c4.8-10.1,7.2-13,11.8-19.4c1.3-0.3,4.2,1,5.9,1.9C127.8,25,128.3,25.2,128.5,25.4L128.5,25.4z"/>
					<path id="Path_20872" class="st13" d="M128.5,25.3c-3.2,7.7-6.9,15.3-10.9,22.6c-0.2,0.3-0.3,0.6-0.5,0.9c-1.3,1-2.7,1.9-4,2.8
						c-0.3,0.2-0.7,0.4-1,0.7c-9,5.9-18.7,10.3-29,13.3c-1.3-1.7-2.3-3.6-3.1-5.6c-1.1-2.7-0.1-4.7-0.7-7.6c5.3,0.5,4.4,0.7,6.3,4.4
						c2-1.6,6.1-3.7,9.7-3.6c1.4,0,6.1,0.9,8.7,0c6.4-2.4,6.3-2.6,9.4-4.2c0.8-0.4,1.6-0.9,2.2-1.6c0.6-0.7,1-1.4,1.3-2.3
						c3-6.6,7-13.7,10.5-20.5C127.8,25,128.3,25.2,128.5,25.3z"/>
				</g>
				<g id="Group_25514" transform="translate(81.378 46.587)">
					<g id="Group_25513" transform="translate(59.406 0)">
						<path id="Path_20873" class="st0" d="M74.3,17.3c1.8-1.2,10.6-6.8,12.5-7.8c2.6-1.3,5.5-2,8-3.4c1.4-0.7,2.6-1.6,3.8-2.6
							c0.2-0.1,0.3-0.3,0.3-0.5c0-0.2-0.2-0.4-0.3-0.5c-0.5-0.4-1-0.8-1.6-1.1c-0.7-0.2-1.4-0.2-2-0.1c-1.9,0.3-3.8,0.4-5.7,0.5
							c-0.7-0.1-1.5-0.1-2.2-0.1c-0.8,0-1.5,0.4-2,1c-0.4,0.7-0.7,1.5-0.9,2.2c-0.4,0.7-0.9,1.3-1.6,1.7C81.1,7.6,71,11.6,71,11.6"
							/>
						<path id="Path_20874" class="st11" d="M85.9,1c1.1-0.3,2.3-0.4,3.5-0.3c1.3,0,2.7-0.1,4-0.3c0.7-0.1,1.4-0.2,2.1-0.3
							C96.1,0,96.7,0,97.4,0c1.2,0.1,2.4,0.7,3.1,1.7c0.4,0.6-0.3,1.7-1,2.3C97.2,5.9,94.4,7,91.7,8l-2.1,0.8l-3,1.1
							c-0.2,0.1-0.3,0.1-0.5,0.1c-0.2,0-0.3-0.1-0.4-0.3c-0.9-0.8-1.6-1.7-2.3-2.6c-0.2-0.3-0.4-0.6-0.2-0.9
							c0.1-0.3,0.5-0.4,0.6-0.6c0.1-0.4,0.2-0.7,0.2-1.1c-0.1-0.8,0-1.5,0.4-2.2C84.6,1.7,85.2,1.3,85.9,1z"/>
						<path id="Path_20875" class="st4" d="M85.5,1.8c1.2-0.4,2.4-0.6,3.6-0.5C90.5,1.2,92,1,93.3,0.8c0.7-0.1,1.4-0.3,2.1-0.5
							c0.7-0.2,1.3-0.2,2-0.2c0.7,0,1.3,0.2,1.9,0.6c0.4,0.2,0.8,0.5,1.1,0.9c0.2,0.3,0.2,0.8,0,1.1c-0.2,0.3-0.4,0.6-0.6,0.8
							c-0.7,0.4-1.4,0.8-2.2,1c-2.7,1.2-5.5,2.1-8.4,2.6c-1.4,0.3-3-0.1-4-1.1c-0.5-0.3-0.8-0.6-1.1-1.1c-0.3-0.7-0.3-1.6-0.1-2.3
							C84.7,1.2,85,2,85.5,1.8z"/>
						<path id="Path_20876" class="st0" d="M85.9,1c1.1-0.3,2.3-0.4,3.5-0.3c1.3,0,2.7-0.1,4-0.3c0.7-0.1,1.4-0.2,2.1-0.3
							C96.1,0,96.7,0,97.4,0c0.7,0.1,1.4,0.3,2,0.7c0.3,0.2,0.5,0.4,0.7,0.6c0.2,0.2,0.5,0.4,0.5,0.8c0,0.2-0.2,0.4-0.3,0.6
							C100,2.7,99.9,2.9,99.7,3c-0.6,0.4-1.3,0.8-2,1c-2.6,1-5.2,1.7-8,2c-0.4,0.1-0.9,0.1-1.3,0c-1-0.2-1.9-0.6-2.6-1.2
							c-0.4-0.3-0.8-0.6-1.1-1c-0.3-0.6-0.4-1.3-0.2-1.9C84.8,1.5,85.3,1.2,85.9,1z"/>
						<path id="Path_20877" class="st10" d="M93,3.1c-0.4-0.6-0.9-1.1-1.4-1.7"/>
						<path id="Path_20878" class="st10" d="M92.7,4c-0.7-0.7-1.4-1.5-2-2.3"/>
						<path id="Path_20879" class="st10" d="M91.7,4c-0.6-0.7-1.2-1.5-1.8-2.2"/>
						<path id="Path_20880" class="st10" d="M97.1,3.7c-0.7-0.7-1.4-1.4-2.1-2"/>
						<path id="Path_20881" class="st10" d="M96.2,3.8c-0.8-0.8-1.6-1.5-2.4-2.2"/>
					</g>
					<path id="Path_20882" class="st12" d="M71,9.3c3.4-1.3,7.3-2.7,10.8-1.6s7.1,4.1,10.5,5.4c5.7,2.3,12.4,3.9,19,5.8
						c9.7-5.5,14.4-7,21.9-9.6c1.9,0.8,4.8,5.9,4.8,5.9c-8.2,5.2-14.1,9.3-22.9,13.3c-14.6,0.2-29-1.8-42.6-7"/>
					<path id="Path_20883" class="st13" d="M136.9,13.3c-6.8,4.3-12.1,7.9-18.8,11.3c-2.6,1.3-5.4,2-8.3,1.9
						c-12.8-0.1-25.5-2.4-37.5-6.7l0.2,1.6c13.6,5.2,28,7.2,42.6,7c8.8-4,14.7-8.1,22.9-13.3C138.1,15.2,137.6,14.3,136.9,13.3z"/>
				</g>
				<g id="Group_25515" transform="translate(45.837 44.999)">
					<path id="Path_20884" class="st11" d="M116.5,34.5c0,0.1,0,0.1,0,0.2c0.2,0.6,0.3,1.2,0.6,1.8c-0.6-0.1-1.1-0.2-1.7-0.3
						c-0.9-0.2-1.7-0.3-2.6-0.5c-1.1-0.2-2.2-0.4-3.3-0.6c-1.2-0.2-2.4-0.5-3.5-0.7c-1.1-0.2-2.3-0.5-3.4-0.7
						c-0.9-0.2-1.9-0.4-2.8-0.6l0,0c-3.1-0.7-6.2-1.6-9.2-2.8c-2.8-1.1-5.2-2.9-7.9-4.2c-1.2-0.6-2.6-0.8-3.8-1.6
						c-2.9-1.7-4.4-5.1-5-8.4s-0.6-6.7-1.3-10L71,1.7C74.7,2.6,79,4.7,82.8,5C88,5.6,93.2,5.5,98.4,4.7c4.5-0.8,8.9-1.9,13.2-3.5
						c0.9-0.3,1.9-0.7,2.8-1.1c0.8-0.3,1.7,0.8,2.1,1.4c0.9,1.3,1.7,2.8,2.3,4.3c0.8,2.1,1.3,4.2,1.4,6.4c0.2,2.4,0,4.8-0.7,7.1
						c-0.1,0.4-0.2,0.8-0.3,1.2c-0.2,0.8-0.5,1.7-0.7,2.5c-0.3,1.1-0.6,2.2-0.8,3.2c-0.3,1.1-0.5,2.3-0.8,3.4
						C116.6,31.2,116.4,32.8,116.5,34.5z"/>
				</g>
				<g id="Group_25516" transform="translate(0 29.405)">
					<path id="Path_20885" class="st5" d="M113,16.7c0,0-8.2-6-9.2-6.4c-6.6-2.9-20.8-7-20.8-7l-2.8,1.8c0,0,19.2,9,20.4,9.7
						s9.9,9,9.9,9"/>
					<path id="Path_20886" class="st5" d="M82.2,5.3C81.5,6,79.8,6,78.4,5.7c-1.7-0.4-3.4-0.9-5.1-1.5C73,4,73.5,3.7,74.2,3.7
						c2.3,0.2,2.6-0.4,1.5-1.3c-0.7-0.6-1.4-1.2-2.3-1.5C72.7,0.7,71,0.7,71,0.2C71.7,0,72.4-0.1,73.1,0c0.8,0,1.6,0.2,2.3,0.5
						c0.1-0.3,0.7-0.5,1.6-0.1c0.2-0.2,0.4-0.3,1.3,0.1c0.2-0.5,0.7-0.3,1.3,0.1c2,1.1,3.1,2.6,5.1,3.7"/>
				</g>
				<path id="Path_20887" class="st11" d="M114.5,58.6c-3.4-2.7-6.5-5.6-9.5-8.7c-0.5-0.5-0.6-1.2-0.3-1.8c1.3-2.6,4.1-4.9,6.6-4
					c2.8,2.2,6.5,5,10.1,5.4"/>
				<path id="Path_20888" class="st11" d="M106.8,45.4c-0.4,0.7-0.7,1.6-0.7,2.4c0,0.2,0,0.4,0.1,0.6c0.1,0.2,0.3,0.4,0.5,0.6
					c1.8,1.5,3.8,3,4.7,5.2c0.2,0.6,0.5,1.2,0.8,1.8c0.6,0.7,1.2,1.3,2,1.8c1,1,1.9,2.1,2.7,3.2c0.6,0.8,6-1.5,6.7-0.8
					c0.3,0.3,0.1,2.4-1.6,3.5c-0.7,0.5-1,1.5-0.6,2.3c0.1,0.2,0.2,0.4,0.3,0.7c0.3,0.9,0.6,3.1,1,4.2c-2-2.5-2.3-5.5-9.4-13.2l0,0
					c-2.9-2.3-5.6-4.8-8.2-7.5c-0.6-0.6-0.7-1.4-0.3-2.1C105.3,47,106,46.1,106.8,45.4z"/>
				<path id="Path_20889" class="st5" d="M114.7,58.9c0.6-0.1,3,3.9,4.2,4.1c1,0.3,2,0.2,2.9-0.3c1.1-0.5,1.8-1.7,1.8-3
					c-0.1-0.1-2.6-4-2.6-4"/>
				<path id="Path_20890" class="st5" d="M122.6,58c1.7-0.4,3.1-1.6,3.7-3.3c0.2-0.7,0.4-1.4,0.4-2.2c0.2-1.4,0-2.8-0.4-4.1
					c-0.9-2.1-2.9-3.4-4.9-4.4c-1-0.5-2-0.9-3.1-1.1c-0.7-0.1-1.4-0.1-2.1,0.1c-0.6,0.1-1.1,0.6-1.3,1.1c-0.7,1.5-1.5,3-2.2,4.6
					c-0.8,1.5-1.4,3.1-1.7,4.8c-0.7,2.7,1,5.4,3.7,6.1c0.6,0.2,1.3,0.2,2,0.1c1.6-0.2,3.1-0.5,4.6-1.1"/>
				<path id="Path_20891" class="st19" d="M122.3,56.5c-0.2-0.5-0.5-0.8-0.3-1.3c0.3-0.6,1.3-1.5,1.3-2.3c0.1-0.8-0.3-1.6-0.3-2.4
					c0.1-0.7,0.2-1.4,0.5-2.1c-1.6-0.4-4.5-1.4-6-1.9c-1.7-0.6-4.4-1.7-5.3-3.4c-0.8-1.6-0.8-4.9,0.9-6c1-0.6,2.3-0.3,3,0.7
					c0.2,0.4,0.3,0.8,0.3,1.2c0.8-0.6,1.8-1.1,2.8-1.4c1-0.3,2.1,0.1,2.8,0.9c0.9,1.3,0.1,3.3,1.1,4.5c0.7,0.7,1.6,1,2.5,1
					c0.9-0.1,1.9,0.1,2.8,0.4c1.1,0.6,1.8,1.7,1.9,2.9c0.1,1.5,0.1,3.1-0.1,4.6c0,1.3-0.3,2.5-0.7,3.7c-1.1,2.5-3.8,3.9-6.5,3.4"/>
				<path id="Path_20892" class="st5" d="M122.3,55.8c0.6-0.6,1.5-0.5,2.1,0.1c0.5,0.6,0.6,1.5,0.1,2.2c-0.3,0.4-0.6,0.7-1,0.9
					c-1.3,0.7-3.1,0.9-3.3-0.4"/>
				<path id="Path_20893" class="st5" d="M102.1,100.2c-0.7,0.5-1.4,0.9-2.2,1.1c-1,0.1-1.9,0.4-2.9,0.7c-0.8,0.4-1.5,0.9-2.3,1.3
					c-0.5,0.4-1.7,0.8-1.3,1.3c0.4,0.5,1.6-0.1,2.3-0.4c0.3-0.1,0.5-0.2,0.8-0.3c0.3,0,0.6,0.1,0.8,0.3c0.1,0.2,0.2,0.4,0.1,0.6
					c0,1.3-0.4,2.5-1,3.6c-0.6,1.1-1.3,2.2-2.1,3.2c-0.1,0.2-0.3,0.3-0.4,0.7c0,0.2-0.1,0.7,0.1,0.7c0.5-0.4,1-0.8,1.5-1.3l1.2-1.3
					c0.1-0.1,0.2-0.2,0.3-0.2c0.1,0,0.2,0,0.3,0.1c0.2,0,0.4-0.1,0.6-0.2c0.3-0.2,0.6-0.5,0.9-0.7c0.4-0.3,0.6,0,1-0.4
					c0.4-0.4,0.9-1.6,1.2-2c0.3-0.3,0.6-0.7,0.8-1.1c0.2-0.5,0.4-1,0.6-1.5c0.5-1.4,1.1-2.8,1.9-4"/>
			</g>
		</g>
		<path id="Path_20896" class="st9" d="M195.3,22c1.3,0.2,6.5,1.2,8.1,3c0.1,0.1,0.1,0.3,0.1,0.4c-0.1,0.7-0.3,1.4-0.6,2.1
			c-0.1,0.2-0.4,0.4-0.6,0.3c0,0,0,0-0.1,0c-1.4-0.8-5.5-3-7.9-3.3c-0.3,0-0.5-0.3-0.4-0.5c0-0.1,0-0.1,0-0.2
			c0.4-0.8,0.6-1.2,0.8-1.5C194.9,22.1,195.1,22,195.3,22z"/>
		<path id="Path_20897" class="st9" d="M214,55c2.7,1.4,4.8,3.8,5.7,6.7c0.1,0.2,0,0.5-0.2,0.7c-0.6,0.5-1,0.8-1.3,0.9
			c-0.3,0.2-0.7,0.1-0.9-0.2c0,0,0,0,0,0c-0.8-1.4-3.1-5.2-4.9-6.6c-0.3-0.2-0.3-0.6-0.1-0.9c0.1-0.1,0.1-0.1,0.2-0.2l0.9-0.5
			C213.6,54.9,213.8,54.9,214,55z"/>
	</g>
	<g id="Group_25494" transform="translate(208.959 25.482)">
		<path id="Path_20785" class="st1" d="M86.7,0c-5.8,0-10.4,4.7-10.5,10.4c0,2.4,0.8,4.7,2.3,6.5l-1.7,4.3l4-2.2
			c4.8,3.2,11.3,1.9,14.5-2.9c3.2-4.8,1.9-11.3-2.9-14.5C90.8,0.6,88.8,0,86.7,0L86.7,0z"/>
		<path id="Path_20786" class="st16" d="M82.3,9.5l3.2,3.9l5.6-5.9"/>
	</g>
</g>
</svg>
