<?xml version="1.0" encoding="utf-8"?>
<!-- Generator: Adobe Illustrator 22.0.0, SVG Export Plug-In . SVG Version: 6.00 Build 0)  -->
<svg version="1.1" id="Layer_1" xmlns="http://www.w3.org/2000/svg" xmlns:xlink="http://www.w3.org/1999/xlink" x="0px" y="0px"
	 viewBox="0 0 107.1 29.9" style="enable-background:new 0 0 107.1 29.9;" xml:space="preserve">
<style type="text/css">
	.st0{fill:#FFFFFF;}
</style>
<g>
	<path class="st0" d="M33.8,11.1c0.1-0.5,0.2-0.9,0.3-1.4c0.5-2,1.8-3.4,3.8-4C39.9,5,42,4.9,44.1,5.4C46.5,6,48,7.5,48.5,9.9
		c0.6,2.5,0.6,5-0.1,7.5c-0.8,2.8-2.8,4.2-5.9,4.4c-0.9,0-1.9,0-2.8-0.1c-1.1-0.1-2-0.7-2.8-1.4c-0.1-0.1-0.2-0.1-0.3-0.3
		c0,0.2,0,0.3,0,0.5c0,2.2,0,4.4,0,6.6c0,0.2,0,0.5,0,0.7c-0.1,0.6-0.4,1-1,1.2c-0.1,0-0.2,0.1-0.3,0.1c-0.5,0-1,0-1.4,0
		C33.8,23,33.8,17.1,33.8,11.1z M36.4,13.4C36.4,13.4,36.4,13.4,36.4,13.4c0.1,1.2,0.2,2.3,0.7,3.4c0.5,1.3,1.5,2,2.8,2.3
		c0.6,0.1,1.2,0.1,1.8,0.1c2.3-0.1,3.7-1.1,4.2-3.2c0.5-1.9,0.5-3.8-0.1-5.6C45.3,9,44.2,8,42.6,7.8c-0.9-0.1-1.8-0.1-2.7,0.1
		c-1.6,0.3-2.7,1.2-3.1,2.8C36.6,11.6,36.5,12.5,36.4,13.4z"/>
	<path class="st0" d="M7.9,26.9c-0.1-0.1-0.2-0.1-0.3-0.2c-3.5-2.4-5.7-5.6-6.2-9.9C1,12.8,2.2,9.2,5,6.1c2.2-2.4,5-3.8,8.3-4.3
		c7.1-0.9,13.8,4,15,11.1c1.3,7.4-3.5,14.3-10.8,15.7c-1.2,0.2-2.4,0.3-3.6,0.1c-1.3-0.2-2.2-0.9-2.8-2c-0.6-1-0.8-2-1-3.1
		c-0.3-1.9-0.2-3.9-0.1-5.8c0.1-1.7,0.3-3.5,0.4-5.2c0.1-0.9,0.1-1.7,0.1-2.6c0-0.8-0.1-1.5-0.5-2.2c0,0,0-0.1,0-0.1
		c0.1,0,0.2,0,0.3,0c2,0,4,0,5.9,0c1.8,0,3.3,0.9,4.4,2.3c0.9,1.2,1.4,2.5,1.5,4c0.1,1.6-0.1,3.1-0.7,4.6c-0.3,0.7-0.7,1.3-1.3,1.9
		c-0.8,0.8-1.8,1.1-2.8,1c-1.2-0.1-2.3-0.3-3.2-1.1c-0.6-0.5-1.1-1.1-1.2-1.9c-0.2-0.8,0.1-1.6,0.8-2.1c0.2-0.2,0.5-0.4,0.8-0.5
		c1.1-0.5,2.2-0.5,3.4-0.2c0.1,0,0.2,0.1,0.2,0.1c-1.3,0-2.6,0.2-3.8,0.9c0.1,0.1,0.2,0.3,0.3,0.4c0.6,0.6,1.4,0.9,2.2,1.1
		c1.4,0.4,2.8,0.3,4-0.5c0.2-0.1,0.4-0.3,0.6-0.5c0.2-0.2,0.2-0.4,0.1-0.6c-0.2-0.3-0.3-0.5-0.6-0.7c-0.8-0.8-1.8-1.2-2.9-1.4
		c-1-0.2-1.9-0.1-2.9,0.1c-1.4,0.4-2.4,1.2-2.8,2.6c-0.4,1.5,0.2,2.7,1.3,3.6c0.8,0.7,1.8,1,2.9,1.1c2.3,0.3,4.3-0.3,6-1.9
		c1.4-1.3,2.2-3,2.3-5c0.1-1.6-0.2-3.2-1-4.6c-1.1-1.9-2.8-2.9-4.9-3.3C18.2,7.1,17.5,7,16.9,7C13.1,7,9.3,7,5.5,7
		C5.4,7,5.2,6.9,5.2,7.2c0,0.3,0.2,0.2,0.4,0.2c0.5,0,1,0,1.5,0c0.6,0,0.8,0.3,0.9,0.9c0,0.3,0,0.6,0,0.9c0,5.8,0,11.6,0,17.4
		C7.9,26.6,7.9,26.7,7.9,26.9z"/>
	<path class="st0" d="M105.6,12.6c0,1.4,0.1,2.9,0,4.3c-0.2,2.4-1.5,3.9-3.8,4.5c-1.9,0.5-3.8,0.6-5.7,0.2c-0.6-0.1-1.2-0.4-1.7-0.7
		c-1.4-0.8-1.8-2.2-1.9-3.7c-0.1-2.2,0.9-3.7,2.9-4.5c1.1-0.5,2.4-0.6,3.6-0.9c0.7-0.1,1.4-0.2,2-0.4c0.4-0.1,0.8-0.2,1.1-0.4
		c0.7-0.4,0.9-1,0.9-1.8c-0.1-0.7-0.5-1.2-1.1-1.4c-0.5-0.2-1-0.3-1.6-0.3c-0.8,0-1.6,0-2.4,0.1c-1,0.2-1.7,0.7-1.8,1.8
		c0,0.1-0.1,0.2-0.2,0.2c-0.8,0-1.6,0-2.4,0c-0.2,0-0.2-0.1-0.2-0.3c0.1-1.6,0.8-2.7,2.2-3.4c1-0.5,2-0.6,3-0.7
		c1.4-0.1,2.8,0,4.1,0.3c0.6,0.2,1.1,0.4,1.6,0.7c1,0.6,1.5,1.5,1.5,2.7C105.7,10.2,105.6,11.4,105.6,12.6
		C105.6,12.6,105.6,12.6,105.6,12.6z M102.8,12.8c-0.8,0.5-1.6,0.6-2.4,0.8c-0.5,0.1-1.1,0.1-1.6,0.2c-0.9,0.1-1.7,0.3-2.4,0.9
		c-0.9,0.7-1.1,1.7-0.9,2.9c0.2,1,1,1.5,1.9,1.7c1,0.2,2,0.2,3-0.1c1.4-0.4,2.3-1.2,2.4-2.7C102.9,15.3,102.8,14.1,102.8,12.8z"/>
	<path class="st0" d="M63.6,10.9c0,1.6,0,3.1,0,4.7c0,0.6-0.1,1.2-0.2,1.8c-0.5,2.1-1.8,3.5-4,4c-1.7,0.4-3.4,0.4-5.1,0
		c-2.3-0.6-3.6-2.2-4.1-4.5c-0.1-0.6-0.2-1.2-0.2-1.8c0-3.1,0-6.2,0-9.3c0-0.5,0-0.5,0.5-0.5c0.6,0,1.2,0,1.9,0
		c0.3,0,0.4,0.1,0.4,0.4c0,3.1,0,6.3,0,9.4c0,0.9,0.2,1.7,0.6,2.4c0.5,0.8,1.2,1.3,2.1,1.5c0.7,0.2,1.5,0.2,2.2,0
		c1.6-0.3,2.6-1.4,2.9-3.1c0.1-0.3,0.1-0.6,0.1-1c0-2.6,0-5.2,0-7.8c0-0.2,0-0.4,0-0.6C61,6,61.4,5.6,62.2,5.5c0.3,0,0.7,0,1,0
		c0.3,0,0.4,0.1,0.4,0.4C63.6,7.5,63.6,9.2,63.6,10.9C63.6,10.9,63.6,10.9,63.6,10.9z"/>
	<path class="st0" d="M79,5.4c1,0,1.8,0,2.7,0c0.1,0,0.2,0.2,0.3,0.3c0.9,2.1,1.7,4.2,2.5,6.3c0.4,1.1,0.9,2.2,1.3,3.2
		c0,0.1,0.1,0.2,0.2,0.4c0.1-0.2,0.1-0.2,0.2-0.3c1.2-2.9,2.3-5.7,3.5-8.6c0.3-0.6,0.7-1.1,1.4-1.2c0.6-0.1,1.3-0.1,2.1-0.2
		c-0.1,0.2-0.1,0.4-0.2,0.5c-2.1,4.9-4.1,9.9-6.2,14.8c-0.3,0.8-0.8,1.5-1.4,2c-1.1,1.1-2.5,1.4-4,1.3c-0.1,0-0.2-0.1-0.2-0.2
		c0-0.5,0-1.1,0-1.6c0-0.2,0.1-0.2,0.3-0.2c0.3,0,0.6,0,0.9,0c1.7-0.1,2.6-1.3,2.3-3c-0.1-0.4-0.2-0.7-0.3-1.1c-1.7-4-3.3-8-5-12
		C79.1,5.8,79,5.7,79,5.4z"/>
	<path class="st0" d="M65.1,16.6c0-1.5,0-2.9,0-4.4c0-1.1,0.2-2.2,0.7-3.3C66.6,7,68.1,6,70.1,5.7c1-0.2,2-0.2,2.9-0.2
		c0.2,0,0.3,0.1,0.3,0.3c0,0.8,0,1.5,0,2.3c0,0.2-0.1,0.3-0.3,0.3c-0.6,0-1.3,0-1.9,0.1c-1.8,0.2-2.9,1.4-3.1,3.2
		c0,0.4-0.1,0.7-0.1,1.1c0,2.9,0,5.7,0,8.6c0,0.5,0,0.5-0.5,0.5c-0.6,0-1.3,0-1.9,0c-0.3,0-0.4-0.1-0.4-0.4
		C65.1,19.8,65.1,18.2,65.1,16.6C65.1,16.6,65.1,16.6,65.1,16.6z"/>
	<path class="st0" d="M74.7,13.6c0-2.6,0-5.2,0-7.8c0-0.3,0.1-0.5,0.4-0.4c0.3,0,0.7,0,1,0.1c0.8,0.1,1.2,0.5,1.3,1.3
		c0,0.2,0,0.4,0,0.6c0,4.6,0,9.3,0,13.9c0,0.5,0,0.5-0.5,0.5c-0.6,0-1.2,0-1.9,0c-0.3,0-0.4-0.1-0.4-0.4
		C74.7,18.8,74.7,16.2,74.7,13.6z"/>
	<path class="st0" d="M76,3.2c-0.3,0-0.7,0-1,0c-0.2,0-0.3-0.1-0.3-0.3c0-0.6,0-1.1,0-1.7c0-0.2,0.1-0.3,0.3-0.3c0.4,0,0.7,0,1.1,0
		c0.8,0.1,1.3,0.5,1.3,1.3c0.1,0.9,0.1,0.9-0.8,0.9C76.4,3.2,76.2,3.2,76,3.2z"/>
</g>
</svg>
