<?xml version="1.0" encoding="utf-8"?>
<!-- Generator: Adobe Illustrator 22.0.0, SVG Export Plug-In . SVG Version: 6.00 Build 0)  -->
<svg version="1.1" id="Layer_1" xmlns="http://www.w3.org/2000/svg" xmlns:xlink="http://www.w3.org/1999/xlink" x="0px" y="0px"
	 viewBox="0 0 44 44" style="enable-background:new 0 0 44 44;" xml:space="preserve">
<style type="text/css">
	.st0{fill:none;}
	.st1{fill:#FFFFFF;}
</style>
<title>linkedin</title>
<desc>Created with Sketch.</desc>
<g id="linkedin">
	<g>
		<rect id="Rectangle" class="st0" width="44" height="44"/>
		<path id="Shape" class="st1" d="M12.5,18.4h3.9V32h-3.9V18.4z M14.4,16.7L14.4,16.7c-1.4,0-2.4-1-2.4-2.4c0-1.3,0.9-2.4,2.4-2.4
			c1.4,0,2.3,1,2.4,2.4C16.7,15.7,15.8,16.7,14.4,16.7L14.4,16.7z M32,32h-4.4v-7c0-1.8-0.7-3.1-2.2-3.1c-1.2,0-1.8,0.8-2.1,1.7
			c-0.1,0.3-0.1,0.7-0.1,1.1V32h-4.4c0,0,0.1-12.5,0-13.6h4.4v2.1c0.3-0.9,1.7-2.3,3.9-2.3c2.8,0,4.9,2,4.9,6.2V32L32,32z"/>
	</g>
</g>
</svg>
