<?xml version="1.0" encoding="utf-8"?>
<!-- Generator: Adobe Illustrator 22.0.0, SVG Export Plug-In . SVG Version: 6.00 Build 0)  -->
<svg version="1.1" id="Layer_1" xmlns="http://www.w3.org/2000/svg" xmlns:xlink="http://www.w3.org/1999/xlink" x="0px" y="0px"
	 viewBox="0 0 44 44" style="enable-background:new 0 0 44 44;" xml:space="preserve">
<style type="text/css">
	.st0{fill:#FFFFFF;}
</style>
<title>linkedin</title>
<desc>Created with Sketch.</desc>
<path class="st0" d="M33.8,16.8h-8.2v-2.3h8.2V16.8z M35.8,28.5c-0.5,1.5-2.4,3.5-6,3.5c-3.6,0-6.5-2-6.5-6.6c0-4.6,2.7-6.9,6.4-6.9
	c3.6,0,5.8,2.1,6.3,5.2c0.1,0.6,0.1,1.4,0.1,2.5h-9.4c0.2,3.8,4.1,3.9,5.4,2.4C32.1,28.5,35.8,28.5,35.8,28.5z M26.8,23.8h5.8
	c-0.1-1.8-1.3-2.6-2.9-2.6C28,21.2,27,22.1,26.8,23.8z M15.6,32H8V14.5h8.1c6.4,0.1,6.5,6.4,3.2,8.1C23.4,24,23.5,32,15.6,32z
	 M11.5,21.5h4.2c2.9,0,3.4-3.5-0.4-3.5h-3.8C11.5,18,11.5,21.5,11.5,21.5z M15.5,25h-4v3.5h3.9C19,28.5,18.8,25,15.5,25z"/>
</svg>
