<?xml version="1.0" encoding="utf-8"?>
<!-- Generator: Adobe Illustrator 22.0.0, SVG Export Plug-In . SVG Version: 6.00 Build 0)  -->
<svg version="1.1" id="Layer_1" xmlns="http://www.w3.org/2000/svg" xmlns:xlink="http://www.w3.org/1999/xlink" x="0px" y="0px"
	 viewBox="0 0 107.1 29.9" style="enable-background:new 0 0 107.1 29.9;" xml:space="preserve">
<style type="text/css">
	.st0{fill:none;}
	.st1{fill:#FFFFFF;}
	.st2{fill:#C8CACC;}
</style>
<g>
	<g>
		<path class="st0" d="M47.9,17.9c-0.1,0-0.9,0.1-1.1,0.1c-1.1,0-1.4-0.6-1.4-1.5v-3.9h2.2c0.8,0,1.3-0.3,1.3-1
			c0-0.6-0.5-0.9-1.3-0.9h-2.2v-0.6c0-0.8-0.4-1.3-1-1.3c-0.6,0-1.1,0.5-1.1,1.3v6.8c0,2,1.2,3.1,3.4,3.1c0.4,0,0.8,0,1.2-0.1
			c0.7-0.2,1.1-0.5,1.1-1C49,18.3,48.7,17.9,47.9,17.9z"/>
		<path class="st0" d="M54.6,14.2c-1.9-0.2-2.3-0.4-2.3-1.1c0-0.4,0.3-0.9,2.1-0.9c1.1,0,1.9,0.1,2.7,0.1c0.7,0,1.1-0.4,1.1-0.9
			c0-0.6-0.5-0.9-1.4-1h0c-0.6,0-2.5-0.1-2.7-0.1c-2.4,0-3.8,1-3.8,2.9c0,1.8,1.1,2.6,3.8,2.9c1.5,0.1,2.8,0.3,2.8,1
			c0,0.7-0.8,1-2.4,1c-1.3,0-2.5-0.2-3.1-0.2c-0.7,0-1.1,0.4-1.1,0.9c0,0.5,0.3,0.9,0.9,1c1,0.2,2.3,0.2,3.6,0.2
			c1.4,0,2.5-0.3,3.2-0.9c0.7-0.6,1-1.3,1-2.1C58.9,15.4,57.7,14.6,54.6,14.2z"/>
		<path class="st0" d="M29.5,10.3c-0.5-0.2-1.1,0.1-1.3,0.7l-2.1,6.8c0,0.1-0.1,0.2-0.2,0.2c-0.1,0-0.2-0.1-0.2-0.2L24,13.2
			c-0.3-0.7-0.6-1.5-1.6-1.5s-1.3,0.9-1.6,1.5L19,17.8c0,0.1-0.1,0.2-0.2,0.2c-0.1,0-0.2-0.1-0.2-0.2L16.5,11
			c-0.2-0.6-0.8-0.9-1.3-0.7c-0.6,0.2-0.9,0.8-0.7,1.3l2.1,6.9c0.3,1,1.2,1.6,2.2,1.6c1,0,1.8-0.6,2.2-1.5l1.4-3.5l1.4,3.5
			c0.4,0.9,1.2,1.5,2.2,1.5c1,0,1.9-0.6,2.2-1.6l2.1-6.9C30.4,11,30.1,10.4,29.5,10.3z"/>
		<path class="st0" d="M36.3,10.2c-3.1,0-5.4,2.1-5.4,4.9c0,2.8,2.2,4.9,5.1,4.9c1.7,0,2.9-0.7,3.5-1.4l0,0c0,0.5,0.1,0.8,0.3,1
			c0.2,0.2,0.5,0.3,0.8,0.3c0.6,0,1-0.5,1-1.3v-3.5C41.7,12.1,39.7,10.2,36.3,10.2z M36.3,18.1c-1.9,0-3.3-1.2-3.3-2.9v0
			c0-1.7,1.3-2.9,3.3-2.9c2.2,0,3.4,1.1,3.4,2.9C39.7,16.9,38.3,18.1,36.3,18.1z"/>
		<path class="st0" d="M76.9,10.3c-2.9,0-4.9,1.6-4.9,4.1v4.3c0,0.8,0.4,1.3,1.1,1.3c0.5,0,1.1-0.4,1.1-1.3v-4
			c0-1.6,0.9-2.4,2.7-2.4c1.8,0,2.7,0.8,2.7,2.4v4c0,0.8,0.4,1.3,1.1,1.3c0.5,0,1.1-0.4,1.1-1.3v-4.3C81.7,11.9,79.8,10.3,76.9,10.3
			z"/>
		<path class="st0" d="M87.3,14.2c-1.9-0.2-2.3-0.4-2.3-1.1c0-0.4,0.3-0.9,2.1-0.9c1.1,0,1.9,0.1,2.7,0.1c0.7,0,1.1-0.4,1.1-0.9
			c0-0.6-0.5-0.9-1.4-1h0c-0.6,0-2.5-0.1-2.7-0.1c-2.4,0-3.8,1-3.8,2.9c0,1.8,1.1,2.6,3.8,2.9c1.5,0.1,2.8,0.3,2.8,1
			c0,0.7-0.8,1-2.4,1c-1.3,0-2.5-0.2-3.1-0.2c-0.7,0-1.1,0.4-1.1,0.9c0,0.5,0.3,0.9,0.9,1c1,0.2,2.3,0.2,3.6,0.2
			c1.4,0,2.5-0.3,3.2-0.9c0.7-0.6,1-1.3,1-2.1C91.6,15.4,90.4,14.6,87.3,14.2z"/>
		<path class="st0" d="M65.3,10.2c-3.1,0-5.4,2.1-5.4,4.9c0,2.8,2.3,4.9,5.4,4.9c3.1,0,5.4-2.1,5.4-4.9
			C70.6,12.3,68.4,10.2,65.3,10.2z M65.3,18.1c-1.9,0-3.3-1.2-3.3-2.9c0-1.7,1.4-2.9,3.3-2.9c1.9,0,3.3,1.2,3.3,2.9
			C68.6,16.9,67.2,18.1,65.3,18.1z"/>
		<path class="st1" d="M65.3,12.2c-1.9,0-3.3,1.2-3.3,2.9c0,1.7,1.4,2.9,3.3,2.9c1.9,0,3.3-1.2,3.3-2.9
			C68.6,13.4,67.2,12.2,65.3,12.2z"/>
		<path class="st1" d="M36.3,12.2c-1.9,0-3.3,1.2-3.3,2.9v0c0,1.7,1.3,2.9,3.3,2.9c2,0,3.4-1.2,3.4-3C39.7,13.2,38.5,12.2,36.3,12.2
			z"/>
		<path class="st1" d="M13.6,4.5C6.4,4.5,1.2,8.4,1.2,17.3v8.1h92.2c3.1,0,5.9-0.7,8-2.3c2.7-2,4.4-5.5,4.4-10.5V4.5H13.6z
			 M30.2,11.6l-2.1,6.9c-0.3,1-1.2,1.6-2.2,1.6c-1,0-1.8-0.6-2.2-1.5L22.4,15L21,18.5c-0.4,0.9-1.2,1.5-2.2,1.5
			c-1,0-1.9-0.6-2.2-1.6l-2.1-6.9c-0.2-0.6,0.1-1.2,0.7-1.3c0.6-0.2,1.2,0.1,1.3,0.7l2.1,6.8c0,0.1,0.1,0.2,0.2,0.2
			c0.1,0,0.2-0.1,0.2-0.2l1.8-4.6c0.3-0.7,0.6-1.5,1.6-1.5s1.3,0.9,1.6,1.5l1.8,4.6c0,0.1,0.1,0.2,0.2,0.2c0.1,0,0.2-0.1,0.2-0.2
			l2.1-6.8c0.2-0.6,0.8-0.9,1.3-0.7C30.1,10.4,30.4,11,30.2,11.6z M41.7,18.7c0,0.8-0.4,1.3-1,1.3c-0.3,0-0.6-0.1-0.8-0.3
			c-0.2-0.2-0.3-0.5-0.3-1l0,0c-0.6,0.6-1.8,1.4-3.5,1.4c-2.9,0-5.1-2.1-5.1-4.9c0-2.8,2.3-4.9,5.4-4.9c3.4,0,5.4,1.8,5.4,4.9V18.7z
			 M47.9,19.9c-0.3,0.1-0.7,0.1-1.2,0.1c-2.2,0-3.4-1.1-3.4-3.1v-6.8c0-0.8,0.4-1.3,1.1-1.3c0.6,0,1,0.5,1,1.3v0.6h2.2
			c0.8,0,1.3,0.4,1.3,0.9c0,0.6-0.4,1-1.3,1h-2.2v3.9c0,0.9,0.2,1.5,1.4,1.5c0.3,0,1-0.1,1.1-0.1c0.8-0.1,1.2,0.4,1.2,0.9
			C49,19.4,48.7,19.7,47.9,19.9z M58,19.1c-0.7,0.6-1.8,0.9-3.2,0.9c-1.2,0-2.6,0-3.6-0.2c-0.6-0.1-0.9-0.5-0.9-1
			c0-0.6,0.4-0.9,1.1-0.9c0.6,0,1.7,0.2,3.1,0.2c1.7,0,2.4-0.3,2.4-1c0-0.7-1.3-0.8-2.8-1c-2.7-0.3-3.8-1.1-3.8-2.9
			c0-1.8,1.4-2.9,3.8-2.9c0.2,0,2.1,0,2.7,0.1h0c0.9,0.1,1.4,0.4,1.4,1c0,0.6-0.4,0.9-1.1,0.9c-0.7,0-1.6-0.1-2.7-0.1
			c-1.9,0-2.1,0.4-2.1,0.9c0,0.6,0.4,0.8,2.3,1.1c3.1,0.4,4.3,1.2,4.3,2.9C58.9,17.8,58.7,18.5,58,19.1z M65.3,20
			c-3.1,0-5.4-2.1-5.4-4.9c0-2.8,2.3-4.9,5.4-4.9c3.1,0,5.4,2.1,5.4,4.9C70.6,18,68.4,20,65.3,20z M81.7,18.7c0,0.9-0.5,1.3-1.1,1.3
			c-0.6,0-1.1-0.5-1.1-1.3v-4c0-1.6-0.9-2.4-2.7-2.4c-1.8,0-2.7,0.8-2.7,2.4v4c0,0.9-0.5,1.3-1.1,1.3c-0.6,0-1.1-0.5-1.1-1.3v-4.3
			c0-2.5,1.9-4.1,4.9-4.1c2.9,0,4.8,1.6,4.8,4.1V18.7z M90.6,19.1c-0.7,0.6-1.8,0.9-3.2,0.9c-1.2,0-2.6,0-3.6-0.2
			c-0.6-0.1-0.9-0.5-0.9-1c0-0.6,0.4-0.9,1.1-0.9c0.6,0,1.7,0.2,3.1,0.2c1.7,0,2.4-0.3,2.4-1c0-0.7-1.3-0.8-2.8-1
			c-2.7-0.3-3.8-1.1-3.8-2.9c0-1.8,1.4-2.9,3.8-2.9c0.2,0,2.1,0,2.7,0.1h0c0.9,0.1,1.4,0.4,1.4,1c0,0.6-0.4,0.9-1.1,0.9
			c-0.7,0-1.6-0.1-2.7-0.1c-1.9,0-2.1,0.4-2.1,0.9c0,0.6,0.4,0.8,2.3,1.1c3.1,0.4,4.3,1.2,4.3,2.9C91.6,17.8,91.4,18.5,90.6,19.1z"
			/>
	</g>
	<g>
		<g>
			<path class="st2" d="M93.5,25.4c3.1,0,5.9-0.7,8-2.3H1.2v2.3H93.5z"/>
		</g>
	</g>
</g>
</svg>
