<svg id="Layer_1" data-name="Layer 1" xmlns="http://www.w3.org/2000/svg" viewBox="0 0 189 144.07"><title>calarts</title><path d="M37.79,145.91h1v6.41A2.56,2.56,0,0,0,41.56,155a2.57,2.57,0,0,0,2.8-2.74v-6.38h1v6.42a3.48,3.48,0,0,1-3.75,3.6,3.5,3.5,0,0,1-3.79-3.6Z" transform="translate(-34.33 -14.63)"/><path d="M48.06,145.91h1v9.85h-1Z" transform="translate(-34.33 -14.63)"/><path d="M58.35,145.37h.88l-3.54,11h-.9Z" transform="translate(-34.33 -14.63)"/><path d="M64.77,145.91h1v6.41a2.8,2.8,0,0,0,5.59,0v-6.38h1v6.42a3.77,3.77,0,0,1-7.54,0Z" transform="translate(-34.33 -14.63)"/><path d="M77.11,150.62l-2.86-4.71h1.13l1.73,2.92c.29.5.64,1.13.64,1.13h0a11,11,0,0,1,.59-1.13l1.73-2.92h1.15l-2.88,4.71,3.15,5.14H80.4l-2.05-3.4c-.3-.51-.61-1.09-.61-1.09h0s-.29.58-.6,1.1l-2,3.39H74Z" transform="translate(-34.33 -14.63)"/><path d="M87.09,145.91h3.18a4.93,4.93,0,1,1,0,9.85H87.09Zm3.08,9a4.06,4.06,0,0,0,0-8.11H88.05v8.11Z" transform="translate(-34.33 -14.63)"/><path d="M100.15,148.55c1.95,0,2.94,1.5,2.94,3.25,0,.17,0,.49,0,.49h-5.4a2.65,2.65,0,0,0,2.73,2.79,3.25,3.25,0,0,0,2.14-.86l.44.73a4.07,4.07,0,0,1-2.61,1,3.56,3.56,0,0,1-3.68-3.68A3.44,3.44,0,0,1,100.15,148.55Zm2,2.95a2,2,0,0,0-2-2.15,2.38,2.38,0,0,0-2.42,2.15Z" transform="translate(-34.33 -14.63)"/><path d="M104.85,154.22a3,3,0,0,0,2.1.86c.76,0,1.42-.38,1.42-1.12,0-1.55-3.8-1.17-3.8-3.46,0-1.27,1.14-1.95,2.41-1.95a3,3,0,0,1,2.17.77l-.43.73a2.49,2.49,0,0,0-1.77-.65c-.71,0-1.4.31-1.4,1.1,0,1.55,3.8,1.13,3.8,3.46a2.14,2.14,0,0,1-2.41,2,3.61,3.61,0,0,1-2.61-1Z" transform="translate(-34.33 -14.63)"/><path d="M111.08,145.91h1v1.2h-1Zm0,2.81h1v7h-1Z" transform="translate(-34.33 -14.63)"/><path d="M116.8,157.85c1.37,0,2.46-.65,2.46-2.21V155a4.56,4.56,0,0,1,0-.5h0a2.32,2.32,0,0,1-2.23,1.23c-1.89,0-3.13-1.5-3.13-3.61s1.16-3.56,3-3.56a2.34,2.34,0,0,1,2.33,1.17h0a2.07,2.07,0,0,1,0-.23v-.77h.92v6.87c0,2.25-1.65,3.11-3.37,3.11a5.15,5.15,0,0,1-2.31-.56l.36-.78A4.34,4.34,0,0,0,116.8,157.85Zm2.48-5.74c0-2.06-1-2.69-2.23-2.69s-2.17,1-2.17,2.67.91,2.78,2.31,2.78C118.3,154.87,119.28,154.18,119.28,152.11Z" transform="translate(-34.33 -14.63)"/><path d="M122.51,148.72h.94v1.05a5.49,5.49,0,0,1,0,.56h0a3,3,0,0,1,2.81-1.78c1.74,0,2.35,1,2.35,2.73v4.48h-1v-4.23c0-1.1-.17-2.09-1.53-2.09a2.68,2.68,0,0,0-2.56,2,3.72,3.72,0,0,0-.11,1v3.37h-.95Z" transform="translate(-34.33 -14.63)"/><path d="M134.7,153.93a3.84,3.84,0,0,0,2.58,1.08,1.78,1.78,0,0,0,2-1.71c0-2.48-4.92-1.85-4.92-4.91a2.83,2.83,0,0,1,3.07-2.64,3.81,3.81,0,0,1,2.63.95l-.47.81a3.37,3.37,0,0,0-2.16-.84,1.88,1.88,0,0,0-2.07,1.7c0,2.34,4.91,1.66,4.91,4.9a2.71,2.71,0,0,1-3,2.66,4.32,4.32,0,0,1-3.12-1.26Z" transform="translate(-34.33 -14.63)"/><path d="M142.11,148.72H143v.68a4.93,4.93,0,0,1,0,.55h0a2.55,2.55,0,0,1,2.43-1.4c1.9,0,3.07,1.51,3.07,3.7s-1.33,3.68-3.15,3.68a2.55,2.55,0,0,1-2.31-1.34h0a5.67,5.67,0,0,1,0,.61v3.36h-.95Zm3.16,6.37c1.25,0,2.27-1.05,2.27-2.84s-.91-2.83-2.23-2.83-2.28.84-2.28,2.84C143,153.68,143.82,155.09,145.27,155.09Z" transform="translate(-34.33 -14.63)"/><path d="M153.34,148.55a2.94,2.94,0,0,1,2.94,3.25c0,.17,0,.49,0,.49h-5.41a2.65,2.65,0,0,0,2.73,2.79,3.29,3.29,0,0,0,2.15-.86l.43.73a4,4,0,0,1-2.6,1,3.56,3.56,0,0,1-3.69-3.68A3.44,3.44,0,0,1,153.34,148.55Zm2,2.95a2,2,0,0,0-2-2.15,2.39,2.39,0,0,0-2.43,2.15Z" transform="translate(-34.33 -14.63)"/><path d="M161.3,148.55a3.48,3.48,0,0,1,2.58,1l-.49.71a3,3,0,0,0-2.06-.85,2.7,2.7,0,0,0-2.75,2.83,2.74,2.74,0,0,0,2.78,2.83,3.08,3.08,0,0,0,2.25-1l.44.74a3.75,3.75,0,0,1-2.75,1.11,3.69,3.69,0,1,1,0-7.38Z" transform="translate(-34.33 -14.63)"/><path d="M165.75,145.91h1v1.2h-1Zm0,2.81h.95v7h-.95Z" transform="translate(-34.33 -14.63)"/><path d="M172.77,151.41h.39v-.19c0-1.36-.74-1.82-1.75-1.82a3.45,3.45,0,0,0-2,.67l-.45-.72a4.07,4.07,0,0,1,2.51-.8,2.4,2.4,0,0,1,2.63,2.7v4.51h-.91V155a5.26,5.26,0,0,1,0-.59h0a2.55,2.55,0,0,1-2.35,1.53,2.19,2.19,0,0,1-2.4-2.09C168.45,151.46,171.55,151.41,172.77,151.41ZM171,155.12a2.45,2.45,0,0,0,2.16-2.62v-.31h-.41c-1.1,0-3.32,0-3.32,1.6A1.4,1.4,0,0,0,171,155.12Z" transform="translate(-34.33 -14.63)"/><path d="M176.24,145.91h.95v8c0,.92.42,1.06.79,1.06h.23v.85a2.13,2.13,0,0,1-.35,0c-.59,0-1.62-.18-1.62-1.72Z" transform="translate(-34.33 -14.63)"/><path d="M179.74,145.91h1v1.2h-1Zm0,2.81h.95v7h-.95Z" transform="translate(-34.33 -14.63)"/><path d="M182.45,155.15l3.94-5c.27-.34.56-.64.56-.64v0a6.3,6.3,0,0,1-.7,0h-3.63v-.84h5.62v.63l-3.94,4.93a8.37,8.37,0,0,1-.57.64v0a6.63,6.63,0,0,1,.71,0h3.94v.84h-5.93Z" transform="translate(-34.33 -14.63)"/><path d="M193.88,151.41h.39v-.19c0-1.36-.74-1.82-1.75-1.82a3.45,3.45,0,0,0-2,.67l-.45-.72a4.07,4.07,0,0,1,2.51-.8,2.39,2.39,0,0,1,2.63,2.7v4.51h-.91V155a5.26,5.26,0,0,1,0-.59h0a2.53,2.53,0,0,1-2.35,1.53,2.18,2.18,0,0,1-2.39-2.09C189.57,151.46,192.66,151.41,193.88,151.41Zm-1.77,3.71a2.45,2.45,0,0,0,2.16-2.62v-.31h-.4c-1.11,0-3.32,0-3.32,1.6A1.39,1.39,0,0,0,192.11,155.12Z" transform="translate(-34.33 -14.63)"/><path d="M197.64,149.6h-.92v-.8h.94v-2h.94v2h1.76v.8H198.6v3.5c0,1.65,1.05,1.86,1.58,1.86a2.15,2.15,0,0,0,.32,0v.85a2.25,2.25,0,0,1-.4,0,2.29,2.29,0,0,1-2.46-2.62Z" transform="translate(-34.33 -14.63)"/><path d="M202,145.91h1v1.2h-1Zm0,2.81h1v7h-1Z" transform="translate(-34.33 -14.63)"/><path d="M208.52,148.55a3.69,3.69,0,1,1-3.72,3.65A3.65,3.65,0,0,1,208.52,148.55Zm0,6.53a2.79,2.79,0,0,0,2.75-2.88,2.75,2.75,0,1,0-5.49,0A2.78,2.78,0,0,0,208.52,155.08Z" transform="translate(-34.33 -14.63)"/><path d="M214,148.72H215v1.05a5.49,5.49,0,0,1,0,.56h0a3,3,0,0,1,2.82-1.78c1.73,0,2.35,1,2.35,2.73v4.48h-.95v-4.23c0-1.1-.17-2.09-1.53-2.09a2.68,2.68,0,0,0-2.56,2,3.33,3.33,0,0,0-.11,1v3.37h-1Z" transform="translate(-34.33 -14.63)"/><path d="M41.46,123.75A5,5,0,0,1,45,125l-.52.72a4.61,4.61,0,0,0-3-1.1,3.94,3.94,0,0,0-4,4.12,4.06,4.06,0,0,0,4,4.27,4.64,4.64,0,0,0,3.2-1.31l.56.68a5.27,5.27,0,0,1-3.77,1.53,5,5,0,0,1-5-5.15A4.89,4.89,0,0,1,41.46,123.75Z" transform="translate(-34.33 -14.63)"/><path d="M50.82,129.41h.39v-.19c0-1.36-.74-1.82-1.75-1.82a3.4,3.4,0,0,0-2,.67l-.45-.72a4,4,0,0,1,2.5-.8,2.4,2.4,0,0,1,2.64,2.7v4.51h-.91V133a5.26,5.26,0,0,1,0-.59h0a2.55,2.55,0,0,1-2.36,1.53,2.18,2.18,0,0,1-2.39-2.09C46.51,129.46,49.6,129.41,50.82,129.41Zm-1.76,3.71c1.34,0,2.15-1.4,2.15-2.62v-.31h-.4c-1.11,0-3.32,0-3.32,1.6A1.4,1.4,0,0,0,49.06,133.12Z" transform="translate(-34.33 -14.63)"/><path d="M54.29,123.91h1v8c0,.92.42,1.06.78,1.06h.24v.85a2.29,2.29,0,0,1-.35,0c-.59,0-1.63-.18-1.63-1.72Z" transform="translate(-34.33 -14.63)"/><path d="M57.79,123.91h1v1.2h-1Zm0,2.81h1v7h-1Z" transform="translate(-34.33 -14.63)"/><path d="M61.39,127.6h-.88v-.8h.88v-.34a2.3,2.3,0,0,1,2.44-2.61,4.07,4.07,0,0,1,.43,0v.86a1.74,1.74,0,0,0-.33,0c-.55,0-1.59.19-1.59,1.76v.34h1.81v.8H62.34v6.16h-1Z" transform="translate(-34.33 -14.63)"/><path d="M68.7,126.55A3.69,3.69,0,1,1,65,130.2,3.65,3.65,0,0,1,68.7,126.55Zm0,6.53a2.79,2.79,0,0,0,2.75-2.88,2.75,2.75,0,1,0-5.5,0A2.79,2.79,0,0,0,68.7,133.08Z" transform="translate(-34.33 -14.63)"/><path d="M74.2,126.72h.94V128a5.24,5.24,0,0,1,0,.56h0a2.4,2.4,0,0,1,2.23-1.87,1.94,1.94,0,0,1,.37,0v.94a2.13,2.13,0,0,0-.35,0,2.25,2.25,0,0,0-2,1.82,4.64,4.64,0,0,0-.2,1.37v3h-1Z" transform="translate(-34.33 -14.63)"/><path d="M79.18,126.72h.94v1a5.49,5.49,0,0,1,0,.56h0a3,3,0,0,1,2.82-1.78c1.74,0,2.35,1,2.35,2.73v4.48h-1v-4.23c0-1.1-.17-2.09-1.53-2.09a2.68,2.68,0,0,0-2.56,2,3.33,3.33,0,0,0-.11,1v3.37h-1Z" transform="translate(-34.33 -14.63)"/><path d="M87.46,123.91h1v1.2h-1Zm0,2.81h1v7h-1Z" transform="translate(-34.33 -14.63)"/><path d="M94.47,129.41h.4v-.19a1.58,1.58,0,0,0-1.75-1.82,3.41,3.41,0,0,0-2,.67l-.45-.72a4,4,0,0,1,2.51-.8,2.4,2.4,0,0,1,2.63,2.7v4.51h-.91V133a5.26,5.26,0,0,1,0-.59h0a2.55,2.55,0,0,1-2.35,1.53,2.19,2.19,0,0,1-2.4-2.09C90.16,129.46,93.26,129.41,94.47,129.41Zm-1.76,3.71a2.46,2.46,0,0,0,2.16-2.62v-.31h-.41c-1.11,0-3.32,0-3.32,1.6A1.4,1.4,0,0,0,92.71,133.12Z" transform="translate(-34.33 -14.63)"/><path d="M102.06,123.91h1v9.85h-1Z" transform="translate(-34.33 -14.63)"/><path d="M105.6,126.72h.94v1a5.49,5.49,0,0,1,0,.56h0a3,3,0,0,1,2.82-1.78c1.73,0,2.35,1,2.35,2.73v4.48h-.95v-4.23c0-1.1-.17-2.09-1.53-2.09a2.67,2.67,0,0,0-2.56,2,3.33,3.33,0,0,0-.12,1v3.37h-1Z" transform="translate(-34.33 -14.63)"/><path d="M113.85,132.22a3,3,0,0,0,2.1.86c.76,0,1.41-.38,1.41-1.12,0-1.55-3.79-1.17-3.79-3.46,0-1.27,1.13-2,2.41-2a3,3,0,0,1,2.17.77l-.44.73a2.48,2.48,0,0,0-1.76-.65c-.72,0-1.4.31-1.4,1.1,0,1.55,3.79,1.13,3.79,3.46,0,1.14-1,2-2.41,2a3.6,3.6,0,0,1-2.6-1Z" transform="translate(-34.33 -14.63)"/><path d="M120.37,127.6h-.92v-.8h.94v-2h.93v2h1.77v.8h-1.77v3.5c0,1.65,1.05,1.86,1.59,1.86a2.33,2.33,0,0,0,.32,0v.85a2.45,2.45,0,0,1-.41,0c-.81,0-2.45-.27-2.45-2.62Z" transform="translate(-34.33 -14.63)"/><path d="M124.77,123.91h1v1.2h-1Zm0,2.81h1v7h-1Z" transform="translate(-34.33 -14.63)"/><path d="M128.31,127.6h-.93v-.8h.94v-2h.94v2H131v.8h-1.77v3.5c0,1.65,1.05,1.86,1.58,1.86a2.4,2.4,0,0,0,.33,0v.85a2.45,2.45,0,0,1-.41,0c-.81,0-2.45-.27-2.45-2.62Z" transform="translate(-34.33 -14.63)"/><path d="M132.64,126.72h1V131c0,1.1.17,2.08,1.52,2.08a2.73,2.73,0,0,0,2.61-2.94v-3.37h.95v7h-.92v-1a5.24,5.24,0,0,1,0-.56h0a3,3,0,0,1-2.76,1.78c-1.65,0-2.35-.9-2.35-2.73Z" transform="translate(-34.33 -14.63)"/><path d="M141.23,127.6h-.92v-.8h.94v-2h.93v2H144v.8h-1.77v3.5c0,1.65,1,1.86,1.59,1.86a2.33,2.33,0,0,0,.32,0v.85a2.45,2.45,0,0,1-.41,0c-.81,0-2.45-.27-2.45-2.62Z" transform="translate(-34.33 -14.63)"/><path d="M148.64,126.55c2,0,2.94,1.5,2.94,3.25,0,.17,0,.49,0,.49h-5.4a2.65,2.65,0,0,0,2.73,2.79,3.25,3.25,0,0,0,2.14-.86l.43.73a4,4,0,0,1-2.6,1,3.56,3.56,0,0,1-3.69-3.68A3.44,3.44,0,0,1,148.64,126.55Zm2,3a2,2,0,0,0-2-2.15,2.38,2.38,0,0,0-2.42,2.15Z" transform="translate(-34.33 -14.63)"/><path d="M160.37,126.55a3.69,3.69,0,1,1-3.73,3.65A3.65,3.65,0,0,1,160.37,126.55Zm0,6.53a2.79,2.79,0,0,0,2.75-2.88,2.75,2.75,0,1,0-5.5,0A2.79,2.79,0,0,0,160.37,133.08Z" transform="translate(-34.33 -14.63)"/><path d="M166.15,127.6h-.88v-.8h.88v-.34a2.3,2.3,0,0,1,2.44-2.61,4.07,4.07,0,0,1,.43,0v.86a1.74,1.74,0,0,0-.33,0c-.55,0-1.59.19-1.59,1.76v.34h1.81v.8H167.1v6.16h-.95Z" transform="translate(-34.33 -14.63)"/><path d="M174.34,127.6h-.92v-.8h.93v-2h.94v2h1.77v.8h-1.77v3.5c0,1.65,1.05,1.86,1.59,1.86a2.33,2.33,0,0,0,.32,0v.85a2.45,2.45,0,0,1-.41,0c-.81,0-2.45-.27-2.45-2.62Z" transform="translate(-34.33 -14.63)"/><path d="M178.76,123.91h1v3.81a5.41,5.41,0,0,1,0,.58h0a3,3,0,0,1,2.8-1.75c1.74,0,2.35,1,2.35,2.73v4.48h-1v-4.23c0-1.1-.17-2.09-1.53-2.09a2.68,2.68,0,0,0-2.56,2,3.11,3.11,0,0,0-.11.94v3.37h-1Z" transform="translate(-34.33 -14.63)"/><path d="M190.05,126.55c1.95,0,2.94,1.5,2.94,3.25,0,.17,0,.49,0,.49h-5.4a2.65,2.65,0,0,0,2.73,2.79,3.25,3.25,0,0,0,2.14-.86l.44.73a4.07,4.07,0,0,1-2.61,1,3.56,3.56,0,0,1-3.68-3.68A3.43,3.43,0,0,1,190.05,126.55Zm2,3a2,2,0,0,0-2-2.15,2.38,2.38,0,0,0-2.42,2.15Z" transform="translate(-34.33 -14.63)"/><path d="M203.72,130.62h-4l-1.12,3.14h-1l3.61-9.85h1l3.61,9.85h-1Zm-2-5.68s-.21.81-.38,1.27L200,129.78h3.39l-1.29-3.57c-.17-.46-.38-1.27-.38-1.27Z" transform="translate(-34.33 -14.63)"/><path d="M207.2,126.72h.94V128a5.24,5.24,0,0,1,0,.56h0a2.39,2.39,0,0,1,2.22-1.87,2,2,0,0,1,.38,0v.94a2.29,2.29,0,0,0-.35,0,2.24,2.24,0,0,0-2,1.82,4.64,4.64,0,0,0-.2,1.37v3h-1Z" transform="translate(-34.33 -14.63)"/><path d="M212.45,127.6h-.93v-.8h.94v-2h.94v2h1.77v.8H213.4v3.5c0,1.65,1,1.86,1.58,1.86a2.4,2.4,0,0,0,.33,0v.85a2.45,2.45,0,0,1-.41,0c-.81,0-2.45-.27-2.45-2.62Z" transform="translate(-34.33 -14.63)"/><path d="M216.82,132.22a3,3,0,0,0,2.1.86c.75,0,1.41-.38,1.41-1.12,0-1.55-3.79-1.17-3.79-3.46,0-1.27,1.13-2,2.4-2a3,3,0,0,1,2.18.77l-.44.73a2.48,2.48,0,0,0-1.76-.65c-.72,0-1.4.31-1.4,1.1,0,1.55,3.79,1.13,3.79,3.46,0,1.14-1,2-2.41,2a3.57,3.57,0,0,1-2.6-1Z" transform="translate(-34.33 -14.63)"/><path d="M179.77,56.11q-23.43,0-46.86,0t-46.86,0c-1,0-2.59-.49-2.63,1.12S85,58.5,86,58.5q46.86,0,93.72,0c1,0,2.6.34,2.63-1.2S180.77,56.11,179.77,56.11Z" transform="translate(-34.33 -14.63)"/><g id="layer1"><g id="path4863"><path d="M156.67,22.68a1.88,1.88,0,0,0-1.86,1.86V48.79H169.6a1.77,1.77,0,1,0,0-3.54l.06.06c-.17,0-.34-.06-.57-.06H158.51V24.54a1.87,1.87,0,0,0-1.84-1.86ZM145.78,45.93l-.36-.26a1.59,1.59,0,0,1-.85-1.3V30c0-5-5-7.25-10-7.25-3.59,0-6.2.82-8.43,2.69A1.87,1.87,0,0,0,126,28a1.8,1.8,0,0,0,2.55.23c1.72-1.5,3.45-2.06,6.42-2.06,2.32,0,5.8,1.21,5.83,3.81V32.8c-.29.12-.65.23-.65.23a30.4,30.4,0,0,1-6,.31c-5,0-10.38,2-10.38,7.81v0c0,4.64,4,8,9.47,8a13.47,13.47,0,0,0,8.12-2.74A4.82,4.82,0,0,0,143.66,49a2,2,0,0,0,2.21-.34,2,2,0,0,0,.51-1.3v0a1.94,1.94,0,0,0-.6-1.36Zm-5-3.59a9.8,9.8,0,0,1-7.05,3.33c-2.88,0-6.08-1.3-6.31-4.13v0c0-3.09,2.1-4.5,6.79-4.5l4.39-.11a13,13,0,0,0,2.18-.37Zm16.46,25.17a1.78,1.78,0,0,1-1.78,1.75h-6.09V90.05a1.8,1.8,0,0,1-.56,1.3,1.84,1.84,0,0,1-3.14-1.3V69.26h-6.11a1.74,1.74,0,1,1,.05-3.48h15.85A1.78,1.78,0,0,1,157.24,67.51Zm4.86,5.29a6.69,6.69,0,0,0,4.9,6.56,33.37,33.37,0,0,0,4.44,1l1.53.31.08,0c2,.39,4,.85,3.85,3.82-.17,2.71-3.2,3.93-5.94,3.93a9.41,9.41,0,0,1-5.89-2.12,1.8,1.8,0,0,0-2.6,0,1.64,1.64,0,0,0-.54,1.27,1.81,1.81,0,0,0,.54,1.33l.09.06c1.83,1.72,5.43,2.94,8.68,2.94,5.35,0,9.48-3.4,9.48-7.78,0-4.78-3.11-6.17-5.83-6.82-1.44-.34-2.09-.45-2.74-.56a13.39,13.39,0,0,1-2.47-.51h-.08c-1.95-.48-3.68-1.11-3.68-3.54,0-1.92,2.43-3.85,4.87-3.85,2.6,0,4,.37,5.37,1.56a1.79,1.79,0,0,0,2.46-.11,1.75,1.75,0,0,0,.51-1.22V69a1.75,1.75,0,0,0-.56-1.25l-.31-.23.05.06a10.56,10.56,0,0,0-7.13-2.18c-5,0-9.08,3.31-9.08,7.39ZM104.39,89.35s-10.1-23.57-10.1-23.57h-3.5l-.09.28c-3.82,8.69-10.21,23.26-10.21,23.29a1.79,1.79,0,0,0,1,2.4,1.83,1.83,0,0,0,2.38-1s2.2-5.18,2.77-6.45H98.25L101,90.79a1.85,1.85,0,0,0,2.38,1,1.9,1.9,0,0,0,1-2.43ZM88.07,80.83c.48-1,3.73-8.68,4.41-10.3.68,1.62,3.85,9.25,4.3,10.3Zm43.82,8.23-.08-.08s-4.81-6.74-6.2-8.77a6.94,6.94,0,0,0,5.71-7.13c0-4.84-3.33-7.3-10-7.3h-8.63v24.3a1.91,1.91,0,0,0,.57,1.33,1.84,1.84,0,0,0,1.33.51,1.8,1.8,0,0,0,1.81-1.84V80.6h5.2c.26.43,7.22,10.47,7.22,10.47a1.82,1.82,0,0,0,1.18.82,1.76,1.76,0,0,0,1.36-.28,1.85,1.85,0,0,0,.79-1.53,1.67,1.67,0,0,0-.28-1ZM121.4,77.27h-5v-8h4.92c3.9,0,6.28.71,6.28,4,0,2.71-1.9,4-6.22,4ZM95.8,36.06a13.24,13.24,0,0,0,13.26,13.09,13,13,0,0,0,8.29-2.85.11.11,0,0,1,.06-.09,1.77,1.77,0,0,0,.65-1.38,1.69,1.69,0,0,0-.4-1.11,1.79,1.79,0,0,0-2.51-.25l-.06.05a9.12,9.12,0,0,1-6,2.15,9.73,9.73,0,0,1,0-19.46,9.05,9.05,0,0,1,6,2.21,1.85,1.85,0,0,0,2.57-.23,1.84,1.84,0,0,0-.22-2.54,12.83,12.83,0,0,0-8.35-2.95A13.41,13.41,0,0,0,95.8,36.06Z" transform="translate(-34.33 -14.63)"/></g></g><path d="M59.52,102.85A8.16,8.16,0,0,1,52.8,105a8,8,0,0,1-3.58-1.35,12,12,0,0,1-3-2.91h0a9.53,9.53,0,0,1,7-1.33,10.88,10.88,0,0,1,3.35,1.22A9.64,9.64,0,0,1,59.52,102.85Z" transform="translate(-34.33 -14.63)"/><path d="M62.09,100.47a10.53,10.53,0,0,0,3.2-6.06,12,12,0,0,0,0-3.11,6.15,6.15,0,0,0-1.12-2.73,8.82,8.82,0,0,0-3.89,5.57,7.63,7.63,0,0,0,.07,3.36A8.26,8.26,0,0,0,62.09,100.47Z" transform="translate(-34.33 -14.63)"/><path d="M52.5,93.68h0a8,8,0,0,1-7,.81A9.66,9.66,0,0,1,39.85,89,9.5,9.5,0,0,1,47,89.1,12.68,12.68,0,0,1,50,90.92a9.6,9.6,0,0,1,2.46,2.76Z" transform="translate(-34.33 -14.63)"/><path d="M55.48,91.83h0a10.71,10.71,0,0,0,4.31-5.34c.63-2,.92-4.14,0-5.94a8.89,8.89,0,0,0-4.9,4.73,6.79,6.79,0,0,0-.54,3.29A8,8,0,0,0,55.48,91.83Z" transform="translate(-34.33 -14.63)"/><path d="M47.37,83.33a8.08,8.08,0,0,1-7-.54,9.64,9.64,0,0,1-4.51-6.43h0a9.42,9.42,0,0,1,7,1.41A11.57,11.57,0,0,1,47.37,83.33Z" transform="translate(-34.33 -14.63)"/><path d="M50.64,82.09h0a10.69,10.69,0,0,0,5.27-4.43,8,8,0,0,0,1.16-5.82,8.82,8.82,0,0,0-5.71,3.71A7.11,7.11,0,0,0,50.64,82.09Z" transform="translate(-34.33 -14.63)"/><path d="M44.31,72.19a8,8,0,0,1-6.77-1.87,9.62,9.62,0,0,1-3.21-7.16h0a9.43,9.43,0,0,1,6.57,2.71A11.42,11.42,0,0,1,44.31,72.19Z" transform="translate(-34.33 -14.63)"/><path d="M47.76,71.6a10.71,10.71,0,0,0,6-3.35A8.07,8.07,0,0,0,56,62.75a8.91,8.91,0,0,0-6.32,2.55A7.19,7.19,0,0,0,47.76,71.6Z" transform="translate(-34.33 -14.63)"/><path d="M43.43,60.68h0a8.06,8.06,0,0,1-6.29-3.12,9.59,9.59,0,0,1-1.79-7.64h0a9.48,9.48,0,0,1,5.93,3.9A11.42,11.42,0,0,1,43.43,60.68Z" transform="translate(-34.33 -14.63)"/><path d="M46.93,60.74a10.73,10.73,0,0,0,6.55-2.14,8.1,8.1,0,0,0,3.25-5h0A8.9,8.9,0,0,0,50,54.94a7.15,7.15,0,0,0-3.11,5.8Z" transform="translate(-34.33 -14.63)"/><path d="M44.75,49.2A8,8,0,0,1,39.17,45a9.59,9.59,0,0,1-.31-7.85,9.42,9.42,0,0,1,5.08,5A11.42,11.42,0,0,1,44.75,49.2Z" transform="translate(-34.33 -14.63)"/><path d="M48.17,49.93A10.72,10.72,0,0,0,55,49.07a8.11,8.11,0,0,0,4.14-4.26,8.9,8.9,0,0,0-6.82,0A7.19,7.19,0,0,0,48.17,49.93Z" transform="translate(-34.33 -14.63)"/><path d="M48.22,38.18a8,8,0,0,1-4.66-5.24,8.43,8.43,0,0,1-.26-3.85,11.51,11.51,0,0,1,1.48-3.91,9.38,9.38,0,0,1,4,5.83A11.32,11.32,0,0,1,48.22,38.18Z" transform="translate(-34.33 -14.63)"/><path d="M51.45,39.55a10.74,10.74,0,0,0,6.87.47,10.18,10.18,0,0,0,2.8-1.27,6.2,6.2,0,0,0,2.09-2.11,8.88,8.88,0,0,0-6.71-1.3A7.18,7.18,0,0,0,51.45,39.55Z" transform="translate(-34.33 -14.63)"/><path d="M53.74,28h0a8,8,0,0,1-3.56-6,9.47,9.47,0,0,1,.45-3.84,11.73,11.73,0,0,1,2.22-3.53,9.28,9.28,0,0,1,2.82,6.48,14.2,14.2,0,0,1-.37,3.58A9.35,9.35,0,0,1,53.74,28Z" transform="translate(-34.33 -14.63)"/><path d="M56.64,30a10.92,10.92,0,0,0,6.68,1.79,8.77,8.77,0,0,0,3-.74,6.17,6.17,0,0,0,2.48-1.66h0a9.06,9.06,0,0,0-6.36-2.57,6.37,6.37,0,0,0-3.19.88A8.16,8.16,0,0,0,56.64,30Z" transform="translate(-34.33 -14.63)"/><path d="M195.58,100.47a10.53,10.53,0,0,1-3.2-6.06,11.57,11.57,0,0,1,0-3.11,6,6,0,0,1,1.12-2.73,8.82,8.82,0,0,1,3.89,5.57,7.63,7.63,0,0,1-.08,3.36A8.38,8.38,0,0,1,195.58,100.47Z" transform="translate(-34.33 -14.63)"/><path d="M198.14,102.85a8.19,8.19,0,0,0,6.73,2.15,7.93,7.93,0,0,0,3.57-1.35,11.71,11.71,0,0,0,3-2.91h0a9.5,9.5,0,0,0-7-1.33,10.88,10.88,0,0,0-3.35,1.22A9.68,9.68,0,0,0,198.14,102.85Z" transform="translate(-34.33 -14.63)"/><path d="M202.19,91.83a10.61,10.61,0,0,1-4.31-5.34c-.63-2-.93-4.14,0-5.94a8.84,8.84,0,0,1,4.89,4.73,6.8,6.8,0,0,1,.55,3.29,8.14,8.14,0,0,1-1.1,3.26Z" transform="translate(-34.33 -14.63)"/><path d="M205.16,93.68h0a8,8,0,0,0,7,.81A9.69,9.69,0,0,0,217.82,89a9.5,9.5,0,0,0-7.11.06,12.74,12.74,0,0,0-3.09,1.82A9.75,9.75,0,0,0,205.16,93.68Z" transform="translate(-34.33 -14.63)"/><path d="M207,82.09h0a10.69,10.69,0,0,1-5.27-4.43,8,8,0,0,1-1.17-5.82h0a8.84,8.84,0,0,1,5.72,3.71A7.14,7.14,0,0,1,207,82.09Z" transform="translate(-34.33 -14.63)"/><path d="M210.3,83.33a8.08,8.08,0,0,0,7-.54,9.68,9.68,0,0,0,4.51-6.43h0a9.44,9.44,0,0,0-7,1.41A11.6,11.6,0,0,0,210.3,83.33Z" transform="translate(-34.33 -14.63)"/><path d="M209.9,71.6a10.71,10.71,0,0,1-6-3.35,8,8,0,0,1-2.25-5.5A8.87,8.87,0,0,1,208,65.3,7.16,7.16,0,0,1,209.9,71.6Z" transform="translate(-34.33 -14.63)"/><path d="M213.35,72.19a8,8,0,0,0,6.78-1.87,9.61,9.61,0,0,0,3.2-7.16h0a9.4,9.4,0,0,0-6.56,2.71A11.44,11.44,0,0,0,213.35,72.19Z" transform="translate(-34.33 -14.63)"/><path d="M210.74,60.74a10.71,10.71,0,0,1-6.55-2.14,8.06,8.06,0,0,1-3.25-5,8.92,8.92,0,0,1,6.69,1.32,7.18,7.18,0,0,1,3.11,5.8Z" transform="translate(-34.33 -14.63)"/><path d="M214.23,60.68h0a8.06,8.06,0,0,0,6.3-3.12,9.63,9.63,0,0,0,1.79-7.64,9.5,9.5,0,0,0-5.94,3.9A11.49,11.49,0,0,0,214.23,60.68Z" transform="translate(-34.33 -14.63)"/><path d="M209.49,49.93a10.69,10.69,0,0,1-6.83-.86,8.11,8.11,0,0,1-4.14-4.26,8.9,8.9,0,0,1,6.82,0A7.16,7.16,0,0,1,209.49,49.93Z" transform="translate(-34.33 -14.63)"/><path d="M212.92,49.2A8,8,0,0,0,218.5,45a9.55,9.55,0,0,0,.3-7.85,9.44,9.44,0,0,0-5.07,5A11.42,11.42,0,0,0,212.92,49.2Z" transform="translate(-34.33 -14.63)"/><path d="M206.22,39.55a10.77,10.77,0,0,1-6.88.47,10.46,10.46,0,0,1-2.8-1.27,6.26,6.26,0,0,1-2.08-2.11,8.87,8.87,0,0,1,6.7-1.3A7.18,7.18,0,0,1,206.22,39.55Z" transform="translate(-34.33 -14.63)"/><path d="M209.44,38.18a8,8,0,0,0,4.66-5.24,8.43,8.43,0,0,0,.27-3.85,11.51,11.51,0,0,0-1.48-3.91,9.38,9.38,0,0,0-4,5.83A11.38,11.38,0,0,0,209.44,38.18Z" transform="translate(-34.33 -14.63)"/><path d="M201,30a10.94,10.94,0,0,1-6.68,1.79,8.71,8.71,0,0,1-3-.74,6.17,6.17,0,0,1-2.48-1.66h0a9.06,9.06,0,0,1,6.36-2.57,6.39,6.39,0,0,1,3.19.88A8.39,8.39,0,0,1,201,30Z" transform="translate(-34.33 -14.63)"/><path d="M203.93,28h0a8,8,0,0,0,3.56-6,9.48,9.48,0,0,0-.46-3.84,11.69,11.69,0,0,0-2.21-3.53A9.33,9.33,0,0,0,202,21.11a15.18,15.18,0,0,0,.37,3.58A9.55,9.55,0,0,0,203.93,28Z" transform="translate(-34.33 -14.63)"/></svg>