<svg id="Layer_1" data-name="Layer 1" xmlns="http://www.w3.org/2000/svg" viewBox="0 0 231.28 144.07"><title>idf certificate emre devseren</title><path d="M29.62,123.91h1v9.85h-1Z" transform="translate(-10.38 -14.63)"/><path d="M33.16,126.72h.94v1a5.49,5.49,0,0,1,0,.56h0a3,3,0,0,1,2.82-1.78c1.73,0,2.35,1,2.35,2.73v4.48h-1v-4.23c0-1.1-.17-2.09-1.53-2.09a2.68,2.68,0,0,0-2.56,2,3.33,3.33,0,0,0-.12,1v3.37h-1Z" transform="translate(-10.38 -14.63)"/><path d="M41.73,127.6h-.92v-.8h.93v-2h.94v2h1.77v.8H42.68v3.5c0,1.65,1,1.86,1.59,1.86a2.33,2.33,0,0,0,.32,0v.85a2.45,2.45,0,0,1-.41,0c-.81,0-2.45-.27-2.45-2.62Z" transform="translate(-10.38 -14.63)"/><path d="M49.14,126.55a2.94,2.94,0,0,1,2.94,3.25c0,.17,0,.49,0,.49H46.64a2.66,2.66,0,0,0,2.74,2.79,3.28,3.28,0,0,0,2.14-.86L52,133a4,4,0,0,1-2.6,1,3.56,3.56,0,0,1-3.69-3.68A3.44,3.44,0,0,1,49.14,126.55Zm2,3a2,2,0,0,0-2-2.15,2.38,2.38,0,0,0-2.42,2.15Z" transform="translate(-10.38 -14.63)"/><path d="M53.9,126.72h.93V128c0,.31,0,.56,0,.56h0a2.41,2.41,0,0,1,2.23-1.87,2,2,0,0,1,.38,0v.94a2.29,2.29,0,0,0-.35,0A2.26,2.26,0,0,0,55,129.42a4.62,4.62,0,0,0-.19,1.37v3h-1Z" transform="translate(-10.38 -14.63)"/><path d="M62.62,129.41H63v-.19c0-1.36-.74-1.82-1.75-1.82a3.45,3.45,0,0,0-2,.67l-.45-.72a4.07,4.07,0,0,1,2.51-.8,2.39,2.39,0,0,1,2.63,2.7v4.51h-.91V133a5.26,5.26,0,0,1,0-.59h0a2.53,2.53,0,0,1-2.35,1.53,2.18,2.18,0,0,1-2.39-2.09C58.31,129.46,61.4,129.41,62.62,129.41Zm-1.77,3.71A2.45,2.45,0,0,0,63,130.5v-.31h-.4c-1.11,0-3.32,0-3.32,1.6A1.39,1.39,0,0,0,60.85,133.12Z" transform="translate(-10.38 -14.63)"/><path d="M69.37,126.55a3.45,3.45,0,0,1,2.57,1l-.49.71a3,3,0,0,0-2-.85,2.7,2.7,0,0,0-2.75,2.83,2.73,2.73,0,0,0,2.77,2.83,3.11,3.11,0,0,0,2.26-1l.43.74a3.74,3.74,0,0,1-2.74,1.11,3.69,3.69,0,1,1,0-7.38Z" transform="translate(-10.38 -14.63)"/><path d="M74.11,127.6h-.92v-.8h.94v-2h.93v2h1.77v.8H75.06v3.5c0,1.65,1.06,1.86,1.59,1.86a2.33,2.33,0,0,0,.32,0v.85a2.31,2.31,0,0,1-.41,0c-.81,0-2.45-.27-2.45-2.62Z" transform="translate(-10.38 -14.63)"/><path d="M78.51,123.91h1v1.2h-1Zm0,2.81h.95v7h-.95Z" transform="translate(-10.38 -14.63)"/><path d="M85,126.55a3.69,3.69,0,1,1-3.72,3.65A3.65,3.65,0,0,1,85,126.55Zm0,6.53a2.79,2.79,0,0,0,2.75-2.88,2.75,2.75,0,1,0-5.49,0A2.78,2.78,0,0,0,85,133.08Z" transform="translate(-10.38 -14.63)"/><path d="M90.49,126.72h.94v1a5.49,5.49,0,0,1,0,.56h0a3,3,0,0,1,2.82-1.78c1.73,0,2.35,1,2.35,2.73v4.48h-.95v-4.23c0-1.1-.17-2.09-1.53-2.09a2.67,2.67,0,0,0-2.56,2,3.33,3.33,0,0,0-.12,1v3.37h-1Z" transform="translate(-10.38 -14.63)"/><path d="M102.84,123.91H106a4.93,4.93,0,1,1,0,9.85h-3.18Zm3.08,9a4.06,4.06,0,0,0,0-8.11h-2.11v8.11Z" transform="translate(-10.38 -14.63)"/><path d="M115.9,126.55c1.95,0,2.94,1.5,2.94,3.25,0,.17,0,.49,0,.49h-5.41a2.65,2.65,0,0,0,2.73,2.79,3.25,3.25,0,0,0,2.14-.86l.44.73a4,4,0,0,1-2.61,1,3.56,3.56,0,0,1-3.68-3.68A3.44,3.44,0,0,1,115.9,126.55Zm2,3a2,2,0,0,0-2-2.15,2.39,2.39,0,0,0-2.42,2.15Z" transform="translate(-10.38 -14.63)"/><path d="M120.6,132.22a3,3,0,0,0,2.11.86c.75,0,1.41-.38,1.41-1.12,0-1.55-3.8-1.17-3.8-3.46,0-1.27,1.14-2,2.41-2a3,3,0,0,1,2.18.77l-.44.73a2.48,2.48,0,0,0-1.76-.65c-.72,0-1.4.31-1.4,1.1,0,1.55,3.79,1.13,3.79,3.46,0,1.14-1,2-2.41,2a3.57,3.57,0,0,1-2.6-1Z" transform="translate(-10.38 -14.63)"/><path d="M126.83,123.91h1v1.2h-1Zm0,2.81h1v7h-1Z" transform="translate(-10.38 -14.63)"/><path d="M132.55,135.85c1.37,0,2.46-.65,2.46-2.21V133a4.56,4.56,0,0,1,0-.5h0a2.31,2.31,0,0,1-2.22,1.23c-1.89,0-3.14-1.5-3.14-3.61s1.16-3.56,3-3.56a2.34,2.34,0,0,1,2.33,1.17h0a1,1,0,0,1,0-.23v-.77H136v6.87c0,2.25-1.66,3.11-3.38,3.11a5.15,5.15,0,0,1-2.31-.56l.36-.78A4.34,4.34,0,0,0,132.55,135.85Zm2.48-5.74c0-2.06-1-2.69-2.23-2.69s-2.17,1-2.17,2.67.91,2.78,2.31,2.78C134.05,132.87,135,132.18,135,130.11Z" transform="translate(-10.38 -14.63)"/><path d="M138.26,126.72h.94v1a5.49,5.49,0,0,1,0,.56h0a3,3,0,0,1,2.81-1.78c1.74,0,2.36,1,2.36,2.73v4.48h-1v-4.23c0-1.1-.16-2.09-1.52-2.09a2.69,2.69,0,0,0-2.57,2,3.72,3.72,0,0,0-.11,1v3.37h-1Z" transform="translate(-10.38 -14.63)"/><path d="M150.61,123.91h5.18v.87h-4.22v3.7h3.62v.87h-3.62v4.41h-1Z" transform="translate(-10.38 -14.63)"/><path d="M160.73,126.55A3.69,3.69,0,1,1,157,130.2,3.65,3.65,0,0,1,160.73,126.55Zm0,6.53a2.79,2.79,0,0,0,2.75-2.88,2.75,2.75,0,1,0-5.5,0A2.79,2.79,0,0,0,160.73,133.08Z" transform="translate(-10.38 -14.63)"/><path d="M166.13,126.72h1V131c0,1.1.17,2.08,1.53,2.08a2.74,2.74,0,0,0,2.61-2.94v-3.37h.95v7h-.92v-1c0-.31,0-.56,0-.56h0a3,3,0,0,1-2.76,1.78c-1.66,0-2.36-.9-2.36-2.73Z" transform="translate(-10.38 -14.63)"/><path d="M174.46,126.72h.94v1a5.49,5.49,0,0,1,0,.56h0a3,3,0,0,1,2.82-1.78c1.73,0,2.35,1,2.35,2.73v4.48h-.95v-4.23c0-1.1-.17-2.09-1.53-2.09a2.68,2.68,0,0,0-2.56,2,3.33,3.33,0,0,0-.12,1v3.37h-.95Z" transform="translate(-10.38 -14.63)"/><path d="M185.47,126.55a2.47,2.47,0,0,1,2.29,1.33h0a4.78,4.78,0,0,1,0-.53v-3.44h1v9.85h-.93V133a3.8,3.8,0,0,1,0-.51h0a2.54,2.54,0,0,1-2.42,1.42c-1.89,0-3.07-1.51-3.07-3.7S183.62,126.55,185.47,126.55Zm0,6.53c1.18,0,2.28-.84,2.28-2.85,0-1.43-.73-2.83-2.24-2.83-1.25,0-2.27,1-2.27,2.83S184.19,133.08,185.51,133.08Z" transform="translate(-10.38 -14.63)"/><path d="M194.75,129.41h.39v-.19c0-1.36-.74-1.82-1.75-1.82a3.45,3.45,0,0,0-2,.67l-.45-.72a4.07,4.07,0,0,1,2.51-.8,2.39,2.39,0,0,1,2.63,2.7v4.51h-.91V133a5.26,5.26,0,0,1,0-.59h0a2.53,2.53,0,0,1-2.35,1.53,2.18,2.18,0,0,1-2.39-2.09C190.44,129.46,193.53,129.41,194.75,129.41ZM193,133.12a2.45,2.45,0,0,0,2.16-2.62v-.31h-.4c-1.11,0-3.32,0-3.32,1.6A1.39,1.39,0,0,0,193,133.12Z" transform="translate(-10.38 -14.63)"/><path d="M198.51,127.6h-.92v-.8h.94v-2h.94v2h1.76v.8h-1.76v3.5c0,1.65,1.05,1.86,1.58,1.86a2.15,2.15,0,0,0,.32,0v.85a2.25,2.25,0,0,1-.4,0,2.29,2.29,0,0,1-2.46-2.62Z" transform="translate(-10.38 -14.63)"/><path d="M202.91,123.91h1v1.2h-1Zm0,2.81h.95v7h-.95Z" transform="translate(-10.38 -14.63)"/><path d="M209.39,126.55a3.69,3.69,0,1,1-3.72,3.65A3.65,3.65,0,0,1,209.39,126.55Zm0,6.53a2.79,2.79,0,0,0,2.75-2.88,2.75,2.75,0,1,0-5.49,0A2.78,2.78,0,0,0,209.39,133.08Z" transform="translate(-10.38 -14.63)"/><path d="M214.89,126.72h.94v1a5.49,5.49,0,0,1,0,.56h0a3,3,0,0,1,2.82-1.78c1.73,0,2.35,1,2.35,2.73v4.48h-.95v-4.23c0-1.1-.17-2.09-1.53-2.09a2.68,2.68,0,0,0-2.56,2,3.33,3.33,0,0,0-.11,1v3.37h-1Z" transform="translate(-10.38 -14.63)"/><path d="M10.38,145.91h3.37a2.43,2.43,0,0,1,2.66,2.48,2.28,2.28,0,0,1-1.25,2.15v0A2.4,2.4,0,0,1,16.81,153a2.71,2.71,0,0,1-2.95,2.76H10.38Zm3.37,4.28a1.61,1.61,0,0,0,1.66-1.73,1.57,1.57,0,0,0-1.68-1.68H11.35v3.41Zm.12,4.7A1.8,1.8,0,0,0,15.81,153a1.84,1.84,0,0,0-2-1.94H11.35v3.86Z" transform="translate(-10.38 -14.63)"/><path d="M21.85,148.55c1.95,0,2.94,1.5,2.94,3.25,0,.17,0,.49,0,.49H19.36a2.65,2.65,0,0,0,2.73,2.79,3.25,3.25,0,0,0,2.14-.86l.44.73a4,4,0,0,1-2.61,1,3.56,3.56,0,0,1-3.68-3.68A3.44,3.44,0,0,1,21.85,148.55Zm2,2.95a2,2,0,0,0-2-2.15,2.38,2.38,0,0,0-2.42,2.15Z" transform="translate(-10.38 -14.63)"/><path d="M29.82,148.55a3.48,3.48,0,0,1,2.58,1l-.49.71a3,3,0,0,0-2.06-.85,2.7,2.7,0,0,0-2.75,2.83,2.73,2.73,0,0,0,2.77,2.83,3.11,3.11,0,0,0,2.26-1l.43.74a3.74,3.74,0,0,1-2.74,1.11,3.69,3.69,0,1,1,0-7.38Z" transform="translate(-10.38 -14.63)"/><path d="M37.5,148.55a3.69,3.69,0,1,1-3.72,3.65A3.65,3.65,0,0,1,37.5,148.55Zm0,6.53a2.79,2.79,0,0,0,2.75-2.88,2.75,2.75,0,1,0-5.49,0A2.78,2.78,0,0,0,37.5,155.08Z" transform="translate(-10.38 -14.63)"/><path d="M43,148.72h.94v1.05c0,.3,0,.56,0,.56h0a2.88,2.88,0,0,1,2.55-1.78,2,2,0,0,1,2.19,1.76h0a2.85,2.85,0,0,1,2.59-1.76c1.71,0,2.34,1,2.34,2.73v4.48h-1v-4.24c0-1.15-.23-2.1-1.52-2.1a2.51,2.51,0,0,0-2.23,2,3.24,3.24,0,0,0-.13,1v3.33h-.95v-4.24c0-1.07-.15-2.1-1.48-2.1a2.58,2.58,0,0,0-2.31,2.07,3.62,3.62,0,0,0-.1.94v3.33H43Z" transform="translate(-10.38 -14.63)"/><path d="M58.81,148.55c1.95,0,2.94,1.5,2.94,3.25,0,.17,0,.49,0,.49H56.32a2.65,2.65,0,0,0,2.73,2.79,3.25,3.25,0,0,0,2.14-.86l.44.73a4.07,4.07,0,0,1-2.61,1,3.56,3.56,0,0,1-3.68-3.68A3.44,3.44,0,0,1,58.81,148.55Zm2,2.95a2,2,0,0,0-2-2.15,2.38,2.38,0,0,0-2.42,2.15Z" transform="translate(-10.38 -14.63)"/><path d="M71.08,151.41h.39v-.19c0-1.36-.74-1.82-1.75-1.82a3.41,3.41,0,0,0-2,.67l-.45-.72a4,4,0,0,1,2.51-.8,2.4,2.4,0,0,1,2.63,2.7v4.51h-.91V155a5.26,5.26,0,0,1,0-.59h0a2.55,2.55,0,0,1-2.35,1.53,2.19,2.19,0,0,1-2.4-2.09C66.76,151.46,69.86,151.41,71.08,151.41Zm-1.77,3.71a2.45,2.45,0,0,0,2.16-2.62v-.31h-.41c-1.1,0-3.32,0-3.32,1.6A1.4,1.4,0,0,0,69.31,155.12Z" transform="translate(-10.38 -14.63)"/><path d="M78.54,145.91h1v6.41A2.55,2.55,0,0,0,82.3,155a2.58,2.58,0,0,0,2.81-2.74v-6.38h1v6.42a3.77,3.77,0,0,1-7.53,0Z" transform="translate(-10.38 -14.63)"/><path d="M90.87,150.62,88,145.91h1.14l1.72,2.92c.3.5.65,1.13.65,1.13h0a11,11,0,0,1,.59-1.13l1.74-2.92H95l-2.89,4.71,3.15,5.14H94.16l-2-3.4c-.31-.51-.62-1.09-.62-1.09h0s-.29.58-.6,1.1l-2,3.39H87.73Z" transform="translate(-10.38 -14.63)"/><path d="M100.85,145.91H104a4.93,4.93,0,1,1,0,9.85h-3.18Zm3.08,9a4.06,4.06,0,0,0,0-8.11h-2.11v8.11Z" transform="translate(-10.38 -14.63)"/><path d="M113.92,148.55a2.94,2.94,0,0,1,2.94,3.25c0,.17,0,.49,0,.49h-5.41a2.65,2.65,0,0,0,2.73,2.79,3.29,3.29,0,0,0,2.15-.86l.43.73a4,4,0,0,1-2.61,1,3.56,3.56,0,0,1-3.68-3.68A3.44,3.44,0,0,1,113.92,148.55Zm2,2.95a2,2,0,0,0-2-2.15,2.39,2.39,0,0,0-2.43,2.15Z" transform="translate(-10.38 -14.63)"/><path d="M118.62,154.22a3,3,0,0,0,2.1.86c.76,0,1.41-.38,1.41-1.12,0-1.55-3.79-1.17-3.79-3.46,0-1.27,1.13-1.95,2.41-1.95a3,3,0,0,1,2.17.77l-.44.73a2.48,2.48,0,0,0-1.76-.65c-.72,0-1.4.31-1.4,1.1,0,1.55,3.79,1.13,3.79,3.46,0,1.14-1,2-2.41,2a3.6,3.6,0,0,1-2.6-1Z" transform="translate(-10.38 -14.63)"/><path d="M124.85,145.91h1v1.2h-1Zm0,2.81h1v7h-1Z" transform="translate(-10.38 -14.63)"/><path d="M130.56,157.85c1.37,0,2.47-.65,2.47-2.21V155c0-.26,0-.5,0-.5h0a2.33,2.33,0,0,1-2.23,1.23c-1.89,0-3.14-1.5-3.14-3.61s1.16-3.56,3.05-3.56a2.32,2.32,0,0,1,2.33,1.17h0a1,1,0,0,1,0-.23v-.77H134v6.87c0,2.25-1.65,3.11-3.38,3.11a5.18,5.18,0,0,1-2.31-.56l.37-.78A4.27,4.27,0,0,0,130.56,157.85Zm2.48-5.74c0-2.06-1-2.69-2.23-2.69s-2.17,1-2.17,2.67.91,2.78,2.31,2.78C132.06,154.87,133,154.18,133,152.11Z" transform="translate(-10.38 -14.63)"/><path d="M136.27,148.72h.94v1.05a5.49,5.49,0,0,1,0,.56h0a3,3,0,0,1,2.82-1.78c1.73,0,2.35,1,2.35,2.73v4.48h-.95v-4.23c0-1.1-.17-2.09-1.53-2.09a2.67,2.67,0,0,0-2.56,2,3.33,3.33,0,0,0-.12,1v3.37h-.95Z" transform="translate(-10.38 -14.63)"/><path d="M147.56,148.55a2.94,2.94,0,0,1,2.94,3.25c0,.17,0,.49,0,.49h-5.41a2.65,2.65,0,0,0,2.73,2.79,3.29,3.29,0,0,0,2.15-.86l.43.73a4,4,0,0,1-2.6,1,3.56,3.56,0,0,1-3.69-3.68A3.44,3.44,0,0,1,147.56,148.55Zm2,2.95a2,2,0,0,0-2-2.15,2.39,2.39,0,0,0-2.43,2.15Z" transform="translate(-10.38 -14.63)"/><path d="M152.31,148.72h.94V150c0,.31,0,.56,0,.56h0a2.4,2.4,0,0,1,2.23-1.87,2,2,0,0,1,.38,0v.94a2.29,2.29,0,0,0-.35,0,2.26,2.26,0,0,0-2,1.82,4.62,4.62,0,0,0-.19,1.37v3h-1Z" transform="translate(-10.38 -14.63)"/><path d="M161.39,149.6h-.89v-.8h.89v-.34a2.29,2.29,0,0,1,2.43-2.61,4.17,4.17,0,0,1,.44,0v.86a1.79,1.79,0,0,0-.34,0c-.54,0-1.58.19-1.58,1.76v.34h1.81v.8h-1.81v6.16h-1Z" transform="translate(-10.38 -14.63)"/><path d="M165.54,148.72h.94V150c0,.31,0,.56,0,.56h0a2.4,2.4,0,0,1,2.23-1.87,2,2,0,0,1,.38,0v.94a2.29,2.29,0,0,0-.35,0,2.26,2.26,0,0,0-2.05,1.82,4.62,4.62,0,0,0-.19,1.37v3h-1Z" transform="translate(-10.38 -14.63)"/><path d="M173.65,148.55a3.69,3.69,0,1,1-3.72,3.65A3.65,3.65,0,0,1,173.65,148.55Zm0,6.53a2.79,2.79,0,0,0,2.75-2.88,2.75,2.75,0,1,0-5.49,0A2.78,2.78,0,0,0,173.65,155.08Z" transform="translate(-10.38 -14.63)"/><path d="M179.15,148.72h.94v1.05a5.49,5.49,0,0,1,0,.56h0a2.88,2.88,0,0,1,2.55-1.78,2,2,0,0,1,2.19,1.76h0a2.86,2.86,0,0,1,2.59-1.76c1.71,0,2.34,1,2.34,2.73v4.48h-.95v-4.24c0-1.15-.24-2.1-1.53-2.1a2.5,2.5,0,0,0-2.22,2,3.24,3.24,0,0,0-.13,1v3.33H184v-4.24c0-1.07-.16-2.1-1.49-2.1a2.6,2.6,0,0,0-2.31,2.07,4.11,4.11,0,0,0-.1.94v3.33h-.95Z" transform="translate(-10.38 -14.63)"/><path d="M195.87,153.93a3.84,3.84,0,0,0,2.58,1.08,1.78,1.78,0,0,0,2-1.71c0-2.48-4.92-1.85-4.92-4.91a2.83,2.83,0,0,1,3.07-2.64,3.81,3.81,0,0,1,2.63.95l-.48.81a3.33,3.33,0,0,0-2.15-.84,1.89,1.89,0,0,0-2.08,1.7c0,2.34,4.92,1.66,4.92,4.9a2.71,2.71,0,0,1-3,2.66,4.36,4.36,0,0,1-3.13-1.26Z" transform="translate(-10.38 -14.63)"/><path d="M206.48,148.55a3.48,3.48,0,0,1,2.58,1l-.49.71a3,3,0,0,0-2.06-.85,2.7,2.7,0,0,0-2.75,2.83,2.74,2.74,0,0,0,2.78,2.83,3.08,3.08,0,0,0,2.25-1l.44.74a3.78,3.78,0,0,1-2.75,1.11,3.69,3.69,0,1,1,0-7.38Z" transform="translate(-10.38 -14.63)"/><path d="M211,148.72h.94V150a5.24,5.24,0,0,1,0,.56h0a2.4,2.4,0,0,1,2.23-1.87,1.94,1.94,0,0,1,.37,0v.94a2.13,2.13,0,0,0-.35,0,2.25,2.25,0,0,0-2,1.82,4.64,4.64,0,0,0-.2,1.37v3H211Z" transform="translate(-10.38 -14.63)"/><path d="M219.68,151.41h.4v-.19a1.59,1.59,0,0,0-1.76-1.82,3.4,3.4,0,0,0-2,.67l-.45-.72a4,4,0,0,1,2.51-.8,2.4,2.4,0,0,1,2.63,2.7v4.51h-.91V155a5.26,5.26,0,0,1,0-.59h0a2.55,2.55,0,0,1-2.36,1.53,2.18,2.18,0,0,1-2.39-2.09C215.37,151.46,218.46,151.41,219.68,151.41Zm-1.76,3.71a2.46,2.46,0,0,0,2.16-2.62v-.31h-.41c-1.11,0-3.32,0-3.32,1.6A1.4,1.4,0,0,0,217.92,155.12Z" transform="translate(-10.38 -14.63)"/><path d="M223.45,149.6h-.93v-.8h.94v-2h.94v2h1.77v.8H224.4v3.5c0,1.65,1,1.86,1.58,1.86a2.4,2.4,0,0,0,.33,0v.85a2.45,2.45,0,0,1-.41,0c-.81,0-2.45-.27-2.45-2.62Z" transform="translate(-10.38 -14.63)"/><path d="M231.08,148.55a3.48,3.48,0,0,1,2.58,1l-.49.71a3,3,0,0,0-2.06-.85,2.7,2.7,0,0,0-2.75,2.83,2.74,2.74,0,0,0,2.78,2.83,3.1,3.1,0,0,0,2.25-1l.44.74a3.78,3.78,0,0,1-2.75,1.11,3.69,3.69,0,1,1,0-7.38Z" transform="translate(-10.38 -14.63)"/><path d="M235.56,145.91h.95v3.81a5.41,5.41,0,0,1,0,.58h0a3,3,0,0,1,2.8-1.75c1.74,0,2.35,1,2.35,2.73v4.48h-.95v-4.23c0-1.1-.17-2.09-1.52-2.09a2.68,2.68,0,0,0-2.57,2,3.47,3.47,0,0,0-.11.94v3.37h-.95Z" transform="translate(-10.38 -14.63)"/><path d="M106.07,41.56a16.36,16.36,0,0,0,5.46-3.51,19.26,19.26,0,0,0,3.5,7.6,12.09,12.09,0,0,0-4.28,2.53,14.33,14.33,0,0,0-4.68-6.62m22.22-11.7a17.61,17.61,0,0,0-7,1,20.86,20.86,0,0,0-3.9-10.14c.2-.19,5.65-2.33,9.16-1.75s1.95,8,1.76,10.91Zm3.31,65.49,2.14,1.36H115.81c1.76-1,3.32-1.75,3.51-2.53a23.09,23.09,0,0,0,0-10.33,13.43,13.43,0,0,0-7.6-6.63,13.08,13.08,0,0,0-3.51,1.37l2,1.36a12.48,12.48,0,0,0-4.29,4.68,25.09,25.09,0,0,0-3.31-3.12A11.51,11.51,0,0,1,107,76.83l1,1a6.45,6.45,0,0,1,2.53-1.37,47,47,0,0,0-10.33-2.53v3.51a24.85,24.85,0,0,0-11.3,1.36c0-.39-1.17-5.84.19-9.16s8.77.2,11.89.78c-.19.78-.39,1.76-.58,2.54a31.18,31.18,0,0,1,7.4-.39,10.59,10.59,0,0,0-4.87-3.9A22.15,22.15,0,0,1,97.3,65L94.38,66.5a20.13,20.13,0,0,0-5.07-10.13,29.29,29.29,0,0,0,8.18-3.12c.39,2.73,1,8.38,2.93,10.92a5.92,5.92,0,0,0-3.12,1,20.25,20.25,0,0,0,6.63,2.92,7.18,7.18,0,0,1,0-2.92h-1.37a14.93,14.93,0,0,1,.2-5.07,8.65,8.65,0,0,1,3.89.39,10.57,10.57,0,0,0-1.17,4.87h-1.55a5.75,5.75,0,0,0,.77,3.12,11.06,11.06,0,0,1,6.24,4.88l5.26,1.36a6.24,6.24,0,0,0-.58-2.73l-1.37.39a9,9,0,0,0-2.33-4.48,13.24,13.24,0,0,1,3.89-1.37,14.1,14.1,0,0,1,1.37,4.88h-1.56a8.79,8.79,0,0,1,1.17,3.11l3.12,1.37a17.46,17.46,0,0,0-4.1-12.67l-3.11,2.53c-1-4.09-7-9.35-7-9.35a24.67,24.67,0,0,0,6.43-4.68c3.7,2,6.43,7.6,7,9.16l-2.93,1.56,3.51,2.92,1.37,2A7.66,7.66,0,0,0,123,65l-1.94-.59a15.42,15.42,0,0,0,2.53-6.43,9.79,9.79,0,0,0,4.48,1.75,13.49,13.49,0,0,1-2.34,6.63l-2-1a8.37,8.37,0,0,1-1.94,3.32c1.16,2.53,1.94,5.46,3.11,8.18,7-5.84,5.07-16.95,3.71-22l-3.32,2.53a26.32,26.32,0,0,0-9.16-8.77c.2-.19,4.29-5.26,8.19-6.23s5.85,7.6,7.6,10.91l-2.53,1.37a24.9,24.9,0,0,1,3.7,8.77l3.12-2.54-1.37-.58a11.54,11.54,0,0,1,4.49-4.68,15.36,15.36,0,0,0,3.31,2.92,12.4,12.4,0,0,0-4.29,4.68l-1.75-1.75a22.44,22.44,0,0,0-3.32,6,22.58,22.58,0,0,1-.58,7.21,14.64,14.64,0,0,1,6.43-2,8,8,0,0,1,4.09-5.26L141.15,65c2.34-2.34,6.82-6.63,9.35-7.22a20.62,20.62,0,0,1,5.27,7.6,22.74,22.74,0,0,0-10.14,5.07l-1.75-2.53a8.63,8.63,0,0,0-2.15,4.68,45.66,45.66,0,0,1,9,.39,9.54,9.54,0,0,0,.19-3.32c1.56-.19,7.8,0,11.31,2.54a27.44,27.44,0,0,0-1.37,8s-7.21-3.12-11.3-2.34a25.58,25.58,0,0,0,1-3.7,25.74,25.74,0,0,0-12.08,1.75l3.9.78a3.73,3.73,0,0,0,.39-1.37,10.89,10.89,0,0,1,5.65,3.12A7.55,7.55,0,0,0,146,82.1a14.25,14.25,0,0,0-5.65-2.93L141.73,77a23.75,23.75,0,0,0-5.26-.2L133.35,79a11.5,11.5,0,0,0-2.72,4.09,4.49,4.49,0,0,1,.77,2.73,3.66,3.66,0,0,1-1.94,3.7,9,9,0,0,0,2.14,5.85Zm-1.95-9.94a1.24,1.24,0,1,0-1.17,1.75,1.51,1.51,0,0,0,1.17-1.75Zm-1.36-3.51c-1.37.39-1.95,1.95-1.56,4.09a4.43,4.43,0,0,1,1.36-3.7c.59-.39.2-.58.2-.58h0ZM116.4,40.78a25.49,25.49,0,0,0-7.41-9c.2-.19,4.48-4.09,8-4.87s4.68,7.6,5.65,10.53l-3.31,1.36a5.41,5.41,0,0,1,0,3.51,17.58,17.58,0,0,0-.78-3.12ZM90.09,60.46c-.78,1-1,5.26-.78,8.19a32.79,32.79,0,0,0-11.5-1.37,19.53,19.53,0,0,0,.78-8.18C80.34,60.46,87.36,60.66,90.09,60.46Zm17.73-9.35a17.57,17.57,0,0,0-7.6,2.53c-.19-3.7-3.7-9-5.45-11.69,3.5-.2,9.74-3.32,9.74-3.32-.78,3.51,1.17,9,3.31,12.48ZM137.06,34a14.77,14.77,0,0,0-5.85,0c-.39-2.54-.78-7.8.19-9.94a16.86,16.86,0,0,1,7.61.58A19.15,19.15,0,0,0,137.06,34Zm-32.55,3.12s-3.31-4.88-6-5.85a16.33,16.33,0,0,0,3.9-4.29,14.08,14.08,0,0,1,5.84,5.85A15.38,15.38,0,0,0,104.51,37.08Zm38,13.44c3.71-2,7.41-9,7.41-9A26.91,26.91,0,0,0,156,47c-1.17,4.09-5.85,8.18-7.21,9a9.94,9.94,0,0,0-1.95-2.14,13.41,13.41,0,0,0-3.31,5.84A18.48,18.48,0,0,1,146,53.25ZM160.05,70.6c.39-1.37-1.36-5.85-2.92-9a29.43,29.43,0,0,0,12.67-4.09,24.18,24.18,0,0,0,2.92,9c-2.34-.39-9.94,2.54-12.67,4.1ZM154,54c3.12-2,7.41-6,8.38-9.35a30.14,30.14,0,0,0,7,7c-2.73,1.56-8.19,4.87-9.94,7.8A14.75,14.75,0,0,0,154,54ZM138.42,38.44c1.17-2.34,3.7-9,3.51-10.91a21.7,21.7,0,0,0,7.79,2.53,29.93,29.93,0,0,0-3.31,10.72c-2.53-1.37-6.62-2.92-7.79-2.53h0Zm-2.53,11.69a20.23,20.23,0,0,1-3.32,7.21,19.76,19.76,0,0,0,2-7.6L131.4,49c1.95-2.53,2.34-8.18,2.54-10.91a26.57,26.57,0,0,0,8.38,2.73c-2.34,1.95-3.9,7-4.29,10.52Zm-11.5-15.39a13.1,13.1,0,0,0,5.46-1.17,21.42,21.42,0,0,0,1.55,7.79A13.06,13.06,0,0,0,126,42.53a21.43,21.43,0,0,0-1.56-7.79Zm37.22,1.75a15.15,15.15,0,0,0-4.67,5.85,12.14,12.14,0,0,0-4.29-2c.78-2,2.14-5.85,3.51-7a14.88,14.88,0,0,1,5.45,2.93Zm-71.52,15c-1.17-3.12-6-6.82-6-6.82a22.57,22.57,0,0,0,4.67-3.9A15.22,15.22,0,0,1,95,47.21,20.17,20.17,0,0,0,90.09,51.5Z" transform="translate(-10.38 -14.63)" style="fill:#2b2b2b"/><path d="M59.52,102.85A8.16,8.16,0,0,1,52.8,105a8,8,0,0,1-3.58-1.35,12,12,0,0,1-3-2.91h0a9.53,9.53,0,0,1,7-1.33,10.88,10.88,0,0,1,3.35,1.22A9.64,9.64,0,0,1,59.52,102.85Z" transform="translate(-10.38 -14.63)"/><path d="M62.09,100.47a10.53,10.53,0,0,0,3.2-6.06,12,12,0,0,0,0-3.11,6.15,6.15,0,0,0-1.12-2.73,8.82,8.82,0,0,0-3.89,5.57,7.63,7.63,0,0,0,.07,3.36A8.26,8.26,0,0,0,62.09,100.47Z" transform="translate(-10.38 -14.63)"/><path d="M52.5,93.68h0a8,8,0,0,1-7,.81A9.66,9.66,0,0,1,39.85,89,9.5,9.5,0,0,1,47,89.1,12.68,12.68,0,0,1,50,90.92a9.6,9.6,0,0,1,2.46,2.76Z" transform="translate(-10.38 -14.63)"/><path d="M55.48,91.83h0a10.71,10.71,0,0,0,4.31-5.34c.63-2,.92-4.14,0-5.94a8.89,8.89,0,0,0-4.9,4.73,6.79,6.79,0,0,0-.54,3.29A8,8,0,0,0,55.48,91.83Z" transform="translate(-10.38 -14.63)"/><path d="M47.37,83.33a8.08,8.08,0,0,1-7-.54,9.64,9.64,0,0,1-4.51-6.43h0a9.42,9.42,0,0,1,7,1.41A11.57,11.57,0,0,1,47.37,83.33Z" transform="translate(-10.38 -14.63)"/><path d="M50.64,82.09h0a10.69,10.69,0,0,0,5.27-4.43,8,8,0,0,0,1.16-5.82,8.82,8.82,0,0,0-5.71,3.71A7.11,7.11,0,0,0,50.64,82.09Z" transform="translate(-10.38 -14.63)"/><path d="M44.31,72.19a8,8,0,0,1-6.77-1.87,9.62,9.62,0,0,1-3.21-7.16h0a9.43,9.43,0,0,1,6.57,2.71A11.42,11.42,0,0,1,44.31,72.19Z" transform="translate(-10.38 -14.63)"/><path d="M47.76,71.6a10.71,10.71,0,0,0,6-3.35A8.07,8.07,0,0,0,56,62.75a8.91,8.91,0,0,0-6.32,2.55A7.19,7.19,0,0,0,47.76,71.6Z" transform="translate(-10.38 -14.63)"/><path d="M43.43,60.68h0a8.06,8.06,0,0,1-6.29-3.12,9.59,9.59,0,0,1-1.79-7.64h0a9.48,9.48,0,0,1,5.93,3.9A11.42,11.42,0,0,1,43.43,60.68Z" transform="translate(-10.38 -14.63)"/><path d="M46.93,60.74a10.73,10.73,0,0,0,6.55-2.14,8.1,8.1,0,0,0,3.25-5h0A8.9,8.9,0,0,0,50,54.94a7.15,7.15,0,0,0-3.11,5.8Z" transform="translate(-10.38 -14.63)"/><path d="M44.75,49.2A8,8,0,0,1,39.17,45a9.59,9.59,0,0,1-.31-7.85,9.42,9.42,0,0,1,5.08,5A11.42,11.42,0,0,1,44.75,49.2Z" transform="translate(-10.38 -14.63)"/><path d="M48.17,49.93A10.72,10.72,0,0,0,55,49.07a8.11,8.11,0,0,0,4.14-4.26,8.9,8.9,0,0,0-6.82,0A7.19,7.19,0,0,0,48.17,49.93Z" transform="translate(-10.38 -14.63)"/><path d="M48.22,38.18a8,8,0,0,1-4.66-5.24,8.43,8.43,0,0,1-.26-3.85,11.51,11.51,0,0,1,1.48-3.91,9.38,9.38,0,0,1,4,5.83A11.32,11.32,0,0,1,48.22,38.18Z" transform="translate(-10.38 -14.63)"/><path d="M51.45,39.55a10.74,10.74,0,0,0,6.87.47,10.18,10.18,0,0,0,2.8-1.27,6.2,6.2,0,0,0,2.09-2.11,8.88,8.88,0,0,0-6.71-1.3A7.18,7.18,0,0,0,51.45,39.55Z" transform="translate(-10.38 -14.63)"/><path d="M53.74,28h0a8,8,0,0,1-3.56-6,9.47,9.47,0,0,1,.45-3.84,11.73,11.73,0,0,1,2.22-3.53,9.28,9.28,0,0,1,2.82,6.48,14.2,14.2,0,0,1-.37,3.58A9.35,9.35,0,0,1,53.74,28Z" transform="translate(-10.38 -14.63)"/><path d="M56.64,30a10.92,10.92,0,0,0,6.68,1.79,8.77,8.77,0,0,0,3-.74,6.17,6.17,0,0,0,2.48-1.66h0a9.06,9.06,0,0,0-6.36-2.57,6.37,6.37,0,0,0-3.19.88A8.16,8.16,0,0,0,56.64,30Z" transform="translate(-10.38 -14.63)"/><path d="M189.58,100.47a10.53,10.53,0,0,1-3.2-6.06,11.57,11.57,0,0,1,0-3.11,6,6,0,0,1,1.12-2.73,8.82,8.82,0,0,1,3.89,5.57,7.63,7.63,0,0,1-.08,3.36A8.38,8.38,0,0,1,189.58,100.47Z" transform="translate(-10.38 -14.63)"/><path d="M192.14,102.85a8.19,8.19,0,0,0,6.73,2.15,7.93,7.93,0,0,0,3.57-1.35,11.71,11.71,0,0,0,3-2.91h0a9.5,9.5,0,0,0-7-1.33,10.88,10.88,0,0,0-3.35,1.22A9.68,9.68,0,0,0,192.14,102.85Z" transform="translate(-10.38 -14.63)"/><path d="M196.19,91.83a10.61,10.61,0,0,1-4.31-5.34c-.63-2-.93-4.14,0-5.94a8.84,8.84,0,0,1,4.89,4.73,6.8,6.8,0,0,1,.55,3.29,8.14,8.14,0,0,1-1.1,3.26Z" transform="translate(-10.38 -14.63)"/><path d="M199.16,93.68h0a8,8,0,0,0,7,.81A9.69,9.69,0,0,0,211.82,89a9.5,9.5,0,0,0-7.11.06,12.74,12.74,0,0,0-3.09,1.82A9.75,9.75,0,0,0,199.16,93.68Z" transform="translate(-10.38 -14.63)"/><path d="M201,82.09h0a10.69,10.69,0,0,1-5.27-4.43,8,8,0,0,1-1.17-5.82h0a8.84,8.84,0,0,1,5.72,3.71A7.14,7.14,0,0,1,201,82.09Z" transform="translate(-10.38 -14.63)"/><path d="M204.3,83.33a8.08,8.08,0,0,0,7-.54,9.68,9.68,0,0,0,4.51-6.43h0a9.44,9.44,0,0,0-7,1.41A11.6,11.6,0,0,0,204.3,83.33Z" transform="translate(-10.38 -14.63)"/><path d="M203.9,71.6a10.71,10.71,0,0,1-6-3.35,8,8,0,0,1-2.25-5.5A8.87,8.87,0,0,1,202,65.3,7.16,7.16,0,0,1,203.9,71.6Z" transform="translate(-10.38 -14.63)"/><path d="M207.35,72.19a8,8,0,0,0,6.78-1.87,9.61,9.61,0,0,0,3.2-7.16h0a9.4,9.4,0,0,0-6.56,2.71A11.44,11.44,0,0,0,207.35,72.19Z" transform="translate(-10.38 -14.63)"/><path d="M204.74,60.74a10.71,10.71,0,0,1-6.55-2.14,8.06,8.06,0,0,1-3.25-5,8.92,8.92,0,0,1,6.69,1.32,7.18,7.18,0,0,1,3.11,5.8Z" transform="translate(-10.38 -14.63)"/><path d="M208.23,60.68h0a8.06,8.06,0,0,0,6.3-3.12,9.63,9.63,0,0,0,1.79-7.64,9.5,9.5,0,0,0-5.94,3.9A11.49,11.49,0,0,0,208.23,60.68Z" transform="translate(-10.38 -14.63)"/><path d="M203.49,49.93a10.69,10.69,0,0,1-6.83-.86,8.11,8.11,0,0,1-4.14-4.26,8.9,8.9,0,0,1,6.82,0A7.16,7.16,0,0,1,203.49,49.93Z" transform="translate(-10.38 -14.63)"/><path d="M206.92,49.2A8,8,0,0,0,212.5,45a9.55,9.55,0,0,0,.3-7.85,9.44,9.44,0,0,0-5.07,5A11.42,11.42,0,0,0,206.92,49.2Z" transform="translate(-10.38 -14.63)"/><path d="M200.22,39.55a10.77,10.77,0,0,1-6.88.47,10.46,10.46,0,0,1-2.8-1.27,6.26,6.26,0,0,1-2.08-2.11,8.87,8.87,0,0,1,6.7-1.3A7.18,7.18,0,0,1,200.22,39.55Z" transform="translate(-10.38 -14.63)"/><path d="M203.44,38.18a8,8,0,0,0,4.66-5.24,8.43,8.43,0,0,0,.27-3.85,11.51,11.51,0,0,0-1.48-3.91,9.38,9.38,0,0,0-4,5.83A11.38,11.38,0,0,0,203.44,38.18Z" transform="translate(-10.38 -14.63)"/><path d="M195,30a10.94,10.94,0,0,1-6.68,1.79,8.71,8.71,0,0,1-3-.74,6.17,6.17,0,0,1-2.48-1.66h0a9.06,9.06,0,0,1,6.36-2.57,6.39,6.39,0,0,1,3.19.88A8.39,8.39,0,0,1,195,30Z" transform="translate(-10.38 -14.63)"/><path d="M197.93,28h0a8,8,0,0,0,3.56-6,9.48,9.48,0,0,0-.46-3.84,11.69,11.69,0,0,0-2.21-3.53A9.33,9.33,0,0,0,196,21.11a15.18,15.18,0,0,0,.37,3.58A9.55,9.55,0,0,0,197.93,28Z" transform="translate(-10.38 -14.63)"/></svg>