<svg id="Layer_1" data-name="Layer 1" xmlns="http://www.w3.org/2000/svg" viewBox="0 0 189 144.07"><title>accenture</title><path d="M40.17,145.91h3.18a4.93,4.93,0,1,1,0,9.85H40.17Zm3.08,9a4.06,4.06,0,0,0,0-8.11H41.14v8.11Z" transform="translate(-34.33 -14.63)"/><path d="M50.23,145.91h1v1.2h-1Zm0,2.81h1v7h-1Z" transform="translate(-34.33 -14.63)"/><path d="M55.94,157.85c1.37,0,2.46-.65,2.46-2.21V155a4.56,4.56,0,0,1,0-.5h0a2.31,2.31,0,0,1-2.22,1.23c-1.89,0-3.14-1.5-3.14-3.61s1.16-3.56,3.05-3.56a2.32,2.32,0,0,1,2.33,1.17h0a1,1,0,0,1,0-.23v-.77h.93v6.87c0,2.25-1.66,3.11-3.38,3.11a5.18,5.18,0,0,1-2.31-.56l.36-.78A4.34,4.34,0,0,0,55.94,157.85Zm2.48-5.74c0-2.06-1-2.69-2.23-2.69s-2.17,1-2.17,2.67.91,2.78,2.31,2.78C57.44,154.87,58.42,154.18,58.42,152.11Z" transform="translate(-34.33 -14.63)"/><path d="M61.62,145.91h1v1.2h-1Zm0,2.81h1v7h-1Z" transform="translate(-34.33 -14.63)"/><path d="M65.16,149.6h-.92v-.8h.94v-2h.94v2h1.76v.8H66.12v3.5c0,1.65,1,1.86,1.58,1.86a2.33,2.33,0,0,0,.32,0v.85a2.31,2.31,0,0,1-.41,0c-.81,0-2.45-.27-2.45-2.62Z" transform="translate(-34.33 -14.63)"/><path d="M73.33,151.41h.39v-.19c0-1.36-.74-1.82-1.75-1.82a3.45,3.45,0,0,0-2,.67l-.45-.72a4.07,4.07,0,0,1,2.51-.8,2.4,2.4,0,0,1,2.63,2.7v4.51h-.91V155a5.26,5.26,0,0,1,0-.59h0a2.55,2.55,0,0,1-2.35,1.53,2.19,2.19,0,0,1-2.4-2.09C69,151.46,72.11,151.41,73.33,151.41Zm-1.77,3.71a2.45,2.45,0,0,0,2.16-2.62v-.31h-.41c-1.1,0-3.32,0-3.32,1.6A1.4,1.4,0,0,0,71.56,155.12Z" transform="translate(-34.33 -14.63)"/><path d="M76.8,145.91h1v8c0,.92.42,1.06.78,1.06h.24v.85a2.29,2.29,0,0,1-.35,0c-.59,0-1.62-.18-1.62-1.72Z" transform="translate(-34.33 -14.63)"/><path d="M84.22,153.93A3.83,3.83,0,0,0,86.79,155a1.78,1.78,0,0,0,2-1.71c0-2.48-4.91-1.85-4.91-4.91a2.83,2.83,0,0,1,3.07-2.64,3.84,3.84,0,0,1,2.63.95l-.48.81a3.36,3.36,0,0,0-2.15-.84,1.89,1.89,0,0,0-2.08,1.7c0,2.34,4.92,1.66,4.92,4.9a2.72,2.72,0,0,1-3,2.66,4.36,4.36,0,0,1-3.13-1.26Z" transform="translate(-34.33 -14.63)"/><path d="M91.62,145.91h.95v5.5H93.7l2.11-2.69H97l-2.45,3.06v0l2.69,3.95H96.06l-2.35-3.53H92.57v3.53h-.95Z" transform="translate(-34.33 -14.63)"/><path d="M98.62,145.91h1v1.2h-1Zm0,2.81h.95v7h-.95Z" transform="translate(-34.33 -14.63)"/><path d="M101.83,145.91h1v8c0,.92.42,1.06.78,1.06h.24v.85a2.13,2.13,0,0,1-.35,0c-.59,0-1.62-.18-1.62-1.72Z" transform="translate(-34.33 -14.63)"/><path d="M105.29,145.91h.95v8c0,.92.42,1.06.78,1.06h.24v.85a2.29,2.29,0,0,1-.35,0c-.59,0-1.62-.18-1.62-1.72Z" transform="translate(-34.33 -14.63)"/><path d="M109.16,148.72h1.11v1.12h-1.11Zm0,5.92h1.11v1.12h-1.11Z" transform="translate(-34.33 -14.63)"/><path d="M116.84,145.91h1v6.41A2.55,2.55,0,0,0,120.6,155a2.58,2.58,0,0,0,2.81-2.74v-6.38h1v6.42a3.77,3.77,0,0,1-7.53,0Z" transform="translate(-34.33 -14.63)"/><path d="M126.76,154.22a3,3,0,0,0,2.1.86c.76,0,1.42-.38,1.42-1.12,0-1.55-3.8-1.17-3.8-3.46,0-1.27,1.14-1.95,2.41-1.95a3,3,0,0,1,2.17.77l-.43.73a2.49,2.49,0,0,0-1.77-.65c-.71,0-1.4.31-1.4,1.1,0,1.55,3.8,1.13,3.8,3.46a2.14,2.14,0,0,1-2.41,2,3.61,3.61,0,0,1-2.61-1Z" transform="translate(-34.33 -14.63)"/><path d="M136,148.55c1.95,0,2.94,1.5,2.94,3.25,0,.17,0,.49,0,.49h-5.41a2.65,2.65,0,0,0,2.73,2.79,3.25,3.25,0,0,0,2.14-.86l.44.73a4,4,0,0,1-2.61,1,3.56,3.56,0,0,1-3.68-3.68A3.44,3.44,0,0,1,136,148.55Zm2,2.95a2,2,0,0,0-2-2.15,2.39,2.39,0,0,0-2.43,2.15Z" transform="translate(-34.33 -14.63)"/><path d="M140.76,148.72h.94V150a5.24,5.24,0,0,1,0,.56h0a2.4,2.4,0,0,1,2.23-1.87,2.12,2.12,0,0,1,.38,0v.94a2.29,2.29,0,0,0-.35,0,2.26,2.26,0,0,0-2.05,1.82,4.64,4.64,0,0,0-.2,1.37v3h-1Z" transform="translate(-34.33 -14.63)"/><path d="M149.79,145.91h5.55v.87h-4.58v3.59h3.74v.87h-3.74v3.65h4.83v.87h-5.8Z" transform="translate(-34.33 -14.63)"/><path d="M159.77,152.72s-.11.21-.23.39l-1.71,2.65h-1.12l2.48-3.67-2.27-3.37H158l1.51,2.36.24.41h0l.24-.41,1.51-2.36h1.12l-2.26,3.37,2.47,3.67h-1.12l-1.71-2.65c-.12-.18-.23-.39-.23-.39h0Z" transform="translate(-34.33 -14.63)"/><path d="M164.38,148.72h.91v.68a4.93,4.93,0,0,1,0,.55h0a2.55,2.55,0,0,1,2.44-1.4c1.89,0,3.06,1.51,3.06,3.7s-1.33,3.68-3.15,3.68a2.55,2.55,0,0,1-2.31-1.34h0a5.67,5.67,0,0,1,0,.61v3.36h-1Zm3.17,6.37c1.24,0,2.26-1.05,2.26-2.84s-.91-2.83-2.22-2.83-2.29.84-2.29,2.84C165.3,153.68,166.09,155.09,167.55,155.09Z" transform="translate(-34.33 -14.63)"/><path d="M175.61,148.55c1.95,0,2.94,1.5,2.94,3.25,0,.17,0,.49,0,.49h-5.4a2.65,2.65,0,0,0,2.73,2.79,3.25,3.25,0,0,0,2.14-.86l.43.73a4,4,0,0,1-2.6,1,3.56,3.56,0,0,1-3.69-3.68A3.44,3.44,0,0,1,175.61,148.55Zm2,2.95a2,2,0,0,0-2-2.15,2.38,2.38,0,0,0-2.42,2.15Z" transform="translate(-34.33 -14.63)"/><path d="M180.37,148.72h.94V150a5.24,5.24,0,0,1,0,.56h0a2.39,2.39,0,0,1,2.22-1.87,2,2,0,0,1,.38,0v.94a2.29,2.29,0,0,0-.35,0,2.24,2.24,0,0,0-2,1.82,4.64,4.64,0,0,0-.2,1.37v3h-.95Z" transform="translate(-34.33 -14.63)"/><path d="M185.32,145.91h1v1.2h-1Zm0,2.81h1v7h-1Z" transform="translate(-34.33 -14.63)"/><path d="M191.58,148.55c1.95,0,2.94,1.5,2.94,3.25,0,.17,0,.49,0,.49h-5.41a2.65,2.65,0,0,0,2.73,2.79,3.25,3.25,0,0,0,2.14-.86l.44.73a4,4,0,0,1-2.61,1,3.56,3.56,0,0,1-3.68-3.68A3.44,3.44,0,0,1,191.58,148.55Zm2,2.95a2,2,0,0,0-2-2.15,2.39,2.39,0,0,0-2.42,2.15Z" transform="translate(-34.33 -14.63)"/><path d="M196.34,148.72h.94v1.05a5.49,5.49,0,0,1,0,.56h0a3,3,0,0,1,2.82-1.78c1.73,0,2.35,1,2.35,2.73v4.48h-.95v-4.23c0-1.1-.17-2.09-1.53-2.09a2.67,2.67,0,0,0-2.56,2,3.33,3.33,0,0,0-.12,1v3.37h-.95Z" transform="translate(-34.33 -14.63)"/><path d="M207.85,148.55a3.48,3.48,0,0,1,2.58,1l-.49.71a3,3,0,0,0-2.06-.85,2.7,2.7,0,0,0-2.75,2.83,2.74,2.74,0,0,0,2.78,2.83,3.08,3.08,0,0,0,2.25-1l.44.74a3.78,3.78,0,0,1-2.75,1.11,3.69,3.69,0,1,1,0-7.38Z" transform="translate(-34.33 -14.63)"/><path d="M215.31,148.55c1.95,0,2.94,1.5,2.94,3.25,0,.17,0,.49,0,.49h-5.41a2.65,2.65,0,0,0,2.73,2.79,3.25,3.25,0,0,0,2.14-.86l.44.73a4,4,0,0,1-2.61,1,3.56,3.56,0,0,1-3.68-3.68A3.44,3.44,0,0,1,215.31,148.55Zm2,2.95a2,2,0,0,0-2-2.15,2.38,2.38,0,0,0-2.42,2.15Z" transform="translate(-34.33 -14.63)"/><path d="M102.32,130.62h-4l-1.12,3.14h-1l3.62-9.85h1l3.62,9.85h-1Zm-2-5.68s-.21.81-.38,1.27l-1.31,3.57H102l-1.29-3.57c-.17-.46-.38-1.27-.38-1.27Z" transform="translate(-34.33 -14.63)"/><path d="M109,126.55a3.48,3.48,0,0,1,2.58,1l-.49.71a3,3,0,0,0-2.06-.85,2.7,2.7,0,0,0-2.75,2.83,2.74,2.74,0,0,0,2.78,2.83,3.08,3.08,0,0,0,2.25-1l.44.74a3.75,3.75,0,0,1-2.75,1.11,3.69,3.69,0,1,1,0-7.38Z" transform="translate(-34.33 -14.63)"/><path d="M116.7,126.55a3.48,3.48,0,0,1,2.58,1l-.49.71a3,3,0,0,0-2.06-.85,2.7,2.7,0,0,0-2.75,2.83,2.73,2.73,0,0,0,2.77,2.83,3.11,3.11,0,0,0,2.26-1l.43.74a3.74,3.74,0,0,1-2.74,1.11,3.69,3.69,0,1,1,0-7.38Z" transform="translate(-34.33 -14.63)"/><path d="M124.16,126.55c2,0,2.94,1.5,2.94,3.25,0,.17,0,.49,0,.49h-5.4a2.65,2.65,0,0,0,2.73,2.79,3.25,3.25,0,0,0,2.14-.86l.44.73a4.07,4.07,0,0,1-2.61,1,3.56,3.56,0,0,1-3.68-3.68A3.43,3.43,0,0,1,124.16,126.55Zm2,3a2,2,0,0,0-2-2.15,2.38,2.38,0,0,0-2.42,2.15Z" transform="translate(-34.33 -14.63)"/><path d="M128.92,126.72h.94v1a5.49,5.49,0,0,1,0,.56h0a3,3,0,0,1,2.81-1.78c1.74,0,2.36,1,2.36,2.73v4.48h-1v-4.23c0-1.1-.17-2.09-1.52-2.09a2.68,2.68,0,0,0-2.57,2,3.72,3.72,0,0,0-.11,1v3.37h-1Z" transform="translate(-34.33 -14.63)"/><path d="M137.49,127.6h-.93v-.8h.94v-2h.94v2h1.76v.8h-1.76v3.5c0,1.65,1.05,1.86,1.58,1.86a2.15,2.15,0,0,0,.32,0v.85a2.25,2.25,0,0,1-.4,0c-.82,0-2.45-.27-2.45-2.62Z" transform="translate(-34.33 -14.63)"/><path d="M141.81,126.72h.95V131c0,1.1.17,2.08,1.53,2.08a2.74,2.74,0,0,0,2.61-2.94v-3.37h.95v7h-.93v-1a5.24,5.24,0,0,1,0-.56h0a3,3,0,0,1-2.75,1.78c-1.66,0-2.36-.9-2.36-2.73Z" transform="translate(-34.33 -14.63)"/><path d="M150.14,126.72h.94V128a5.24,5.24,0,0,1,0,.56h0a2.4,2.4,0,0,1,2.23-1.87,2.12,2.12,0,0,1,.38,0v.94a2.29,2.29,0,0,0-.35,0,2.26,2.26,0,0,0-2.05,1.82,4.64,4.64,0,0,0-.2,1.37v3h-1Z" transform="translate(-34.33 -14.63)"/><path d="M158,126.55A2.94,2.94,0,0,1,161,129.8c0,.17,0,.49,0,.49h-5.41a2.65,2.65,0,0,0,2.73,2.79,3.29,3.29,0,0,0,2.15-.86l.43.73a4,4,0,0,1-2.6,1,3.56,3.56,0,0,1-3.69-3.68A3.44,3.44,0,0,1,158,126.55Zm2,3a2,2,0,0,0-2-2.15,2.39,2.39,0,0,0-2.43,2.15Z" transform="translate(-34.33 -14.63)"/><polygon points="104.92 31.85 112.03 34.64 104.92 37.29 104.92 41.06 117.09 36.15 117.09 33.13 104.92 28.22 104.92 31.85"/><path d="M74.05,60.53c-3.4,0-5.89,1.51-6.12,4.69h3.78v-.08a2,2,0,0,1,2.11-1.74c1.44,0,2.12.83,2.12,2.27v.68H74.2c-3.7,0-6.72,1.13-6.72,4.68v.15c0,2.88,2.11,4.16,4.68,4.16h0a4.61,4.61,0,0,0,3.93-1.89v1.66H80V65.59C79.87,62,77.38,60.53,74.05,60.53Zm-.83,12c-1.36,0-2-.68-2-1.66v-.15c0-1.28,1-1.81,2.94-1.81h1.59v1.36h0C75.87,71.79,74.58,72.54,73.22,72.54Z" transform="translate(-34.33 -14.63)"/><path d="M89,72.39c-1.89,0-2.87-1.28-2.87-4.15v-.46c0-2.79,1.13-4.15,2.87-4.15a2.33,2.33,0,0,1,2.34,2.27h3.78c-.3-3.71-3-5.37-6.19-5.37-3.78,0-6.8,2.57-6.8,7.41v.15c0,4.83,2.87,7.25,6.8,7.25h0c3.85,0,6-2.34,6.34-5.52H91.66C91.35,71.41,90.37,72.39,89,72.39Z" transform="translate(-34.33 -14.63)"/><path d="M103.75,72.39c-1.89,0-2.88-1.28-2.88-4.15v-.46c0-2.79,1.14-4.15,2.88-4.15,1.36,0,2.11.91,2.34,2.27h3.78c-.31-3.71-3-5.37-6.2-5.37-3.78,0-6.8,2.57-6.8,7.41v.15c0,4.83,2.87,7.25,6.8,7.25h0c3.85,0,6-2.34,6.27-5.52h-3.55A2.7,2.7,0,0,1,103.75,72.39Z" transform="translate(-34.33 -14.63)"/><path d="M118.63,72.47c-1.74,0-2.79-1-2.95-3.55h9.22V67.26c0-4.69-2.94-6.73-6.5-6.73-3.85,0-6.8,2.65-6.8,7.41v.3c0,4.76,2.8,7.18,6.88,7.18h0c3.7,0,6-2,6.35-4.76h-3.71A2.21,2.21,0,0,1,118.63,72.47Zm-.23-9.22c1.59,0,2.57.91,2.65,3h-5.29C116.06,64,117.2,63.33,118.4,63.25Z" transform="translate(-34.33 -14.63)"/><polygon points="81.43 51.64 81.43 51.64 81.35 51.64 81.43 51.64" style="fill:#008fff"/><path d="M135.63,60.53a4.57,4.57,0,0,0-4.3,2.42V60.83H127.4V75h3.93V66a2.42,2.42,0,0,1,2.49-2.27c1.43,0,2.11.76,2.11,2.42V75h4V65.52C139.94,62,138.2,60.53,135.63,60.53Z" transform="translate(-34.33 -14.63)"/><path d="M147.34,70.5V63.78h2.72v-3h-2.72v-4.3l-3.93,1.66v2.64h-1.73v3h1.66V71c0,2.87,1.43,4.3,4.53,4.3a7.71,7.71,0,0,0,2.27-.3v-3.1a4,4,0,0,1-1.36.23C147.87,72.09,147.34,71.56,147.34,70.5Z" transform="translate(-34.33 -14.63)"/><path d="M161,69.67v.38a2.43,2.43,0,0,1-2.49,2.27c-1.44,0-2-.76-2-2.42V60.83h-4v9.6c0,3.32,1.89,4.91,4.46,4.91a4.43,4.43,0,0,0,4.16-2.42V75h4V60.83h-4L161,69.67Z" transform="translate(-34.33 -14.63)"/><path d="M171.9,63.4V60.76H168V75h3.93V67.63c0-2.34,1.59-3.17,4.31-3.17V60.53A4.46,4.46,0,0,0,171.9,63.4Z" transform="translate(-34.33 -14.63)"/><path d="M190.71,67.18c0-4.68-2.94-6.65-6.49-6.65-3.86,0-6.8,2.65-6.8,7.41v.3c0,4.76,2.79,7.18,6.87,7.18h0c3.7,0,5.9-2,6.35-4.76h-3.7a2.54,2.54,0,0,1-2.65,1.88c-1.74,0-2.79-1-2.95-3.55h9.22V67.18Zm-9.21-.91h0c.3-2.34,1.43-3,2.72-3,1.58,0,2.57.91,2.64,3Z" transform="translate(-34.33 -14.63)"/><path d="M181.5,66.27Z" transform="translate(-34.33 -14.63)" style="fill:#008fff"/><path d="M59.52,102.85A8.16,8.16,0,0,1,52.8,105a8,8,0,0,1-3.58-1.35,12,12,0,0,1-3-2.91h0a9.53,9.53,0,0,1,7-1.33,10.88,10.88,0,0,1,3.35,1.22A9.64,9.64,0,0,1,59.52,102.85Z" transform="translate(-34.33 -14.63)"/><path d="M62.09,100.47a10.53,10.53,0,0,0,3.2-6.06,12,12,0,0,0,0-3.11,6.15,6.15,0,0,0-1.12-2.73,8.82,8.82,0,0,0-3.89,5.57,7.63,7.63,0,0,0,.07,3.36A8.26,8.26,0,0,0,62.09,100.47Z" transform="translate(-34.33 -14.63)"/><path d="M52.5,93.68h0a8,8,0,0,1-7,.81A9.66,9.66,0,0,1,39.85,89,9.5,9.5,0,0,1,47,89.1,12.68,12.68,0,0,1,50,90.92a9.6,9.6,0,0,1,2.46,2.76Z" transform="translate(-34.33 -14.63)"/><path d="M55.48,91.83h0a10.71,10.71,0,0,0,4.31-5.34c.63-2,.92-4.14,0-5.94a8.89,8.89,0,0,0-4.9,4.73,6.79,6.79,0,0,0-.54,3.29A8,8,0,0,0,55.48,91.83Z" transform="translate(-34.33 -14.63)"/><path d="M47.37,83.33a8.08,8.08,0,0,1-7-.54,9.64,9.64,0,0,1-4.51-6.43h0a9.42,9.42,0,0,1,7,1.41A11.57,11.57,0,0,1,47.37,83.33Z" transform="translate(-34.33 -14.63)"/><path d="M50.64,82.09h0a10.69,10.69,0,0,0,5.27-4.43,8,8,0,0,0,1.16-5.82,8.82,8.82,0,0,0-5.71,3.71A7.11,7.11,0,0,0,50.64,82.09Z" transform="translate(-34.33 -14.63)"/><path d="M44.31,72.19a8,8,0,0,1-6.77-1.87,9.62,9.62,0,0,1-3.21-7.16h0a9.43,9.43,0,0,1,6.57,2.71A11.42,11.42,0,0,1,44.31,72.19Z" transform="translate(-34.33 -14.63)"/><path d="M47.76,71.6a10.71,10.71,0,0,0,6-3.35A8.07,8.07,0,0,0,56,62.75a8.91,8.91,0,0,0-6.32,2.55A7.19,7.19,0,0,0,47.76,71.6Z" transform="translate(-34.33 -14.63)"/><path d="M43.43,60.68h0a8.06,8.06,0,0,1-6.29-3.12,9.59,9.59,0,0,1-1.79-7.64h0a9.48,9.48,0,0,1,5.93,3.9A11.42,11.42,0,0,1,43.43,60.68Z" transform="translate(-34.33 -14.63)"/><path d="M46.93,60.74a10.73,10.73,0,0,0,6.55-2.14,8.1,8.1,0,0,0,3.25-5h0A8.9,8.9,0,0,0,50,54.94a7.15,7.15,0,0,0-3.11,5.8Z" transform="translate(-34.33 -14.63)"/><path d="M44.75,49.2A8,8,0,0,1,39.17,45a9.59,9.59,0,0,1-.31-7.85,9.42,9.42,0,0,1,5.08,5A11.42,11.42,0,0,1,44.75,49.2Z" transform="translate(-34.33 -14.63)"/><path d="M48.17,49.93A10.72,10.72,0,0,0,55,49.07a8.11,8.11,0,0,0,4.14-4.26,8.9,8.9,0,0,0-6.82,0A7.19,7.19,0,0,0,48.17,49.93Z" transform="translate(-34.33 -14.63)"/><path d="M48.22,38.18a8,8,0,0,1-4.66-5.24,8.43,8.43,0,0,1-.26-3.85,11.51,11.51,0,0,1,1.48-3.91,9.38,9.38,0,0,1,4,5.83A11.32,11.32,0,0,1,48.22,38.18Z" transform="translate(-34.33 -14.63)"/><path d="M51.45,39.55a10.74,10.74,0,0,0,6.87.47,10.18,10.18,0,0,0,2.8-1.27,6.2,6.2,0,0,0,2.09-2.11,8.88,8.88,0,0,0-6.71-1.3A7.18,7.18,0,0,0,51.45,39.55Z" transform="translate(-34.33 -14.63)"/><path d="M53.74,28h0a8,8,0,0,1-3.56-6,9.47,9.47,0,0,1,.45-3.84,11.73,11.73,0,0,1,2.22-3.53,9.28,9.28,0,0,1,2.82,6.48,14.2,14.2,0,0,1-.37,3.58A9.35,9.35,0,0,1,53.74,28Z" transform="translate(-34.33 -14.63)"/><path d="M56.64,30a10.92,10.92,0,0,0,6.68,1.79,8.77,8.77,0,0,0,3-.74,6.17,6.17,0,0,0,2.48-1.66h0a9.06,9.06,0,0,0-6.36-2.57,6.37,6.37,0,0,0-3.19.88A8.16,8.16,0,0,0,56.64,30Z" transform="translate(-34.33 -14.63)"/><path d="M195.58,100.47a10.53,10.53,0,0,1-3.2-6.06,11.57,11.57,0,0,1,0-3.11,6,6,0,0,1,1.12-2.73,8.82,8.82,0,0,1,3.89,5.57,7.63,7.63,0,0,1-.08,3.36A8.38,8.38,0,0,1,195.58,100.47Z" transform="translate(-34.33 -14.63)"/><path d="M198.14,102.85a8.19,8.19,0,0,0,6.73,2.15,7.93,7.93,0,0,0,3.57-1.35,11.71,11.71,0,0,0,3-2.91h0a9.5,9.5,0,0,0-7-1.33,10.88,10.88,0,0,0-3.35,1.22A9.68,9.68,0,0,0,198.14,102.85Z" transform="translate(-34.33 -14.63)"/><path d="M202.19,91.83a10.61,10.61,0,0,1-4.31-5.34c-.63-2-.93-4.14,0-5.94a8.84,8.84,0,0,1,4.89,4.73,6.8,6.8,0,0,1,.55,3.29,8.14,8.14,0,0,1-1.1,3.26Z" transform="translate(-34.33 -14.63)"/><path d="M205.16,93.68h0a8,8,0,0,0,7,.81A9.69,9.69,0,0,0,217.82,89a9.5,9.5,0,0,0-7.11.06,12.74,12.74,0,0,0-3.09,1.82A9.75,9.75,0,0,0,205.16,93.68Z" transform="translate(-34.33 -14.63)"/><path d="M207,82.09h0a10.69,10.69,0,0,1-5.27-4.43,8,8,0,0,1-1.17-5.82h0a8.84,8.84,0,0,1,5.72,3.71A7.14,7.14,0,0,1,207,82.09Z" transform="translate(-34.33 -14.63)"/><path d="M210.3,83.33a8.08,8.08,0,0,0,7-.54,9.68,9.68,0,0,0,4.51-6.43h0a9.44,9.44,0,0,0-7,1.41A11.6,11.6,0,0,0,210.3,83.33Z" transform="translate(-34.33 -14.63)"/><path d="M209.9,71.6a10.71,10.71,0,0,1-6-3.35,8,8,0,0,1-2.25-5.5A8.87,8.87,0,0,1,208,65.3,7.16,7.16,0,0,1,209.9,71.6Z" transform="translate(-34.33 -14.63)"/><path d="M213.35,72.19a8,8,0,0,0,6.78-1.87,9.61,9.61,0,0,0,3.2-7.16h0a9.4,9.4,0,0,0-6.56,2.71A11.44,11.44,0,0,0,213.35,72.19Z" transform="translate(-34.33 -14.63)"/><path d="M210.74,60.74a10.71,10.71,0,0,1-6.55-2.14,8.06,8.06,0,0,1-3.25-5,8.92,8.92,0,0,1,6.69,1.32,7.18,7.18,0,0,1,3.11,5.8Z" transform="translate(-34.33 -14.63)"/><path d="M214.23,60.68h0a8.06,8.06,0,0,0,6.3-3.12,9.63,9.63,0,0,0,1.79-7.64,9.5,9.5,0,0,0-5.94,3.9A11.49,11.49,0,0,0,214.23,60.68Z" transform="translate(-34.33 -14.63)"/><path d="M209.49,49.93a10.69,10.69,0,0,1-6.83-.86,8.11,8.11,0,0,1-4.14-4.26,8.9,8.9,0,0,1,6.82,0A7.16,7.16,0,0,1,209.49,49.93Z" transform="translate(-34.33 -14.63)"/><path d="M212.92,49.2A8,8,0,0,0,218.5,45a9.55,9.55,0,0,0,.3-7.85,9.44,9.44,0,0,0-5.07,5A11.42,11.42,0,0,0,212.92,49.2Z" transform="translate(-34.33 -14.63)"/><path d="M206.22,39.55a10.77,10.77,0,0,1-6.88.47,10.46,10.46,0,0,1-2.8-1.27,6.26,6.26,0,0,1-2.08-2.11,8.87,8.87,0,0,1,6.7-1.3A7.18,7.18,0,0,1,206.22,39.55Z" transform="translate(-34.33 -14.63)"/><path d="M209.44,38.18a8,8,0,0,0,4.66-5.24,8.43,8.43,0,0,0,.27-3.85,11.51,11.51,0,0,0-1.48-3.91,9.38,9.38,0,0,0-4,5.83A11.38,11.38,0,0,0,209.44,38.18Z" transform="translate(-34.33 -14.63)"/><path d="M201,30a10.94,10.94,0,0,1-6.68,1.79,8.71,8.71,0,0,1-3-.74,6.17,6.17,0,0,1-2.48-1.66h0a9.06,9.06,0,0,1,6.36-2.57,6.39,6.39,0,0,1,3.19.88A8.39,8.39,0,0,1,201,30Z" transform="translate(-34.33 -14.63)"/><path d="M203.93,28h0a8,8,0,0,0,3.56-6,9.48,9.48,0,0,0-.46-3.84,11.69,11.69,0,0,0-2.21-3.53A9.33,9.33,0,0,0,202,21.11a15.18,15.18,0,0,0,.37,3.58A9.55,9.55,0,0,0,203.93,28Z" transform="translate(-34.33 -14.63)"/></svg>