<?xml version="1.0" encoding="utf-8"?>
<!-- Generator: Adobe Illustrator 22.0.0, SVG Export Plug-In . SVG Version: 6.00 Build 0)  -->
<svg version="1.1" id="svg3036" xmlns:svg="http://www.w3.org/2000/svg"
	 xmlns="http://www.w3.org/2000/svg" xmlns:xlink="http://www.w3.org/1999/xlink" x="0px" y="0px" viewBox="0 0 167.2 24.1"
	 style="enable-background:new 0 0 167.2 24.1;" xml:space="preserve">
<style type="text/css">
	.st0{stroke:#FFFFFF;stroke-width:7.750000e-02;stroke-miterlimit:3.864;}
</style>
<g id="layer1" transform="translate(-452.68196,-519.46191)">
	<path id="path3020" class="st0" d="M474.1,527.2c-0.8,1.3-1.2,2.7-1.2,4.3c0,4,2.8,7.4,6.6,8.1l-3.9-3.8l0.8-1.7
		c-0.6-0.4-1-1.1-1-1.9c0-0.6,0.1-1.1,0.4-1.5H475v4c-0.5,0-0.9-0.4-0.9-0.9v-3c0-0.5,0.4-0.9,0.9-0.9h8.1l-1.1-2.6L474.1,527.2z
		 M486.2,531.7h1.5c0.9,0.1,1,0.4,0.9,1.2l-0.9,2l-1-0.5l0.7-1.5h-0.7l-0.9,2l-1-0.5l0.6-1.5h-3.5l-1.5,3l3.5,3.4
		c3.4-1.1,5.8-4.2,5.8-7.9c0-1.4-0.4-2.7-1-3.9c-0.4-0.5-2.4-0.4-2.4-0.4v4.6H486.2z M481.5,539.8l-3.9-3.8l1.5-3h0.5l-1.2,2.7l4,4
		C482.1,539.8,481.7,539.8,481.5,539.8L481.5,539.8z M484.8,525.9h2.6c-1.5-1.7-3.7-2.7-6.2-2.7c-2.4,0-4.6,1.1-6.1,2.7h8.4l0.6-1.1
		c0.1-0.3,0.5-0.4,0.8-0.3c0.3,0.1,0.4,0.5,0.3,0.8L484.8,525.9L484.8,525.9z M471.3,531.5c0-5.5,4.5-10,10-10s10,4.5,10,10
		s-4.5,10-10,10C475.7,541.5,471.3,537,471.3,531.5z"/>
	<path id="path3022" class="st0" d="M496,537.5c-0.1,1.2,0.1,1.9,0,3c1.4,0.6,2,0.9,4.7,1c0.6,0,2.5,0,4.1-1
		c0.9-0.5,2.9-2.1,2.9-5.1c0-1.3-0.5-2.7-1.4-3.6c-1.2-1.2-3.5-1.7-5-2.3c-1.3-0.5-2-1-2.4-1.6c-0.2-0.2-0.6-0.9-0.6-1.8
		c0-1.1,0.8-3.1,3.5-3.1c1.8,0,2.4,0.5,3,0.9c0.7,0.4,1.1,1.4,1.2,1.5h0.5c0-0.9-0.1-1.6-0.1-2.6c-0.9-0.4-1.3-0.5-2.4-0.7
		c-0.6-0.1-1.4-0.1-1.6-0.1c-2.6,0-3.9,0.7-4.8,1.5c-1.5,1.4-1.7,3-1.7,3.8c0,1.7,0.8,3.1,2.2,3.9c0.6,0.4,1.6,0.8,3.2,1.4
		c1,0.4,1.9,0.6,2.7,1.4c1,0.9,1.3,1.9,1.2,2.5c0,1.4-0.7,3.7-3.9,3.7c-0.8,0-1.6-0.1-1.9-0.2c-1.3-0.4-2.3-1.2-2.7-1.6
		c-0.2-0.3-0.3-0.6-0.5-0.9L496,537.5z"/>
	<path id="path3024" class="st0" d="M548.1,522.2c-0.8,1.5-1.4,2.9-2.2,4.4c-0.8,1.6-1.6,3.1-2.4,4.6c-0.6,1.2-1.3,2.5-1.9,3.7
		c-0.3,0.6-0.7,1.2-1.1,1.9c-0.8-1.4-1.7-2.9-2.5-4.3c-0.9-1.6-1.8-3.3-2.7-4.9c-0.6-1.1-1.2-2.2-1.8-3.3c-0.4-0.7-0.8-1.3-1.1-2
		c-0.5,0-0.6,0-1,0c-0.6,5.3-2.3,17.8-2.5,18.9c0.8,0,1.8-0.1,1.9,0c0.1-1.5,0.1-2.8,0.3-4.3c0.1-1.5,0.3-3,0.5-4.6
		c0.2-1.7,0.3-3.4,0.5-5.2c1,1.8,2,3.6,2.9,5.3c0.8,1.5,1.7,3,2.5,4.6c0.7,1.4,1.4,2.7,2,4.1h0.7c0.2-0.6,0.4-1,0.7-1.6
		s0.5-1.2,0.8-1.7c1.8-3.6,3.6-7.3,5.5-10.9c0.4,2.8,0.8,5.6,1,8.4c0.2,2,0.5,3.9,0.6,5.9c0.8,0,2.1,0,3.1,0c-0.1-0.6-0.3-1.4-0.4-2
		c-0.2-1-0.3-1.7-0.4-2.7c-0.1-1.1-0.3-2.2-0.5-3.3c-0.2-1.8-0.5-3.6-0.7-5.3c-0.1-1.2-0.3-2.3-0.5-3.5c-0.1-0.8-0.2-1.3-0.2-2.1
		h-1.1V522.2z"/>
	<path id="path3026" class="st0" d="M578.3,522.2c0.1,0.9,0.1,1.9,0.1,2.9c0.1,1.5,0.1,3.1,0.1,4.6c0,0.9,0,1.8,0,2.7
		c0,1.6,0,3.1,0,4.7c-0.1,1.3-0.1,2.7-0.2,4.1c0.7,0,1.9,0,2,0c-0.1-1.2-0.1-2.4-0.1-3.6c-0.1-1.3-0.1-2.7-0.1-4.1
		c0-2.1-0.1-4.3-0.1-6.4c1.1,1.1,2.2,2.2,3.3,3.3c1.9,1.9,3.9,3.8,5.8,5.7c1.6,1.7,3.2,3.4,4.8,5.1h0.9c-0.1-1.2,0-2.5,0-3.8
		c0-1.2,0-2.9,0-4.1c0-2.2-0.1-3.8,0-5.9c0-1.6,0-3.5,0.1-5.1c-0.6,0-1.8,0-2,0c0.1,0.9,0,1.7,0.1,2.6c0.1,1,0.1,2,0.1,3.1
		c0.1,2.8,0.1,5.7,0.2,8.5c-1.7-1.8-3.5-3.5-5.2-5.3c-1.3-1.3-2.7-2.7-4-4c-1-1-2.1-2.1-3.1-3.2c-0.5-0.6-1-1.2-1.5-1.8H578.3z"/>
	<path id="path3028" class="st0" d="M512.8,537.5c-0.1,1.2,0.1,1.9,0,3c1.4,0.6,2,0.9,4.7,1c0.6,0,2.5,0,4.1-1
		c0.9-0.5,2.9-2.1,2.9-5.1c0-1.3-0.5-2.7-1.4-3.6c-1.2-1.2-3.5-1.7-5-2.3c-1.3-0.5-2-1-2.4-1.6c-0.2-0.2-0.6-0.9-0.6-1.8
		c0-1.1,0.8-3.1,3.5-3.1c1.8,0,2.4,0.5,3,0.9c0.7,0.4,1.1,1.4,1.2,1.5h0.5c0-0.9-0.1-1.6-0.1-2.6c-0.9-0.4-1.3-0.5-2.4-0.7
		c-0.6-0.1-1.4-0.1-1.6-0.1c-2.6,0-3.9,0.7-4.8,1.5c-1.5,1.4-1.7,3-1.7,3.8c0,1.7,0.8,3.1,2.2,4c0.6,0.4,1.6,0.8,3.2,1.4
		c1,0.4,1.9,0.6,2.7,1.4c1,0.9,1.3,1.9,1.2,2.5c0,1.4-0.7,3.7-3.9,3.7c-0.8,0-1.6-0.1-1.9-0.2c-1.3-0.4-2.3-1.2-2.7-1.6
		c-0.2-0.3-0.3-0.6-0.5-0.9L512.8,537.5z"/>
	<path id="path3030" class="st0" d="M601.4,522.2c0.1,0.9,0.1,1.9,0.1,2.9c0.1,1.5,0.1,3.1,0.1,4.6c0,0.9,0,1.8,0,2.7
		c0,1.6,0,3.1,0,4.7c-0.1,1.3-0.1,2.7-0.2,4.1c0.6,0,1.9,0,2,0c-0.1-1.2-0.1-2.4-0.1-3.6c-0.1-1.3-0.1-2.7-0.1-4.1
		c0-2.1-0.1-4.3-0.1-6.4c1.1,1.1,2.2,2.2,3.3,3.3c1.9,1.9,3.9,3.8,5.8,5.7c1.6,1.7,3.2,3.4,4.8,5.1h0.9c-0.1-1.2,0-2.5,0-3.8
		c0-1.2,0-2.9,0-4.1c0-2.2-0.1-3.8,0-5.9c0-1.6,0-3.5,0.1-5.1c-0.6,0-1.8,0-2,0c0.1,0.9,0,1.7,0.1,2.6c0.1,1,0.1,2,0.1,3.1
		c0.1,2.8,0.1,5.7,0.2,8.5c-1.7-1.8-3.5-3.5-5.2-5.3c-1.3-1.3-2.7-2.7-4-4c-1-1-2.1-2.1-3.1-3.2c-0.5-0.6-1-1.2-1.6-1.8H601.4z"/>
	<path id="path3032" class="st0" d="M469,541.1c-1.3-1.4-2.7-3.1-3.9-4.6c-1.3-1.6-2.5-3.2-3.7-4.8c1.5-0.3,2.9-0.6,4-1.7
		c1.3-1.3,1.5-2.7,1.5-3.4c0-0.9-0.3-1.8-0.8-2.5c-1.1-1.6-3-1.7-3.6-1.8c-0.3,0-0.7-0.1-1-0.1h-5.2l-1.6-0.1V541h2.9
		c-0.1-0.7-0.1-1.3-0.1-2c0-0.8,0-1.6,0-2.4c0-1.6,0-3.2,0-4.8l0.6-0.1c1.3,1.7,2.7,3.3,4,5c1,1.4,2.2,2.8,3.1,4.2h3.8V541.1z
		 M457.6,523.4c0.7-0.1,1.3-0.1,2-0.1c0.6,0,1.4,0.1,2,0.2c0.9,0.2,2.6,1,2.6,3.4c0,2.5-1.8,3.4-2.6,3.7c-1.5,0.5-3.7,0.4-4,0.4
		c0-1.2,0-2.3,0-3.4C457.5,526.2,457.5,524.8,457.6,523.4z"/>
	<path id="path3034" class="st0" d="M563.9,522.2c-0.4,1.1-0.9,2.1-1.4,3.2c-0.6,1.5-1.3,3-1.9,4.5c-0.9,2-1.6,3.7-2.5,5.7
		c-0.8,1.8-1.6,3.8-2.5,5.5c0.5-0.1,1.5,0,2.1,0c0.8-2.7,1.1-3.3,2.7-7.2c1.3-0.1,2.5,0,3.9,0c1.1,0,2.1,0,3.2,0
		c1.8,4.1,2.3,4.8,3.1,7.2c1,0,2.3,0,3.3,0c-0.5-0.9-0.7-1.6-1.1-2.5c-0.5-1.1-1.1-2.3-1.6-3.5c-0.6-1.4-1.3-2.8-1.9-4.3
		c-0.6-1.3-1.1-2.4-1.7-3.7c-0.4-0.9-0.8-1.8-1.2-2.7c-0.3-0.7-0.8-1.5-1.1-2.3L563.9,522.2L563.9,522.2z M561,532.4
		c0.5-1.2,0.9-2.3,1.5-3.5c0.5-1.1,0.8-1.9,1.3-2.9l2.9,6.5L561,532.4L561,532.4z"/>
</g>
</svg>
